<mxfile host="app.diagrams.net" agent="Mozilla/5.0 (Windows NT 10.0; Win64; x64) AppleWebKit/537.36 (KHTML, like Gecko) Chrome/129.0.0.0 Safari/537.36" version="24.7.17" pages="2">
  <diagram name="Page-1" id="IRcfpAae7mGTaCPk754D">
    <mxGraphModel dx="2874" dy="1532" grid="0" gridSize="10" guides="1" tooltips="1" connect="1" arrows="1" fold="1" page="0" pageScale="1" pageWidth="850" pageHeight="1100" math="0" shadow="0">
      <root>
        <mxCell id="0" />
        <mxCell id="1" parent="0" />
        <mxCell id="nz6ZBnck1aT8bjIQxY7x-17" value="" style="rounded=1;whiteSpace=wrap;html=1;" parent="1" vertex="1">
          <mxGeometry x="72" y="-239" width="383" height="629" as="geometry" />
        </mxCell>
        <mxCell id="nz6ZBnck1aT8bjIQxY7x-15" value="" style="rounded=1;whiteSpace=wrap;html=1;" parent="1" vertex="1">
          <mxGeometry x="573" y="-236" width="383" height="621" as="geometry" />
        </mxCell>
        <mxCell id="nz6ZBnck1aT8bjIQxY7x-13" value="" style="rounded=1;whiteSpace=wrap;html=1;" parent="1" vertex="1">
          <mxGeometry x="-540" y="-239" width="551" height="629" as="geometry" />
        </mxCell>
        <mxCell id="xE6pJx1nh6PJWN3Qy-AY-7" style="edgeStyle=orthogonalEdgeStyle;rounded=0;orthogonalLoop=1;jettySize=auto;html=1;exitX=0.5;exitY=1;exitDx=0;exitDy=0;" parent="1" source="xE6pJx1nh6PJWN3Qy-AY-1" target="xE6pJx1nh6PJWN3Qy-AY-2" edge="1">
          <mxGeometry relative="1" as="geometry" />
        </mxCell>
        <mxCell id="xE6pJx1nh6PJWN3Qy-AY-1" value="ChatBot AI" style="rounded=1;whiteSpace=wrap;html=1;fillColor=#d5e8d4;strokeColor=#82b366;" parent="1" vertex="1">
          <mxGeometry x="714" y="150" width="120" height="60" as="geometry" />
        </mxCell>
        <mxCell id="rwiIwofupBIJgXOyAcXi-6" style="edgeStyle=orthogonalEdgeStyle;rounded=0;orthogonalLoop=1;jettySize=auto;html=1;exitX=0.5;exitY=1;exitDx=0;exitDy=0;" edge="1" parent="1" source="xE6pJx1nh6PJWN3Qy-AY-2" target="nz6ZBnck1aT8bjIQxY7x-43">
          <mxGeometry relative="1" as="geometry" />
        </mxCell>
        <mxCell id="xE6pJx1nh6PJWN3Qy-AY-2" value="API" style="rounded=1;whiteSpace=wrap;html=1;fillColor=#d5e8d4;strokeColor=#82b366;" parent="1" vertex="1">
          <mxGeometry x="714" y="293" width="120" height="60" as="geometry" />
        </mxCell>
        <mxCell id="xE6pJx1nh6PJWN3Qy-AY-5" style="edgeStyle=orthogonalEdgeStyle;rounded=0;orthogonalLoop=1;jettySize=auto;html=1;exitX=0.5;exitY=1;exitDx=0;exitDy=0;" parent="1" source="xE6pJx1nh6PJWN3Qy-AY-3" target="xE6pJx1nh6PJWN3Qy-AY-4" edge="1">
          <mxGeometry relative="1" as="geometry" />
        </mxCell>
        <mxCell id="xE6pJx1nh6PJWN3Qy-AY-3" value="allowed courses Logic&amp;nbsp;" style="rounded=1;whiteSpace=wrap;html=1;fillColor=#d5e8d4;strokeColor=#82b366;" parent="1" vertex="1">
          <mxGeometry x="118" y="150" width="120" height="60" as="geometry" />
        </mxCell>
        <mxCell id="rwiIwofupBIJgXOyAcXi-5" style="edgeStyle=orthogonalEdgeStyle;rounded=0;orthogonalLoop=1;jettySize=auto;html=1;exitX=0.5;exitY=1;exitDx=0;exitDy=0;" edge="1" parent="1" source="xE6pJx1nh6PJWN3Qy-AY-4" target="nz6ZBnck1aT8bjIQxY7x-43">
          <mxGeometry relative="1" as="geometry" />
        </mxCell>
        <mxCell id="xE6pJx1nh6PJWN3Qy-AY-4" value="API" style="rounded=1;whiteSpace=wrap;html=1;fillColor=#d5e8d4;strokeColor=#82b366;" parent="1" vertex="1">
          <mxGeometry x="198" y="295" width="120" height="60" as="geometry" />
        </mxCell>
        <mxCell id="xE6pJx1nh6PJWN3Qy-AY-10" style="edgeStyle=orthogonalEdgeStyle;rounded=0;orthogonalLoop=1;jettySize=auto;html=1;exitX=0;exitY=0.5;exitDx=0;exitDy=0;entryX=1;entryY=0.5;entryDx=0;entryDy=0;" parent="1" source="xE6pJx1nh6PJWN3Qy-AY-8" target="xE6pJx1nh6PJWN3Qy-AY-3" edge="1">
          <mxGeometry relative="1" as="geometry" />
        </mxCell>
        <mxCell id="xE6pJx1nh6PJWN3Qy-AY-8" value="Backend" style="rounded=1;whiteSpace=wrap;html=1;fillColor=#d5e8d4;strokeColor=#82b366;" parent="1" vertex="1">
          <mxGeometry x="318" y="150" width="120" height="60" as="geometry" />
        </mxCell>
        <mxCell id="xE6pJx1nh6PJWN3Qy-AY-18" style="edgeStyle=orthogonalEdgeStyle;rounded=0;orthogonalLoop=1;jettySize=auto;html=1;exitX=0.5;exitY=1;exitDx=0;exitDy=0;" parent="1" source="xE6pJx1nh6PJWN3Qy-AY-9" target="xE6pJx1nh6PJWN3Qy-AY-8" edge="1">
          <mxGeometry relative="1" as="geometry" />
        </mxCell>
        <mxCell id="xE6pJx1nh6PJWN3Qy-AY-9" value="Predicting Grades AI" style="rounded=1;whiteSpace=wrap;html=1;fillColor=#d5e8d4;strokeColor=#82b366;" parent="1" vertex="1">
          <mxGeometry x="318" y="30" width="120" height="60" as="geometry" />
        </mxCell>
        <mxCell id="xE6pJx1nh6PJWN3Qy-AY-23" style="edgeStyle=orthogonalEdgeStyle;rounded=0;orthogonalLoop=1;jettySize=auto;html=1;exitX=0.5;exitY=1;exitDx=0;exitDy=0;" parent="1" source="xE6pJx1nh6PJWN3Qy-AY-19" target="xE6pJx1nh6PJWN3Qy-AY-22" edge="1">
          <mxGeometry relative="1" as="geometry" />
        </mxCell>
        <mxCell id="xE6pJx1nh6PJWN3Qy-AY-19" value="Competences" style="rounded=1;whiteSpace=wrap;html=1;fillColor=#d5e8d4;strokeColor=#82b366;" parent="1" vertex="1">
          <mxGeometry x="-126" y="150" width="120" height="60" as="geometry" />
        </mxCell>
        <mxCell id="nz6ZBnck1aT8bjIQxY7x-10" style="edgeStyle=orthogonalEdgeStyle;rounded=0;orthogonalLoop=1;jettySize=auto;html=1;exitX=0.5;exitY=1;exitDx=0;exitDy=0;" parent="1" source="xE6pJx1nh6PJWN3Qy-AY-21" target="xE6pJx1nh6PJWN3Qy-AY-22" edge="1">
          <mxGeometry relative="1" as="geometry" />
        </mxCell>
        <mxCell id="xE6pJx1nh6PJWN3Qy-AY-21" value="Jobs" style="rounded=1;whiteSpace=wrap;html=1;fillColor=#f8cecc;strokeColor=#b85450;" parent="1" vertex="1">
          <mxGeometry x="-503" y="150" width="120" height="60" as="geometry" />
        </mxCell>
        <mxCell id="rwiIwofupBIJgXOyAcXi-4" style="edgeStyle=orthogonalEdgeStyle;rounded=0;orthogonalLoop=1;jettySize=auto;html=1;exitX=0.5;exitY=1;exitDx=0;exitDy=0;" edge="1" parent="1" source="xE6pJx1nh6PJWN3Qy-AY-22" target="nz6ZBnck1aT8bjIQxY7x-43">
          <mxGeometry relative="1" as="geometry" />
        </mxCell>
        <mxCell id="xE6pJx1nh6PJWN3Qy-AY-22" value="API" style="rounded=1;whiteSpace=wrap;html=1;fillColor=#d5e8d4;strokeColor=#82b366;" parent="1" vertex="1">
          <mxGeometry x="-330" y="293" width="120" height="60" as="geometry" />
        </mxCell>
        <mxCell id="xE6pJx1nh6PJWN3Qy-AY-30" style="edgeStyle=orthogonalEdgeStyle;rounded=0;orthogonalLoop=1;jettySize=auto;html=1;exitX=0.5;exitY=1;exitDx=0;exitDy=0;exitPerimeter=0;strokeColor=#ffccf8;" parent="1" source="xE6pJx1nh6PJWN3Qy-AY-28" target="xE6pJx1nh6PJWN3Qy-AY-9" edge="1">
          <mxGeometry relative="1" as="geometry" />
        </mxCell>
        <mxCell id="xE6pJx1nh6PJWN3Qy-AY-38" style="edgeStyle=orthogonalEdgeStyle;rounded=0;orthogonalLoop=1;jettySize=auto;html=1;exitX=0.5;exitY=1;exitDx=0;exitDy=0;exitPerimeter=0;strokeColor=#FFCCCC;entryX=0.5;entryY=0;entryDx=0;entryDy=0;" parent="1" source="xE6pJx1nh6PJWN3Qy-AY-28" target="xE6pJx1nh6PJWN3Qy-AY-3" edge="1">
          <mxGeometry relative="1" as="geometry">
            <mxPoint x="211" y="-49" as="sourcePoint" />
            <mxPoint x="181" y="146" as="targetPoint" />
            <Array as="points">
              <mxPoint x="378" />
              <mxPoint x="178" />
            </Array>
          </mxGeometry>
        </mxCell>
        <mxCell id="xE6pJx1nh6PJWN3Qy-AY-28" value="Students Grades" style="shape=cylinder3;whiteSpace=wrap;html=1;boundedLbl=1;backgroundOutline=1;size=15;fillColor=#d5e8d4;strokeColor=#82b366;" parent="1" vertex="1">
          <mxGeometry x="348" y="-115" width="60" height="80" as="geometry" />
        </mxCell>
        <mxCell id="xE6pJx1nh6PJWN3Qy-AY-32" style="edgeStyle=orthogonalEdgeStyle;rounded=0;orthogonalLoop=1;jettySize=auto;html=1;exitX=0.5;exitY=1;exitDx=0;exitDy=0;exitPerimeter=0;strokeColor=#ffccf8;" parent="1" source="xE6pJx1nh6PJWN3Qy-AY-29" target="xE6pJx1nh6PJWN3Qy-AY-1" edge="1">
          <mxGeometry relative="1" as="geometry" />
        </mxCell>
        <mxCell id="xE6pJx1nh6PJWN3Qy-AY-29" value="AI Bylaws" style="shape=cylinder3;whiteSpace=wrap;html=1;boundedLbl=1;backgroundOutline=1;size=15;fillColor=#d5e8d4;strokeColor=#82b366;" parent="1" vertex="1">
          <mxGeometry x="815" y="-131" width="60" height="80" as="geometry" />
        </mxCell>
        <mxCell id="xE6pJx1nh6PJWN3Qy-AY-36" style="edgeStyle=orthogonalEdgeStyle;rounded=0;orthogonalLoop=1;jettySize=auto;html=1;exitX=0.5;exitY=1;exitDx=0;exitDy=0;exitPerimeter=0;" parent="1" source="xE6pJx1nh6PJWN3Qy-AY-34" target="xE6pJx1nh6PJWN3Qy-AY-19" edge="1">
          <mxGeometry relative="1" as="geometry" />
        </mxCell>
        <mxCell id="xE6pJx1nh6PJWN3Qy-AY-34" value="" style="shape=cylinder3;whiteSpace=wrap;html=1;boundedLbl=1;backgroundOutline=1;size=15;fillColor=#f8cecc;strokeColor=#b85450;" parent="1" vertex="1">
          <mxGeometry x="-240" y="-135" width="80" height="90" as="geometry" />
        </mxCell>
        <mxCell id="xE6pJx1nh6PJWN3Qy-AY-37" style="edgeStyle=orthogonalEdgeStyle;rounded=0;orthogonalLoop=1;jettySize=auto;html=1;exitX=0.5;exitY=1;exitDx=0;exitDy=0;exitPerimeter=0;" parent="1" source="xE6pJx1nh6PJWN3Qy-AY-35" target="xE6pJx1nh6PJWN3Qy-AY-21" edge="1">
          <mxGeometry relative="1" as="geometry" />
        </mxCell>
        <mxCell id="xE6pJx1nh6PJWN3Qy-AY-35" value="Jobs Data" style="shape=cylinder3;whiteSpace=wrap;html=1;boundedLbl=1;backgroundOutline=1;size=15;fillColor=#f8cecc;strokeColor=#b85450;" parent="1" vertex="1">
          <mxGeometry x="-483" y="-144" width="80" height="90" as="geometry" />
        </mxCell>
        <mxCell id="xE6pJx1nh6PJWN3Qy-AY-40" value="" style="shape=cylinder3;whiteSpace=wrap;html=1;boundedLbl=1;backgroundOutline=1;size=15;fillColor=#f8cecc;strokeColor=#b85450;" parent="1" vertex="1">
          <mxGeometry x="686" y="-135" width="60" height="80" as="geometry" />
        </mxCell>
        <mxCell id="xE6pJx1nh6PJWN3Qy-AY-43" value="" style="shape=cylinder3;whiteSpace=wrap;html=1;boundedLbl=1;backgroundOutline=1;size=15;fillColor=#f8cecc;strokeColor=#b85450;" parent="1" vertex="1">
          <mxGeometry x="696" y="-125" width="60" height="80" as="geometry" />
        </mxCell>
        <mxCell id="xE6pJx1nh6PJWN3Qy-AY-44" value="" style="shape=cylinder3;whiteSpace=wrap;html=1;boundedLbl=1;backgroundOutline=1;size=15;fillColor=#f8cecc;strokeColor=#b85450;" parent="1" vertex="1">
          <mxGeometry x="706" y="-115" width="60" height="80" as="geometry" />
        </mxCell>
        <mxCell id="xE6pJx1nh6PJWN3Qy-AY-45" value="other Bylaws" style="shape=cylinder3;whiteSpace=wrap;html=1;boundedLbl=1;backgroundOutline=1;size=15;fillColor=#f8cecc;strokeColor=#b85450;" parent="1" vertex="1">
          <mxGeometry x="716" y="-105" width="60" height="80" as="geometry" />
        </mxCell>
        <mxCell id="xE6pJx1nh6PJWN3Qy-AY-46" value="High School Student&lt;div&gt;Grads&lt;/div&gt;" style="shape=cylinder3;whiteSpace=wrap;html=1;boundedLbl=1;backgroundOutline=1;size=15;fillColor=#fff2cc;strokeColor=#d6b656;" parent="1" vertex="1">
          <mxGeometry x="263" y="-119" width="60" height="84" as="geometry" />
        </mxCell>
        <mxCell id="nz6ZBnck1aT8bjIQxY7x-2" style="edgeStyle=orthogonalEdgeStyle;rounded=0;orthogonalLoop=1;jettySize=auto;html=1;exitX=0.5;exitY=1;exitDx=0;exitDy=0;exitPerimeter=0;" parent="1" source="nz6ZBnck1aT8bjIQxY7x-1" edge="1">
          <mxGeometry relative="1" as="geometry">
            <mxPoint x="-65" y="149" as="targetPoint" />
          </mxGeometry>
        </mxCell>
        <mxCell id="nz6ZBnck1aT8bjIQxY7x-1" value="Engineering data from 2018" style="shape=cylinder3;whiteSpace=wrap;html=1;boundedLbl=1;backgroundOutline=1;size=15;fillColor=#fff2cc;strokeColor=#d6b656;" parent="1" vertex="1">
          <mxGeometry x="-107" y="-135" width="82" height="91" as="geometry" />
        </mxCell>
        <mxCell id="nz6ZBnck1aT8bjIQxY7x-7" value="" style="shape=cylinder3;whiteSpace=wrap;html=1;boundedLbl=1;backgroundOutline=1;size=15;fillColor=#f8cecc;strokeColor=#b85450;" parent="1" vertex="1">
          <mxGeometry x="-230" y="-125" width="80" height="90" as="geometry" />
        </mxCell>
        <mxCell id="nz6ZBnck1aT8bjIQxY7x-8" value="" style="shape=cylinder3;whiteSpace=wrap;html=1;boundedLbl=1;backgroundOutline=1;size=15;fillColor=#f8cecc;strokeColor=#b85450;" parent="1" vertex="1">
          <mxGeometry x="-220" y="-115" width="80" height="90" as="geometry" />
        </mxCell>
        <mxCell id="nz6ZBnck1aT8bjIQxY7x-9" value="&amp;nbsp;other Competences&lt;div&gt;data&lt;/div&gt;" style="shape=cylinder3;whiteSpace=wrap;html=1;boundedLbl=1;backgroundOutline=1;size=15;fillColor=#f8cecc;strokeColor=#b85450;" parent="1" vertex="1">
          <mxGeometry x="-210" y="-105" width="80" height="90" as="geometry" />
        </mxCell>
        <mxCell id="nz6ZBnck1aT8bjIQxY7x-22" style="edgeStyle=orthogonalEdgeStyle;rounded=0;orthogonalLoop=1;jettySize=auto;html=1;exitX=0.5;exitY=1;exitDx=0;exitDy=0;" parent="1" source="nz6ZBnck1aT8bjIQxY7x-18" target="nz6ZBnck1aT8bjIQxY7x-21" edge="1">
          <mxGeometry relative="1" as="geometry" />
        </mxCell>
        <mxCell id="nz6ZBnck1aT8bjIQxY7x-18" value="3- Competency Module&amp;nbsp;" style="rounded=1;whiteSpace=wrap;html=1;fillColor=#dae8fc;strokeColor=#6c8ebf;" parent="1" vertex="1">
          <mxGeometry x="1418" y="60" width="120" height="60" as="geometry" />
        </mxCell>
        <mxCell id="nz6ZBnck1aT8bjIQxY7x-23" style="edgeStyle=orthogonalEdgeStyle;rounded=0;orthogonalLoop=1;jettySize=auto;html=1;exitX=0.5;exitY=1;exitDx=0;exitDy=0;" parent="1" source="nz6ZBnck1aT8bjIQxY7x-19" target="nz6ZBnck1aT8bjIQxY7x-21" edge="1">
          <mxGeometry relative="1" as="geometry" />
        </mxCell>
        <mxCell id="nz6ZBnck1aT8bjIQxY7x-19" value="1- ChatBot Module&amp;nbsp;" style="rounded=1;whiteSpace=wrap;html=1;fillColor=#dae8fc;strokeColor=#6c8ebf;" parent="1" vertex="1">
          <mxGeometry x="1752" y="60" width="120" height="60" as="geometry" />
        </mxCell>
        <mxCell id="nz6ZBnck1aT8bjIQxY7x-24" style="edgeStyle=orthogonalEdgeStyle;rounded=0;orthogonalLoop=1;jettySize=auto;html=1;exitX=0.5;exitY=1;exitDx=0;exitDy=0;" parent="1" source="nz6ZBnck1aT8bjIQxY7x-20" target="nz6ZBnck1aT8bjIQxY7x-21" edge="1">
          <mxGeometry relative="1" as="geometry" />
        </mxCell>
        <mxCell id="nz6ZBnck1aT8bjIQxY7x-20" value="2- Registration Helper&amp;nbsp;&amp;nbsp;Module&amp;nbsp;" style="rounded=1;whiteSpace=wrap;html=1;fillColor=#dae8fc;strokeColor=#6c8ebf;" parent="1" vertex="1">
          <mxGeometry x="1585" y="60" width="120" height="60" as="geometry" />
        </mxCell>
        <mxCell id="nz6ZBnck1aT8bjIQxY7x-21" value="4- UI / application&lt;div&gt;Module&amp;nbsp;&lt;/div&gt;" style="rounded=1;whiteSpace=wrap;html=1;fillColor=#dae8fc;strokeColor=#6c8ebf;" parent="1" vertex="1">
          <mxGeometry x="1585" y="274" width="120" height="60" as="geometry" />
        </mxCell>
        <mxCell id="nz6ZBnck1aT8bjIQxY7x-31" value="" style="rounded=1;whiteSpace=wrap;html=1;" parent="1" vertex="1">
          <mxGeometry x="-72" y="508" width="660" height="361" as="geometry" />
        </mxCell>
        <mxCell id="nz6ZBnck1aT8bjIQxY7x-25" value="1- ChatBot Module&amp;nbsp;" style="rounded=1;whiteSpace=wrap;html=1;fillColor=#dae8fc;strokeColor=#6c8ebf;" parent="1" vertex="1">
          <mxGeometry x="643" y="-219" width="255" height="60" as="geometry" />
        </mxCell>
        <mxCell id="nz6ZBnck1aT8bjIQxY7x-26" value="2- Registration Helper&amp;nbsp;&amp;nbsp;Module&amp;nbsp;" style="rounded=1;whiteSpace=wrap;html=1;fillColor=#dae8fc;strokeColor=#6c8ebf;" parent="1" vertex="1">
          <mxGeometry x="124" y="-219" width="279" height="60" as="geometry" />
        </mxCell>
        <mxCell id="nz6ZBnck1aT8bjIQxY7x-27" value="3- Competency Module&amp;nbsp;" style="rounded=1;whiteSpace=wrap;html=1;fillColor=#dae8fc;strokeColor=#6c8ebf;" parent="1" vertex="1">
          <mxGeometry x="-454" y="-219" width="379" height="60" as="geometry" />
        </mxCell>
        <mxCell id="nz6ZBnck1aT8bjIQxY7x-32" value="4- UI / application&amp;nbsp;&lt;span style=&quot;background-color: initial;&quot;&gt;Module&amp;nbsp;&lt;/span&gt;" style="rounded=1;whiteSpace=wrap;html=1;fillColor=#dae8fc;strokeColor=#6c8ebf;" parent="1" vertex="1">
          <mxGeometry x="40" y="780" width="435" height="60" as="geometry" />
        </mxCell>
        <mxCell id="nz6ZBnck1aT8bjIQxY7x-35" value="IOS" style="shape=hexagon;perimeter=hexagonPerimeter2;whiteSpace=wrap;html=1;fixedSize=1;fillColor=#fff2cc;strokeColor=#d6b656;" parent="1" vertex="1">
          <mxGeometry x="350" y="665" width="120" height="80" as="geometry" />
        </mxCell>
        <mxCell id="nz6ZBnck1aT8bjIQxY7x-36" value="Android&amp;nbsp;" style="shape=hexagon;perimeter=hexagonPerimeter2;whiteSpace=wrap;html=1;fixedSize=1;fillColor=#d5e8d4;strokeColor=#82b366;" parent="1" vertex="1">
          <mxGeometry x="197" y="665" width="120" height="80" as="geometry" />
        </mxCell>
        <mxCell id="nz6ZBnck1aT8bjIQxY7x-37" value="WEB" style="shape=hexagon;perimeter=hexagonPerimeter2;whiteSpace=wrap;html=1;fixedSize=1;fillColor=#d5e8d4;strokeColor=#82b366;" parent="1" vertex="1">
          <mxGeometry x="56" y="665" width="120" height="80" as="geometry" />
        </mxCell>
        <mxCell id="nz6ZBnck1aT8bjIQxY7x-44" style="edgeStyle=orthogonalEdgeStyle;rounded=0;orthogonalLoop=1;jettySize=auto;html=1;exitX=0.5;exitY=1;exitDx=0;exitDy=0;" parent="1" source="nz6ZBnck1aT8bjIQxY7x-43" target="nz6ZBnck1aT8bjIQxY7x-37" edge="1">
          <mxGeometry relative="1" as="geometry" />
        </mxCell>
        <mxCell id="nz6ZBnck1aT8bjIQxY7x-45" style="edgeStyle=orthogonalEdgeStyle;rounded=0;orthogonalLoop=1;jettySize=auto;html=1;exitX=0.5;exitY=1;exitDx=0;exitDy=0;" parent="1" source="nz6ZBnck1aT8bjIQxY7x-43" target="nz6ZBnck1aT8bjIQxY7x-35" edge="1">
          <mxGeometry relative="1" as="geometry" />
        </mxCell>
        <mxCell id="nz6ZBnck1aT8bjIQxY7x-46" style="edgeStyle=orthogonalEdgeStyle;rounded=0;orthogonalLoop=1;jettySize=auto;html=1;exitX=0.5;exitY=1;exitDx=0;exitDy=0;" parent="1" source="nz6ZBnck1aT8bjIQxY7x-43" target="nz6ZBnck1aT8bjIQxY7x-36" edge="1">
          <mxGeometry relative="1" as="geometry" />
        </mxCell>
        <mxCell id="nz6ZBnck1aT8bjIQxY7x-43" value="Shared Flutter Source Code" style="rounded=1;whiteSpace=wrap;html=1;" parent="1" vertex="1">
          <mxGeometry x="197" y="535" width="120" height="60" as="geometry" />
        </mxCell>
        <mxCell id="nz6ZBnck1aT8bjIQxY7x-64" value="" style="rounded=1;whiteSpace=wrap;html=1;" parent="1" vertex="1">
          <mxGeometry x="665" y="486" width="348" height="395" as="geometry" />
        </mxCell>
        <mxCell id="nz6ZBnck1aT8bjIQxY7x-59" value="" style="rounded=1;whiteSpace=wrap;html=1;strokeColor=#C7C7C7;" parent="1" vertex="1">
          <mxGeometry x="685" y="531" width="159" height="331" as="geometry" />
        </mxCell>
        <mxCell id="nz6ZBnck1aT8bjIQxY7x-55" value="&lt;b&gt;Keys / legend&lt;/b&gt;" style="text;html=1;align=center;verticalAlign=middle;whiteSpace=wrap;rounded=0;" parent="1" vertex="1">
          <mxGeometry x="798" y="493" width="82" height="30" as="geometry" />
        </mxCell>
        <mxCell id="nz6ZBnck1aT8bjIQxY7x-33" value="Back End Code" style="rounded=1;whiteSpace=wrap;html=1;" parent="1" vertex="1">
          <mxGeometry x="706" y="590" width="120" height="60" as="geometry" />
        </mxCell>
        <mxCell id="nz6ZBnck1aT8bjIQxY7x-48" value="UI / Application" style="shape=hexagon;perimeter=hexagonPerimeter2;whiteSpace=wrap;html=1;fixedSize=1;" parent="1" vertex="1">
          <mxGeometry x="704" y="669" width="120" height="80" as="geometry" />
        </mxCell>
        <mxCell id="nz6ZBnck1aT8bjIQxY7x-50" value="Data Source" style="shape=cylinder3;whiteSpace=wrap;html=1;boundedLbl=1;backgroundOutline=1;size=15;" parent="1" vertex="1">
          <mxGeometry x="736" y="766" width="60" height="80" as="geometry" />
        </mxCell>
        <mxCell id="nz6ZBnck1aT8bjIQxY7x-61" value="" style="rounded=1;whiteSpace=wrap;html=1;strokeColor=#C7C7C7;" parent="1" vertex="1">
          <mxGeometry x="844" y="531" width="153" height="331" as="geometry" />
        </mxCell>
        <mxCell id="nz6ZBnck1aT8bjIQxY7x-51" value="Green &amp;gt;&amp;nbsp; Done" style="rounded=1;whiteSpace=wrap;html=1;strokeColor=none;fillColor=#d5e8d4;" parent="1" vertex="1">
          <mxGeometry x="859" y="598" width="120" height="60" as="geometry" />
        </mxCell>
        <mxCell id="nz6ZBnck1aT8bjIQxY7x-52" value="yellow &amp;gt;&amp;gt; Half done" style="rounded=1;whiteSpace=wrap;html=1;strokeColor=#d6b656;fillColor=#fff2cc;" parent="1" vertex="1">
          <mxGeometry x="859" y="682" width="120" height="60" as="geometry" />
        </mxCell>
        <mxCell id="nz6ZBnck1aT8bjIQxY7x-53" value="Red &amp;gt;&amp;gt;&amp;nbsp; Not Completed&amp;nbsp;" style="rounded=1;whiteSpace=wrap;html=1;strokeColor=#b85450;fillColor=#f8cecc;" parent="1" vertex="1">
          <mxGeometry x="859" y="772" width="120" height="60" as="geometry" />
        </mxCell>
        <mxCell id="nz6ZBnck1aT8bjIQxY7x-62" value="Shapes" style="text;html=1;align=center;verticalAlign=middle;whiteSpace=wrap;rounded=0;" parent="1" vertex="1">
          <mxGeometry x="730" y="541" width="60" height="30" as="geometry" />
        </mxCell>
        <mxCell id="nz6ZBnck1aT8bjIQxY7x-63" value="Colors" style="text;html=1;align=center;verticalAlign=middle;whiteSpace=wrap;rounded=0;" parent="1" vertex="1">
          <mxGeometry x="890.5" y="541" width="60" height="30" as="geometry" />
        </mxCell>
      </root>
    </mxGraphModel>
  </diagram>
  <diagram id="DjG10zaJIZ5k_Con295K" name="Page-2">
    <mxGraphModel dx="2849" dy="1674" grid="0" gridSize="10" guides="1" tooltips="1" connect="1" arrows="1" fold="1" page="0" pageScale="1" pageWidth="850" pageHeight="1100" math="0" shadow="0">
      <root>
        <mxCell id="0" />
        <mxCell id="1" parent="0" />
        <mxCell id="zwXe_-zh9Oxs4aX3bR_2-2" value="Code" style="rounded=1;whiteSpace=wrap;html=1;" vertex="1" parent="1">
          <mxGeometry x="34" y="94" width="120" height="60" as="geometry" />
        </mxCell>
        <mxCell id="zwXe_-zh9Oxs4aX3bR_2-7" style="edgeStyle=orthogonalEdgeStyle;rounded=0;orthogonalLoop=1;jettySize=auto;html=1;exitX=1;exitY=0.5;exitDx=0;exitDy=0;entryX=0;entryY=0.5;entryDx=0;entryDy=0;" edge="1" parent="1" source="zwXe_-zh9Oxs4aX3bR_2-4" target="zwXe_-zh9Oxs4aX3bR_2-2">
          <mxGeometry relative="1" as="geometry" />
        </mxCell>
        <mxCell id="zwXe_-zh9Oxs4aX3bR_2-4" value="ACAD" style="rounded=1;whiteSpace=wrap;html=1;" vertex="1" parent="1">
          <mxGeometry x="-166" y="-5" width="120" height="60" as="geometry" />
        </mxCell>
        <mxCell id="zwXe_-zh9Oxs4aX3bR_2-9" style="edgeStyle=orthogonalEdgeStyle;rounded=0;orthogonalLoop=1;jettySize=auto;html=1;exitX=1;exitY=0.5;exitDx=0;exitDy=0;" edge="1" parent="1" source="zwXe_-zh9Oxs4aX3bR_2-5" target="zwXe_-zh9Oxs4aX3bR_2-2">
          <mxGeometry relative="1" as="geometry" />
        </mxCell>
        <mxCell id="zwXe_-zh9Oxs4aX3bR_2-5" value="NON ACAD" style="rounded=1;whiteSpace=wrap;html=1;" vertex="1" parent="1">
          <mxGeometry x="-166" y="94" width="120" height="60" as="geometry" />
        </mxCell>
        <mxCell id="zwXe_-zh9Oxs4aX3bR_2-12" value="" style="shape=image;verticalLabelPosition=bottom;labelBackgroundColor=default;verticalAlign=top;aspect=fixed;imageAspect=0;image=data:image/png,iVBORw0KGgoAAAANSUhEUgAABBkAAAKSCAIAAAAYupSEAAAgAElEQVR4Aey9O7LEvq/f2bH3cxNtxYHLVXaPx3XLVVMT3z106sDbUPRfyXTy28mZIkGQIABJlFpvfU9wWuIDBD6EKKD16Nd/Wvr3X/7Lf1/a9Rn9/u0//vX/qb9//ev//Md//rdnmL/USvjVUnLP7Pdv//n//EscaHSI4Rh7pjPMsxpLzTxe463t+Q7H4jixpbXw23nkrGfGuOxf/4HTxAyQk173miGsbvpf/+v/VRdgDwRWIAC/WgEiRIAACEwRwFIzRQj1ZyQAvz3jrNxdp0mvW55L/Lf/9n/fnR7sO4AA/OoA6BgSBJ5HAEvN8+b8DhbDb+8wi1ezYdLrlucS7/e/X40G9L0AAfjVBSYJKoLA9Qlgqbn+HD7RAvjtE2f9aJsnvW55LvE//sf/Oto6jH9DAvCrG04qTAKB8xHAUnO+OYFG0wTgt9OM0GJtApNetzyX+J//8/9ZW1vIA4H/BL+CE4AACOxAAEvNDpAxxOoE4LerI4XASQKTXrc8l/j3f/9/J4dHAxCYSwB+NZcY2oMACCwggKVmATR0OZwA/PbwKXigApNe9/rf+AMBEAABEAABEAABEAABEACB+QRef4v+XvFvUVd0AoFBAvCrQTSoAAEQWJXA67Xw9LeqFhAGAvMIwG/n8ULrnwm0BGYLF9MW0T/rDwGPIwC/etyUw2AQOIgAYrKDwGPYnwjAb3/Ch87zCbQEZsgl5nNFj80ItLjsZoNDMAiAwIMIICZ70GTfyFT47Y0m8xqmtARmyCWuMZcP0bLFZR+CAmaCAAhsSgAx2aZ4IXwjAvDbjcBC7BCBlsAMucQQPZQfQKDFZQ9QC0OCAAjcjgBisttN6SMMgt8+YprPZGRLYIZc4kwz9nhdWlz28ZAAAARAYAUCiMlWgAgRuxOA3+6O/OkDtgRmyCWe7iWnsr/FZU+lMJQBARC4KAHEZBeduIerDb99uAPsb35LYIZcYv95wYiDBFpcdrAzKkAABECgmQBismZUaHgiAvDbE03GM1RpCcyQSzzDFy5iZYvLXsQUqAkCIHBqAojJTj09UG6AwBP99tu/Y3DQfb4DVFC8IYGWwGyDXOL76Wjk16v79Mo+UcmNXl33/vTSQ5Lb5Aa88dbS/oQ4O5YaGrvnJ0AzXenpOQN5jHSZqsugV4gK9qnqUy1Uojm8qyKMHRC4PgEnJvv2766cvrq3E7l8+49o83p1Xffuv/VixCuHWlD+ygmLz2XcUq5D5oTIqNXQVTtvnQxCeSCWgc/LE5B+m/1HzXMu1w7AFcY1z43lomqfG2q7drQ8jbdfP5fgSafRlYf/Da14Ie/g5biWIBZZLayszLGRqR43HbXnI2BddtAZXq+Xe6oX52vjFWPCQuPigwFN3RredT53gUYg8AMBGZMFMf07pxG0EIX/1XHvtqC2nWzIS0e9oMg1hVu3nBCjiSyyaJbGpfPmUHWt/w+w0PU0BCq/zQ7EHkVq5mJ1UssRWN38NLYNKcL+bY6o3IEtvphhWf9Tb9BaM67i6rlEmtGOv91RM8sTnl3i2+fLGNyU3WZyGZwYa9xy1J6QgHVZxxm+4ctDPqWy0xRjGr3CEVxkhK1GOXUn7IEACFyEQBWTla8O+NxE60xZYPKK8QoXIpKN4vwlojZuyqIyEK7I57aWE2L1tUaXr+FH/bo0hBGch8TG3QjUfms8KJjLheE0WTkhV1SFFwDE/j2sN1tWDtgLmHUVFW1gZjVfO5dIE9p9+P62vGjS2Dzh0iV0GbuN6mqUnxrLdEDB2QlYlx1yhlwuPSmY1+oVWcDA2tMq5+xIoR8IgIBLoCEmK/3yemFPS7aKS/TiVBIWXnX0yS8MaMq4oA4Li27eBY+qFjt3IlD7LfuadI5cFk+owgu5QhRdg8y04nyQ8JF1DbsuoqUNzKziK+cSaT6Dp/Lk10svT7j0ZV3m9zS6T45leqDg7ASsyw47g3Ybsq3ZK4YFR0HNcs6OFPqBAAi4BOqYjNcTGZOVbnm5kGcurs6VfLLjAtOYK7ihzRucXCJrNhImGcGsGz5vR6D2WyfSSs7g3BwiTmsFi35IKF90K014K0l+93/x2R06X3s3G0/KnGogbj4IDyTx7SvmiAqa5QMk6RM+ZMOx54zYMnyOEbCBmW29bi5Reaq7uvGs55nO1y/K5LsdjerTY5kuKDg7Aeuyw86Qa7IvlVWFinIL7xw8WsmrU4OcsyOFfiAAAi4BFZPxuSkEIuZx6lzprSUlnEtrES8ucmmKKnDFcC5hT4jjQyfLjGDXYhTegYDyWz5ZlQgqecz7w/ePs9OyK/F+OWOKKDz4v2hQEWM341vYSzfp6jxMqVUypxrwMJWAuCOHyZp54nJDcUN0JS43yGKwMUiAyA1Wx4pVc4k0pTxJ2SGEY3qzHvSUzpv7jU19w1jjlqP2hASsy2ZnEE6UFGdfYn8rCyOXjHQup38rOH/R0SLnhBShEgiAwDQBHZPloIxPPOW5iLyS8JJQS9fVvG9ac4XJJXhI/hQnRF7ncp96bNrLgllA/DTje11RdjECg36bpjs5TLh4kJKJVMG75ZTHvsVP4eRMdsBzWEJ8KUF8ZiiX5B6TMpsbvNJzSXmM+nJDPW0stRgX6rk0vFOUnnHKJpbcqxaEPUuAVhVbLkvWzCXStGWfyp4sFsE8tXLJE+tm0E14jmhVxIY2LWNJO7F9CQLWZbMz1EuE8AGxJMzxihHB8K5LOAuUBIGfCJiYLJx89NeYtO7k1aI+DfHwupr3TWuuyKfEhhNibmKXQB6/7aRZWmPrygSs37KLRA9JPhZ9jyviDjtf8UquFp5lG0lUXq0SonZD77pXc4OipxYhVeJtR2yOE0WMEJq7TVkOPh0CNjCzjVbMJdIEeQ6QV848i9TKTxHZ80ovo3fTWKYXCs5OwLrssDPYmlleYbtnOLPk5F7YAAEQuBIBG5Ox9lVGEQOttCaod8Rye13Li4s8Gca2XJHPbdxz5ITITXIfHlV+GsGyEtu3ImD9Vs4+b1N+wM4T9tJ2cUpuKr6yzZullWTHPWStHKIE/VmQ2Ii9WIQoz5t1A5HhqHREqsTbtRpUmseSooqO0goWg0+PAM2QV1PK1ssleCqzX1QbPJfcKs8iF4iFcsABitJ8UFQjlB0eS3TA5jUI0CRKXYedgT3HulJxBbGlvWJasOgsNrUcqSy2QQAELkPAxmRS9bxA1AFOXm5E27qp+CJWnNWo+eCilcVyi9I1Sy9FYuy0mRthfbJwblbi+C1Pf3mBZvIDrgi3C9ENT9nTSkwtTm95UzQT+FicrGWPpRG5RRYkNmKv9gbSlbmXHFjoNXCxgXupI4eLh4XVorFHkzjOYbVcgh1KeE61mfyCm5VZ5Hkt021LlA0spBpA7EgfVF2xe2oCNIlSxSFnyOXZk2Z6RRagvWWmHKkstkEABC5DwInJhO5qgcjLQl5wcluniotUYyVTRECloW2TS8o5Mo/NG7mNXs64AT5vQ8DzW3a495t+eyn7EztGlyoqH8q9+kY4WVr+ZeF8uYMFT8psbpBtENm5LKt1dsVyYdWNjWCNaznYcwjYwMw2WiuX4DkzK1meN5pNbifmVrUQ2bIRRvqzDFNtJFl7UXJqAtZl85yW2fZ/q26uVziCI5q5ck7NE8qBAAgMEahisv7ddW9+PjM+N5G+neKFJy8Y4QHQ/NpMeTcUtwzj8TIiftdONC0tud3YCVFIE+KCjp83fqtuaHbvW175LZvJjkReK9yprqjj5+zT0qODn7JbsXT+5A5Cfnb15NTcpDpKpMz2BouevZaqiSMnF5cb68tRyObhc4CADcxsw5VyCfZXZ3a4ih5/4b08syLl5Adksq+lxTx/kHQWMTmWtRYlJydgXXbQGejlX/zzs3pBk3ayw7B/UV0WXPsRN65LYxeuquXIkbANAiBwGQJVTJaP7ny6iRvVOqCfyxZNyyuf2PzBxvLcl9ctWZiXJlGYy8SYcTO1GayvDGDd8HllApXfsiG1A8hZrzxbuFTsWXcrziUF8BAiVpNiWH7uMilzsgGLLPq80o9lyIGFXmGz7sQNh8ZSL/xRsrBbE6CJqMv03jq5BM9i9iY5DFfGjNj9yZE83Wn+cw/hSmEziufK6bGkEti+BAHHZXm+hS901TeI0TBu1e4V7HTdR17fnS/nElyhJAiAgCZQx2Txcqd4b378jQnd5e+rfvcqxDjv/pu/06g62LamadMJMQlV4uplkFcusU7GTXdFrLTEzsUI1H7LyvMJLcx6PenCNTjC5k7h07iVuDwn28W29UtmYzWLl4NOypxu8KGbteJ3huE6IA3jGZCV7D/5+JWpwuRYWQA2BgjQqjJQmYrXySXGx0AtCDQSaHHZRlFoBgIgAAIjBPyYbKQDqkDgBATgtyeYhGep0BKYIZd4lk+c3NoWlz25CVAPBEDgEgQQk11imqCkIgC/VUCwuzWBlsAMucTWswD5Mwi0uOwMcWgKAiAAAgMEEJMNgEHxqQnAb089PXdUriUwQy5xx5m/rE0tLntZ46A4CIDAiQggJjvRZECVZgLw22ZUaLgOgZbADLnEOqwhZRUCLS67ykAQAgIg8HACiMke7gAXNR9+e9GJu67aLYEZconrzu8NNW9x2RuaDZNAAAR2J4CYbHfkGHAFAvDbFSBCxBwCLYHZT7kEDYD/IAACIAACIAACIAACIAACtyQwnn28/ln0d0tSMAoEQAAEQAAEQAAEQAAEQEASGM8VfrouMZ6moBYE5hIgx53bC+1BAARAYC4B3Csylxjan4EA/PYMs/AoHVoCM+QSj3KJsxvb4rJntwH6gQAIXIEAYrIrzBJ01ATgt5oI9jcm0BKYIZfYeBIgfg6BFpedIw9tQQAEQMAngJjM54LScxOA3557fm6oXUtghlzihhN/XZNaXPa61kFzEACB8xBATHaeuYAm7QTgt+2s0HIVAi2BGXKJVVBDyDoEWlx2nZEgBQRA4NkEEJM9e/6vaj389qozd1m9WwIz5BKXnd47Kt7isne0GzaBAAjsTQAx2d7EMd4aBOC3a1CEjBkEWgIz5BIzgKLp1gRaXHZrHSAfBEDgCQQQkz1hlu9nI/z2fnN6cotaAjPkEiefxGep1+Ky6xDp36/Xq/t815E2LuWuY41bjVoQODcBxGTnnh9o5xOA3/pcULoZgZbAbL1cIgZMNCT/77r3p98sWvt+ujzQu5cUuYZLed+Ejlzx4pZSCrb3J+C4LM2RM0E6QqeGZo4HjNC9B5qp4m//7tjruu7d6NzLxlJDN+5OjrXMhMbR0QwErkNAx2T5dJDPK5uewK4DCpqeioD221MpB2XuSMAJzIyZq+USZh3m9fjVOXGg0WNBQYyaeJQqhGRdeGDerxqFEbkCucQC/lt0cVyW5oinUgyqo2ZqaOZY9JCburesG9ju35RGdO/wl7ZbrmwsGGtAheni8bEWmzA9MFqAwMUI6JgsrSB0fL/ztwatS8rFrIe6VyWg/faqdkDvyxBwAjOj+/q5BEd9375cN+AyM/wvBTFqer06+qJYLvicIvCwvC/bxJG5ArnELxOxYl/HZWmOeCrFWONRs2jobs7vbXt8P51xKW8w29NrtU7Z6Fi2stWEdZSDFBA4EQEdk9mlJp0gnNXnRGZAlYcR0H77MPNh7v4EnMDMKLFdLiG/9m+KuIxuEwUxMAr3vH/Cre8vkQ9wisCnAN43anCF6DsxKKo3JeC4LM0RT6UY3QbGonJyc3bvQT0mh/qbPda0yMEWY2P9YMLgeKgAgasS0DGZd3zE4wnnh6tO8S311n57SyNh1JkIOIGZUW/XXILW6rAwfz90j0j3yQ86yPu4Xy33otMqH56fLXLJvrSfzwC8j1zCzP/JChyXpclrySVsGM1uRmLTfxLFjYXbde+xG5a0k3nk5HjChVvH+vbpsIiaCgFirKk2PJbokjd/MCHIaBr63f/lG6nKwf0nMIdLia1PmmTVsQECqxPQMZm31JiygWN8deUgEAQGCGi/HWiGYhBYi4ATmBnRm+YSMa4JWqQgPsUy6a6kqF6KEXNL0pn+TzxokfpE2bTNuUIaB7mEme6zF9DEV1qakznXxjnnKQ+FqiD5xPvT9xyjh0cp0/PSVBvH68IN0umRaimPB+JP7jIQCZfq/DhFksY14UgYHIudNrYo+lRJVEObONagFazJbBPyo0Uj6rHwbCXnEqR2fBODmIuxxI2R4xMEtiOgYzJvqSGn5qOQXVw8MjV4rG2nNyQ/m4D222fTgPU7EHACMzPqdrlE+CaSNDAxvcguokJ5hU5vffqWgpG3QKVGtJanHVrzOeTiMwDvm2WfK7KGhg8KdiXguCzNUQph41PP6V+M/uWURh/IBXGPPYBvuMu1lHjkLDcYmQYaC3GFT7/UK16c3t++p6tuladGnqY1FdR+SN2Kyi1tdEJlZm+ZCe1DV0iFrWImGHVVZBRFAQhsTEDHZOTl0i3TkZuKqL4ckPFaXTrGN1YV4kEgE9B+myuwAQLbEHACMzPQ+rlEyh/KR1mbU0QiH20ICqUFWwZS3LJat5XydYSWesTBuDePzPtGGlfIodUo2N2TgOOyeY6KR4ktOaXRIbggduOdaEKsZpfwYm4aKbcYslve6pMvnY32rRQjsaq92k1DUykb0dLGXJzxjZhrwi9Dx77hOoj8i98zsGG+jigFgY0J6JgsHW/5PU60zrQd4xurCvEgkAlov80V2ACBbQg4gZkZaMtcwvy8BK3V+ptLLhURYt6M4UZKGurCnILkiISahV2WyGEh7+emjIErkEswkYM/HZelOeKpFPqZCL0uiHuiW137Qy5BKuTXlNEQSrpQk5Pl2vmUVQPdYzE7Z0ubxlxirgm/DE025INXbNREamTYA4HNCeiYLJ8OkpOqE9jAUbC5mhgABCoC2m+rSuyAwPoEnMDMDLJ+LiHCNz0ar9V1EMGlIsrIm7GljkZS91RchJGg8iw2B2E5t8gFrBhLLjK4Bp+HEHBclmbV8SpzalcFNLnxEYn8vES5gUk1DtYOjjSEgkaIqjniSi+nUo3ltAjdxQCDWULVZrBVUabeEr0HdMh62INEdB5ulcTW1yXiNYpaE+yBwM4EdEymDkqtzcgBoptiHwS2I6D9druRIBkEIgEnMDNkTpBLePc4GT2dAopk+Lnu0IDOBa/3J/2yRQ5AU1PZVrTX91w5Y6FoHwKOyw6e4M2pvSqI3Tr+STn77qCqMRk3ONKQ7eRWJZcwuWrqOD2WPzSVcgzf0ubnXMI34Zeh/b5DSFEOArsR0DHZhKuKw303FTEQCBgC2m9NAxSAwLoEnMDMDHCGXIKW8PhAdnrJzt/fN75EksMoo3YooKW9zg+ojF8UlXMJbvsKP8KdHucWD6GWdu5AKNyNgOOygyd4E6FXBWEn3+ns6F81pvrBkUJ1+FG37DuxfXpDQHKeKK92xm+f3iXQMJbbPf5uSjkGWtqQp5c+0vIfTPhlaMKqVQpXJqRy2AaBvQnomGx0AchnnMqT8zG+t+4Y77kEtN8+lwQs34mAE5iZkc+QS+QLCqSw+D8a5FN8U4dvfGmCZMju5a1SQn7YrE4Nhg8KdiVAc1MNOXiCj/MvZ68qoG5irruuuv25akwDDo4UqrO89GRmekdZGV81oHrywKaxYiN+a2y+nlLkByUa2jhjMU6lIb9mrQyhGkgTfho6qd29P+H9vP2HfkWjjMsK4hME9iSgYzLyf3nWUNqMHSCqKXZBYCsC2m+3GgdyQSARcAIzw2a9XILjnIal2Isi4qtl+CWy8ZaU9KWuUZkLOEIp98DHmj7d4GSzBDUE/WQWvhxlnmf4dFx28ARvoua6IPajpyViAMvhefLPunG0fXCkRKb2n3iZovaeeC2N0xdxGaN1rPAzWPkQqDKfMjdTbZyxSmf6uTk5RK+uDgyZEGT8MnQlV79PVyiITRDYjYCOyaYWgKBY5cjiGN9NaQz0eALabx8PBAC2JuAEZmbI1XIJIxkFIDCbQIvLNgl1Q+qWWKFJOhqBAAhcngBisstP4SMNgN8+ctqPNLolMEMuceQMYWxFoMVlVRd3188a3ATD7Y9CEACBuxNATHb3Gb6nffDbe87ria1qCcyQS5x4Ap+nWovLNlGhZCLcxhZv0e/DW2HjvT0jt+A1CUYjEACBexBATHaPeXyaFfDbp8344fa2BGbIJQ6fJihQCLS4bGk9vlXd2UwPNfM7vMY7ohYEQOABBBCTPWCSb2gi/PaGk3puk1oCM+QS557Dh2nX4rIPQwJzQQAENiGAmGwTrBC6MQH47caAIV4TaAnMkEtoatg/kECLyx6oHoYGARC4DQHEZLeZykcZAr991HSfwdiWwOz1z6I/Eo3/IAACIAACIAACIAACIAACNyYwnivgusQZsj7okAjQcQgcIAACILA1AXy/uzVhyN+CAPx2C6qQOUKgJTBDLjECEFV7E2hx2b11wnggAAJ3JICY7I6zen+b4Lf3n+OTWdgSmCGXONmkPVudFpd9NiFYDwIgsA4BxGTrcISUfQnAb/fljdH+WgIz5BJwlBMRaHHZE6kLVUAABC5LADHZZafu0YrDbx89/UcY3xKYIZc4YmYw5gCBFpcd6IpiEAABEJhBADHZDFhoehoC8NvTTMVTFGkJzJBLPMUbLmFni8tewhAoCQIgcHICiMlOPkFQzyUAv3WxoHA7Ai2BGXKJ7fhD8mwCLS47Wyg6gAAIgIAhgJjMIEHBBQjAby8wSfdSsSUwQy5xrzm/uDUtLnuEid/+3ZFur/fne4QGGBMEQGBdAojJ1uUJafsQgN/uwxmjZAItgRlyiYwLG8cTGHbZbwjnOZ5/vbru/em/m0T1308YphMpA5W8uk/ffz4xl7BtjmcHDUAABOYQ0DFZOs7TlwZhEYirzByRaAsCmxPQfrv5gBjg6QSGA7NCBrlEYYGtwwkMuGw+yXfdO/6lrOLd/6px/1Z5w9+fyROooBrLtPlFD0eHX8ShLwiAQAsBHZOlozqtMfmrC/m1QotYtAGBTQlov910MAgHgT+8ExZOcDUCbi4RY+3X693XlyG+/UeVLLC2JY6PIcaGAUWLDgtMQxcQAIExAjoms18aUMmr+h5hTCLqQGB7Atpvtx8RIzycgBuYKSa4LqGAYPdIAo7LUiaxVSjfEscjlzjSJTA2CGxEQMdkNpf4+6PlB8nERlMAsQsIaL9dIAJdQGAOAScwM92RSxgkKDiOgHXZ5nN59TxF19VXMaKUd//Hj1B3n7BNo4n/FDLECkpebJsUVYg2TOv7yc9nhxut8zUT/aSHfHjbyhffgY5axKPiEwRAYBkBHZN5uYQpGzrMl6mAXiAwm4D229kC0AEE5hGwgZntj1zCMkHJYQSMy9KpfPKqRGoWHpXs+z4F9aJXidnjExddyCX+vqFpfM6auvUp/Jd5QmwTcoQkmp/3lm0CLR6A7rWOz4jT8BOaDenAT20MWnTYFGFgELgJAR2TmbwhH9h8XWLwML8JEZhxBQLab6+gM3S8NAETmDnWIJdwoKDoKALGZenkzafyAbWcGEAVpRhAZBdJVKxQxbosyhptQ6NVTUKSEMf4cvoxOKIe74+f/67MVhYNoEAxCIBAIwEdk9lDLK0b6UAcO8wbh0QzEPiZgPbbnwVCAAiMEzCBmdMcuYQDBUVHETAuSyfzKqg2usVTfLipSP7Fu5lydO+E6yTGq9BlJF+8I5a/rmTxNgYxOpYC21iPl1KJcYuKQGyBAAgsIaBjMjo0+V1xfMdix6uPPXKXDIo+IPAjAe23P4pDdxCYImACM6cDcgkHCoqOImBcNp3e60BeaRdjceqp/nOwT7cg5T3R38bx6X4l0TjqIPZD96pftSOE583vN/wwRfqLN0BxfGJkxT4NFmXZ2AABEFhEQMdktNiUNUT9vMTkYb5ICXQCgZkEtN/O7I7mIDCXgAnMHAHIJRwoKDqKgHVZCqtl6G10S+f4+rpEvEaRmw6GAV6FLvstl+DHvUuIErakQXq8nKmMWZRNwwYIgMAiAjomo1xCHpqVWHucVtXYAYF9CGi/3WdUjPJgAjYwszCQS1gmKDmMgOOy8Qxe/Qy11m4iBAjNB8MAr0KXteUSVXqQVSTdxFud0kPVMmDR47mPS2SJ2AABEFiFgI7JJhaSeJz6h/kq6kAICDQR0H7b1AmNQGA5AScwM8KQSxgkKDiOgOeydIZ/dfqX6cJ9Q+nxZnobk7oRKlyZYEtsuJ5qvPBBN45txu5xSm9xqpqkX9LTskJaE25ykrmEowMVVQLDE9nCIrYMnyAAAssI6JjMORArwZRMVEflKj+YWQ2CHRCYIKD9dqI5qkHgVwJeYKZlIpfQRLB/IAHfZekcH+r4ucguPnRQrlbQWT68uJVeCktvhS1nfRvSs5G55/sdfhQiFOvGcfgiK/ZUbbKG4p2wlC+QfHq166f8AoXMJVIq8gp9WYdSNmAR649PEACBZQR0TDaVS6RrimEdis8+0SJUHcrLFEEvEJhBQPvtjK5oCgJLCPiBWS0JuUTNA3uHEhh22eqH22JS8alftlo3CMF7viph0wNpZHmgIeULKk+gCGI8lwgXDfp3ynAo58nDVz9u9e6/UbwKQIwOQcFKYvyBC2GRtADbIAAC8wnomGwyl9AHpfxJyvnDowcILCKg/XaREHQCgXYCw4FZkYFcorDA1uEEWlz2cCWhAAiAwA0IICa7wSQ+0AT47QMn/ViTWwIz5BLHzhFGrwi0uGzVATsgAAIgsIgAYrJF2NDpYALw24Mn4HnDtwRmyCWe5xcntrjFZU+sPlQDARC4DAHEZJeZKigqCMBvBQxs7kGgJTBDLrHHTGCMRgItLtsoCs1AAARAYIQAYrIROKg6LQH47Wmn5q6KtQRmyCXuOvuXtKvFZS9pGJQGARA4GQHEZCebEKjTRAB+24QJjdYj0BKYIZdYjzck/UygxWV/HgQCQNXovO8AACAASURBVAAEQOAPMRmc4IoE4LdXnLVL69wSmL3+WfRHovEfBEAABEAABEAABEAABEDgxgTGcwVcl7h0ung35ek4vJtVsAcEQOB8BPD97vnmBBpNE4DfTjNCi1UJtARmyCVWRQ5hvxFocdnfRkBvEAABEAgEEJPBD65IAH57xVm7tM4tgRlyiUtP8d2Ub3HZu9kMe0AABI4ggJjsCOoY81cC8NtfCaL/TAItgRlyiZlQ0XxLAi0uu+X4kA0CIPAUAojJnjLT97ITfnuv+byANS2BGXKJC0zkc1Rscdnn0IClIAAC2xFATLYdW0jejgD8dju2kOwSaAnMkEu46FB4DIEWlz1GM4wKAiBwLwKIye41n0+xBn77lJk+jZ0tgRlyidNMFxSJT0NioYQjgAAI7EAAS80OkDHE6gTgt6sjhcBxAg/IJb79O1rZfb7jLFB7CQItLnsJQ6AkCIDAyQkgJjv5BEE9lwD81sWCwu0ItARmG1yX+H46Gvn16j79duYFyTzWxrlEGWZje7aldX7pwy77/fbvLjvWq+ven/5rEshv/5GtXh21K4bzTLKHJkGlQdnipm/MeYGCLRC4DQEdk/ER37A43IYBDLkeAe2317MAGl+MwHBgVgxZP5eoF+SNAzEebONcIl39CMmRCV8LS2z9TGDAZXmaQ+Qf/1JWUXlX/+ZUIzV657SitCNJLCY3cOY1z/mr9P7ZPggAARA4CwEdk7UvDmexAHo8kYD22ycygM27EhgIzCodVs8l+KYj/g5520CMg0wnFqzM/HFnp2F+1PIG3V2XTS717us87tt/Sgm7nShKOL5VO5pJ6ZRpbmVR6BkFdu+Yn+i6G4CGCSDweAI6JmteHB5PDgCOJKD99khdMPYjCLiBmbJ87Vwix3T8JMO23+oiyFfzefFdx2XJo8aTxYF8wIFhw4WUNig/jaO++3QTHZIJByWKQODaBHRM1ro4XNtqaH91Atpvr24P9D89AScwMzqvnEuUVCI/yqCCtPCQg7ypvevE981VzSvc0VK+eSbVw13zZFes7dOzGXWoWd1ar4QkDUOYKG7ATwOJoq4TX3F7KUulqxwkViQdPRPMHKAgE7AuS/M1Hsy3tElDeOGCUxYlxkGdyqwtNkAABK5LQMdk3rFuyr6ffAbC6n7dub+y5tpvr2wLdL8EARuYWbXXzSVSoE6RPa3Cr1edTORSjrZf/BRC6izK46ZIE7y+1Fw0csV0ORjlar4HqwzXmaIslQc2BaX3iBW5l8WPkpoA8RRlRH6cILXJMyx6202vLbmE7B9LUkGLBnYclIAACJycgI7JpheHfPagp7bCcjW+Np2cANS7IgHtt1e0ATpfioAJzBztV80l0krLqystzXUywYvxi684xEsB8YnmcJkgXB9Id8Xnm6RYHN3CHoxKfbN8saCzfL6qYKRwg9erXIsgUOG8QJKzYB6aC3g/C9FW6Ibf8C0W93Lwo6gmYFyWSMs4v+4Q9kwbngWeVzEBVCXlpbk0RaUgthAyrAYoAQEQuBwBHZNNLQ5UX60E377Ha94uN/EXV1j77cXNgfrnJ2ACM0flNXOJFJWVtTbHdDkuS03qSxWOWrFINebdIt++E5bb5AFNE6cFFwnBXJTksCGphaqV+nNVykpkFbanCRiXJZ5iOh0Ztk3/odc98ZucSv8UDvCbntL9cuWyVX7PcOnCz2HjFV4OexSBwGUJ6JhsYnGgarkwXNZyKH5lAtpvr2wLdL8EAROYOVqvmEukMFpE5OaZCRWTa33oNwT4eQj+VjklHty3ykO4MA3Ku7mr2BjOA3L8X6JFLkonDpZLMuo9ZQRX0sjxVxBUC+wOEyBqop5wSp8SlWnT5hKlja6rpyc+kiOeiwn9qMX704u/eIf0uBJlSGyBAAhcgYCOySYWh7iWYBW4wszeW0ftt/e2FtadgIAJzByd1sslOPwW4bvYpKCcF2tvQeY60Slt1n1PnkuEaFQ8wh1M8Kx1pgJFf38045KETgZkHW+PtNFVKVMYvi9h2A0xj8wbnyBwBwI6JptYHOJagsX8DjN/bRu0317bGmh/AQI2MLNKr5ZLUNCWon/nIyYEOVBL3/cLfUpVvjrAIlNj3pWrOffiMm5j5fNQTgsuYiH5Fvz82Hg9DO9VWQ3LF5/5WY2phqLPwzcdl6XZEXPjIBpuQzXFHWjuyr4WFuudwbQc3Q/7IAACFyOgY7KJxQFrwMXm967qar+9q52w6zQEnMDM6LZWLkHrbA6+yzg58I4BWt7j56fpzayfb74dqvvQd8Zfft1rlmn6loL8lXEu4mev82UCjg8dRbmIm0zlElnX/BS4tELc1sTaCMEFDLYcAp7LJopiRqnjt/8kXykTZhrp8z8JG8wlhqu1IEd5FIEACFyIgI7Jho9+MorWgGo1r34I80KmQ9ULE9B+e2FToPo1CHiBmdZ8pVyCw3EnSOOqFO+X34cg9cL/uDqnkLGU5q0sNIvKVa/0Iteyvg+JYSEsg/dLHJoTElGUWrHQPMyQFdywKMjmafDY9wgQN11TqHbpoen0+t48H/k5hyggtcrv+BXNSJSY/Goscg6/dqyuEoIdEACBKxDQMdn44iDXGFqG6Mk+f7m4gv3Q8ZoEtN9e0wpofSECfmBWG7BOLuEE6GUYrsx3+lSPE1S/8iZ/Buj94XuE5GItfimILgCQdBEtqt/C04/XsjZCKBcJIVyUWnEwK1pUP3UnfrSoMk6UFx7YGiYw7LI11wD2k18fnOXR7weWh/fDS4brR6tHwwWadeEZWXDYGK+tmmIHBEDg9AR0TDa6OCRrqnVInrxOby0UvAsB7bd3sQt2nJbAcGBWVF4nlyjysAUCPxBocdkfxKMrCIAACCQCiMngClckAL+94qxdWueWwAy5xKWn+G7Kt7js3WyGPSAAAkcQQEx2BHWM+SsB+O2vBNF/JoGWwAy5xEyoaL4lgRaX3XJ8yAYBEHgKAcRkT5npe9kJv73XfF7AmpbADLnEBSbyOSq2uOxzaMBSEACB7QggJtuOLSRvRwB+ux1bSHYJtARmyCVcdCg8hkCLyx6jGUYFARC4FwHEZPeaz6dYA799ykyfxs6WwAy5xGmmC4p4v3sNKiAAAiCwBQHEZFtQhcytCcBvtyYM+YpAUy7xz6I/Eo3/IAACIAACIAACIAACIAACNyYwnivguoRKwLB7JAE6Do/UAGODAAg8gwC+333GPN/NSvjt3Wb09Pa0BGbIJU4/jU9SsMVln8QDtoIACGxFADHZVmQhd0sC8Nst6UK2Q6AlMEMu4YBD0VEEWlz2KN0wLgiAwJ0IICa702w+xxb47XPm+iSWtgRmyCVOMllQIxBocVmQAgEQAIHfCSAm+50hJOxPAH67P/OHj9gSmCGXeLiTnMv8Fpc9l8bQBgRA4JoEEJNdc96erjX89ukesLv9LYEZcondpwUDDhNocdnh3qgBARAAgVYCiMlaSaHdmQjAb880G4/QpSUwQy7xCFe4ipEtLnsVW6AnCIDAmQkgJjvz7EC3IQLw2yEyKN+IQEtghlxiI/gQu4RAi8s6cvv36/XqPl+n6pZFT7P3lpMIo44mgJjs6BnA+EsIwG+XUEOfHwi0BGbIJX4AjK5rExh22e+3f3cd1YfEoXt/+i8nD4fE1t9PUOfdr82gQd4h9jbohSYgcCECOiajIzqvMbzKXMgiqPoEAtpvn2AzbDyUwHBgVtRCLlFYYOtwAgMum0/yXfeOfymr4ED+kNgaucTh7gIFQOAHAjomoyOa15j81cWDLnj+ABNddyOg/Xa3gTHQUwkMBGYVDuQSFQ7sHEvAddmYKYQrAHwZgnT89h8uQS5x7LRhdBC4IAEdk9lvB9KXGPydxQVthMr3I6D99n4WwqKTEXADM6UjcgkFBLtHEnBcljKJ8e8GkUscOWkYGwQuSUDHZDaX+Puj5QfJxCUn+KZKa7+9qZkw6zwEnMDMKIdcwiBBwXEErMs2nct1LqEfrnjrx7K//eedH77ouo946GGkqubiRR6iRfV8R9eVqyq+RcYE+XiI7B6G0I3FsNgEARBoI6BjMu+INmXfauUoh3XbkGgFAj8T0H77s0AIAIFxAjYws+2RS1gmKDmMgHFZOpWPX5XQsXXqE57O7ntOGqQIiuZLfVcqR6o0FBNliAajKngd6+xgtDtyCQEamyCwmICOyQYPzPyGBVoeXi96bCt+G1HWjsV6oCMIzCGg/XZOX7QFgQUETGDmyEAu4UBB0VEEjMvSyXvqFoM6Ev/7ljc8RUN0dXgBkx8CxGjCrzJIvMiDGjk1VVG1YzW01X+qSBlkVEMBCIDAJAEdk6mjjJP2/LI2qq+Wh2/fi2uakyOiAQj8TkD77e8SIQEERgmYwMxpjVzCgYKiowgYl12US2jtVYzAIQE/uS2aj1SJVrSppJb6WBFuapJ/fbinisMQ3bXKDaa74x6nAhtbILCUgI7J6LAs73Gi1ajjbzL0Ubt0WPQDgZ8IaL/9SRg6g8A0AROYOV2QSzhQUHQUAeOy6fSun3dQ+lWxONV9v/3nQy+QfdOjERwS/P395Xue6WcqpLSRKtksChn4fQnKf8iU+j/nEuo6Q61+Q/e6g9ILuyAAAi0EdExGi005ZNXqgKOuBSrabE5A++3mA2KApxMwgZkDBLmEAwVFRxGwLkuRtcgDPNXUWT5eAyghQdrSMsRD1jnGT8JHqsrwg19TJm3q6xLxGoXuTOPG9kW7hu7K3iIWWyAAAq0EdEw2eESTQBx1rWDRblMC2m83HQzCQeDvzwZmlgpyCcsEJYcRcFw2nsHz3UG+ZtVZPl3KEG9YGYsRviS/hPJlhJGq0GhQ6mBFEc23YodkIiogxm/oXtlbScUOCIBAIwEdk00cecMrReN4aAYCaxDQfruGTMgAgRECTmBmWiOXMEhQcBwBz2XpDP/q8i/TJfXCTUzpuccqtq52Ylu6TiHC9crA2N6vHKkaySVSlmEudny/1Y/tJT0/71d+uJP0IoPHulsTK4uwAwIgME1Ax2QTuUT6rYnqwBQ/mDk9HlqAwBoEtN+uIRMyQGCEgBeY6ebIJTQR7B9IwHfZlE28Xi9+LrKjH4fg03odW8e9F73y9VPeBs/pQpAW74QWb4xNdSNVFgppxRrxoxn0QDepEHSg99KSFqxukpUa6VSCr1mEN08OdK/ttaqhBARAYJKAjsnoiOZ1wulODcI6FA93WoRG2jsiUAQCvxLQfvurPPQHgQkCfmBWd0IuUfPA3qEEhl22+um3mFR8yptfdWydH6COp/2eblbK5/xaVMg58vWCkSrDJQcWpHT63zIKi+KMw3uyfFQTbS8LxCcIgEAzAR2TTeYS4c7Gsd+QbB4ZDUFgOQHtt8sloScINBEYDsxKd+QShQW2DifQ4rKHKwkFQAAEbkAAMdkNJvGBJsBvHzjpx5rcEpghlzh2jjB6RaDFZasO2AEBEACBRQQQky3Chk4HE4DfHjwBzxu+JTBDLvE8vzixxS0ue2L1oRoIgMBlCCAmu8xUQVFBAH4rYGBzDwItgRlyiT1mAmM0Emhx2UZRaAYCIAACIwQQk43AQdVpCcBvTzs1d1WsJTBDLnHX2b+kXS0ue0nDoDQIgMDJCCAmO9mEQJ0mAvDbJkxotB6BlsAMucR6vCHpZwItLvvzIBAAAiAAAuHHXEEBBC5HAH57uSm7usItgdnrn0V/JBr/QQAEQAAEQAAEQAAEQAAEbkxgPFdY+MUM8bp6sgX9z0YAfnW2GYE+IHBXAvh+964ze2+74Lf3nt8TWtcSmCGXOOHEPVelFpd9Lh1YDgIgsB4BxGTrsYSk/QjAb/djjZEigZbADLkEnOVEBFpc9kTqQhUQAIHLEkBMdtmpe7Ti8NtHT/8RxrcEZsgljpgZjDlAoMVlB7qiGARAAARmEEBMNgMWmp6GAPz2NFPxFEVaAjPkEk/xhkvY2eKylzAESoIACJycAGKyk08Q1HMJwG9dLCjcjkBLYIZcYjv+kDybQIvLzhaKDiAAAiBgCCAmM0hQcAEC8NsLTNK9VGwJzJBL3GvOL25Ni8te3ESoDwIgcAoCiMlOMQ1QYiYB+O1MYGj+K4GWwAy5xK+U0X9FAi0uu+JwEAUCIPBYAojJHjv1lzYcfnvp6bui8i2BGXKJK87sbXV2XPb76aiU/3fd+9N/b4sAhoEACOxCQMdkWGp2wY5BfiSg/fZHcegOAlMEnMDMdEEuYZCg4DgCjsvSCb7r3vTXpcyi+yCdOG6eMDIIXJ+Ajsmw1Fx/Tp9ggfbbJ9gMGw8l4ARmRh/kEgYJCo4j4LgsneDffVEqfX0oi0oltkAABECghYCOybDUtFBDm6MJaL89Wh+Mf3sCTmBmbEYuYZCg4DgCjsvaE/zfX/8ODZFMHDdRGBkELk9Ax2RYai4/pY8wQPvtI4yGkUcScAIzow5yCYMEBccRcFzWO8FXZTGxePd//Ztuf+o+5RrGt/+k0iC56972QYuvbEHjc5oyKPn77d98s1WQ+1Y3XHHH0CyJ5KHLcKbXcdgxMgg8kICOyaplJfEwZeUAHlhQHggSJu9KQPvtroNjsCcScAIzgwG5hEGCguMIOC5rTuZ/6roEXaQIPeNDFV3OJahnKn5z8N/JyxnUNzzM3XPWEXfoWYwBySQ3PgIuusl0IokNeUR8zoOf8aDMQhThqY/jfA0jP52Ajskml5p0QTQd1elolgf+04nC/j0IaL/dY0yM8WgCTmBmeCCXMEhQcBwBx2XtCT6F+JwTpF0dlqdMgltFm1KMn8/+cV+0iH2KoAHJf9/+Wz34HduVbpzrvEpRUuZlikqT46BjZBB4JAEdk00tNVRfHbLfvi9XQR8JEUbvTkD77e4KYMCnEXACM4MAuYRBgoLjCDgum07g+T1O1ERcXTCRfFTfxgWhuI4G4l4VGtTJhS/Z0jFj2Y6mCesiMhkrGCUgAAKbEdAxWVodhpYa5xjeTDUIBoFBAtpvBxuiAgTWIeAEZkYwcgmDBAXHEXBcls7gVBH+m5+XsIF70N8vVU9tx0Yimled1G6F5fvtP5/0nlq62WFYTtZHNEEuUeHEDgjsTkDHZBNLzdhysLvuGPC5BLTfPpcELN+JgBOYmZGRSxgkKDiOgOOyk98G+qd4v1TlEmm3fl4i3wE1lI/kp7xLghO2RKLgDB6LRBPkEsd5GUYGgUBAx2QTS41zVIMjCOxPQPvt/hpgxIcRcAIzQwC5hEGCguMIOC47cYIfugLhd6NSvq0p7nXv8q4lftlSAuAHD0mGeCWUGcvpiFziOK/CyCDgEdAxmTmO607xEJZfGdTV2AOBfQhov91nVIzyYAJOYGZoIJcwSFBwHAHHZSdO8EO5BF9yKFcZ/v6+FA1wKhGbiAcvjNlOSuDePUVvfhUXHZyOsUg0wXUJgxsFILArAR2TTS01avkIun77j33N9K5GYLDHEdB++zgAMHhvAk5gZlRALmGQoOA4Ao7LTp3gB+9EStlEeScsCc+ZBEfzVBz/d131NIaTEgQ0KaSgF8mWX6cQiYLTMRaJJjx6VXQceIwMAo8joGOyyaWGGvCbntP1TBzBj3Ocgw3WfnuwOhj+/gScwMwYjVzCIEHBcQQcl508wTuBezYg/LAU/1qcfWqbXutET0v08aci6vBgUHL1e1Xvnq53iJjC6YhcIk8KNkDgFAR0TDa51MQLEfWKgqsSp5jKRymh/fZRxsPYIwg4gZlRA7mEQYKC4wi0uOxq2jkRP64WrEYXgkDg5AQQk518gqCeSwB+62JB4XYEWgIz5BLb8Yfk2QRaXHa20IEO/reQboIxIAHFIAAC1yWAmOy6c/dkzeG3T579Q2xvCcyQSxwyNRjUJ9Disn7PBaXp7uf4iES4xannG6LE3UoLxKILCIDAFQggJrvCLEFHTQB+q4lgf2MCLYEZcomNJwHi5xBocdk58qbafntx9zP9EB5ugJ6ChnoQuAUBxGS3mMbHGQG/fdyUH21wS2CGXOLoWcL4gkCLy4rm2AQBEACBhQQQky0Eh26HEoDfHor/iYO3BGbIJZ7oGae1ucVlT6s8FAMBELgQAcRkF5osqJoJwG8zCmzsQ6AlMHv9s+iPROM/CIAACIAACIAACIAACIDAjQmM5wq4LrFPXodRmgjQcdjUFI1AAARA4AcC+H73B3joehgB+O1h6J86cEtghlziqd5xSrtbXPaUikMpEACBixFATHaxCYO6kQD8Fo6wM4GWwAy5xM6TguHGCLS47Fh/1IEACIBAGwHEZG2c0OpcBOC355qPB2jTEpghl3iAI1zHxBaXvY410BQEQOC8BBCTnXduoNkwAfjtMBvUbEKgJTBDLrEJeghdRqDFZZdJRi8QAAEQkAQQk0ka2L4KAfjtVWbqNnq2BGbIJW4z3XcwpMVl72AnbAABEDiaAGKyo2cA4y8hAL9dQg19fiDQEpghl/gBMLquTaDFZdceE/JAAASeSAAx2RNn/fo2w2+vP4cXs6AlMEMucbFJvbe6LS57agL9+/V6dZ/vqZWEciAAAn9/iMngBVckAL+94qxdWueWwAy5xKWn+G7K+y777d9dR1Wvrnv3+0Xq308Yd0ZuUOcSs7vPnM+t5c9UB81B4EoEdExGh1NaaMJH170/O642V2IHXY8joP32OE0w8kMI+IFZbTxyiZoH9g4l4Lhs/6Y0onuHv7S91xf/s4P1DXOJWnScptnqHTq5GBwETkVAx2TpcKKV5p2/v5jxVcKpzIMyNyWg/famZsKs8xBwAjOjHHIJgwQFxxGwLmsj6O+nO+/Z3aq7GswNRa+mIwSBwHUI6JiMcol3XyygkpcsKpXYAoFDCGi/PUQJDPokAjYws9Yjl7BMUHIYAeOy9vR+mG5NA28Y8G8ousk0NAKBexHQMZm32MSjDsnEvSb+4tZov724OVD//ARMYOaojFzCgYKiowgYl536YjCc6sNViuqRCueJClnvPnPx/aT7p+g2ab5LWgfw30rQq3uru61U+2o32UI20n9xgWVMchQj+71SdFPJp0n79sISx9TY5d1HYkmkseKo6ce4ILAjAR2TebmEKRtYKHZUG0M9nID224fjgPnbE6BIYXwc5BLjfFC7KwHHZTmO9p+5DrVdF5/M7uJ9zukZ7equBIoH4oOUfc+htgjj/8oY+ZmMVB1rctNJQSQpt1e7/Sc+80H/oqK55YTkb9A79AgPg8Y/ev68Vu/vj8TEh0ajJenxEkmDbC3E0lPtWZNd5xuDgcBxBHRMRkePPFj+0tLAZcMLxXFWYOSnEdB++zT7Ye/uBJzAzOiAXMIgQcFxBFyXDZcCqIJiafkap3Ryl5FwCpbzBQMnQqiLaE+K+Auxe6QQhZWqb/+Vo6tc4S+FHqW96l7AkpIcovz9/U1KtmOZ4ciQ+oYMTSMFR/LdVI79RVFsgcBdCeiYrF4WgtV09PAR5RwoeaG4KyPYdT4C2m/PpyE0uhkBNzBTNiKXUECweySBYZeVt+50JQb3gvX6lB/3wkUN+RezkxTy2whCEPDki2rTV7VXu9xzoJirw6eRPJ1L2C5F0Gh643eU2mAbBO5HQMdkdBzQ9c38zrhXXm1wmNzPBS5pkfbbSxoBpa9EYDgwK1YglygssHU4gSmX/dKdPvy4gLkOQAZUoXrcIbnqf4qvq9aagFP5/faffLNSvGBSUhsd8DvdB3QOA49K1qKjppX8aqcYEov5q1V3dARJhRa2nkNAx2R0HJRVQv28xMDx9RxesPQcBLTfnkMraHFjAlOBWTAducSNHeB6prW4bBUbu+f3qjDt1Ncl4jWKhKdqrZGpSnG3VQk5SpxuInXVPUh3iqg438flS3Y7VsKqnWJILC46Oq2QSxRa2HoOAR2TTRwHzpHzHFaw9DwEtN+eRzNoclMCLYEZcombTv41zWpx2So29s7vdUhQ7zlYKnm6vpJPouRD4EZ41d5JHFQ9D9cgeTqXMMpE6Ul0fnzE0cDvyLrhEwTuSUDHZBPHQTxySlJ+Tyaw6vwEtN+eX2NoeHECLYEZcomLT/K91NcuG36Xrn7D67c+o9OefJKYYm5RooNpIhauTCR2JKM8URCfhP7QW2FjHVdVO7EzXadovcfJ1yQIapDsPEGh+7mGvANTtsAdypWc2OADBG5LQMdkE7mEWVnkQnFbSDDsdAS0355OQSh0NwI6MPPsQy7hUUHZQQS0y9LZPb4LNb5JNd0HVEJjCp9jt/jMpPuG09Soe3/iC1U/9AMMRYgahQahBKEO8lOwHt/LmqSEoRtzidQ7vrqWXw7LlwumJafEIbzK6v0OGVaYolq93CT8rER8JyzxLJY6XdznvA+afgwLAjsS0DHZVC6RX7kcj8F3erucOPp31B1DPZeA9tvnkoDlOxHQgZk3LHIJjwrKDiLguGx8gVN+liBepuALCiIyFr8gpS5kkCXmJ+b4x+iSoVW9uBaig3UxTnjBC10lEdGEal/txh2yMP8vYf6U5KBoeVwj9avkJ0s/75RQ0a/upQssyU6bfiCXyGiw8SwCOiabzCXihYj68FLryLMAwtpDCGi/PUQJDPokAk5gZsxHLmGQoOA4Ai0uW2nnBNNVPXZAAARAwCWAmMzFgsKTE4DfnnyC7qdeS2CGXOJ+835hi1pctjIPuUSFAzsgAAKtBBCTtZJCuzMRgN+eaTYeoUtLYIZc4hGucBUjW1y2sgW5RIUDOyAAAq0EEJO1kkK7MxGA355pNh6hS0tghlziEa5wFSNbXLayBblEhQM7IAACrQQQk7WSQrszEYDfnmk2HqFLS2CGXOIRrnAVI1tc9iq2QE8QAIEzE0BMdubZgW5DBOC3Q2RQvhGBlsAMucRG8CF2CYEWl10iF31AAARAoCaAmKzmgb1rEIDfXmOebqRlS2D2+mfRH4nGfxAAARAAARAAARAAARAAgRsTGM8VcF3iRsnj9U2h4/D6dsACEACBsxPAfVd/xgAAIABJREFU97tnnyHo5xGA33pUULYhgZbADLnEhhMA0XMJtLjsXJloDwIgAAKWAGIyywQl5ycAvz3/HN1Mw5bADLnEzSb92ua0uOy1LYT2IAAC5yCAmOwc8wAt5hGA387jhdY/E2gJzJBL/IwZAtYj0OKy640GSSAAAs8lgJjsuXN/Zcvht1eevUvq3hKYIZe45NTeVekWl72r7bALBEBgTwKIyfakjbHWIgC/XYsk5DQSaAnMkEs0wkSzPQi0uOweemAMEACBuxNATHb3Gb6nffDbe87ria1qCcyQS5x4Ap+nWovLPo8KLAYBEFifAGKy9ZlC4vYE4LfbM8YIFYGWwAy5RIUMO8cSaHHZ9TXs36/Xq/t8Z0te0HFBl9lqiQ47DydGxiYInJwAYrKTTxDUcwnAb10sKNyOQEtghlxiO/6QPJuA47LfT0el9f8lof+QOnXATQM2ya87Domvyhd0qfrP3Nl5uJnaoTkIHEhAx2Rmqem696ef/xXDgSZh6AcQ0H77AJNh4rEEnMDMKIRcwiBBwXEEHJdNoX33rv8+/Xpa1gE3con1yEISCJyXgI7J1FLTpS8xmr5WOK+V0OxuBLTf3s0+2HM6Ak5gZnRELmGQoOA4Ao7L0gn+vWLqYMyrcwlTPVywoOOCLsPjT9fsPNy0QmgBAmchoGMyu9RQyWvT1ecsNKDHVQhov72K3tDzsgScwMzYglzCIEHBcQQcl7Un+NXVWxxwL+i4oMsv9u483C+qoi8I7EtAx2TeUhMPICQT+04MRhsloP12tDEqQeB3Ak5gZoQilzBIUHAcAcdlvRN8pWA827/7v2//5icrurd9kPr7ydU0SvhPXziqgFvt/n170bXrxN1V3DIMzTdEOENLdbmLKBO9X6+ue+c7tGNbE8doCYPdwxC6sRgWmyDwbAI6JvOWGlMm1xF5sD4bJazfkYD22x2HxlDPJOAEZgYEcgmDBAXHEXBc1pzMtXYUccdYvgtPVaSovrrLObV5f/qeE4PwWGWK2lXAXe/KrqFvJwRTXVR6cGilbi3874/Miw95Ct1SKuTZXgsY7Y5cQsHHLggIAjomGzzccj7PBzw9vRW/PhDLgRCNTRDYjID2280GgmAQIAJOYGbQIJcwSFBwHAHHZXO0LJ+9zl/dc7hcvdM1dSnXJmIIIG56jg1KEFCH5/V3+appjSaFFkUSpwZl6LqDvlBAmgrNOLlIRba+0tVWJwWyxKq51gX7IPBkAjoms4dTOsCro1Ec7X9/377f8kmuJ88ObB8ioP12qB3KQWAlAk5gZiQjlzBIUHAcAcdl6QRPFfl/jpU5l6hO8DqgjiKqFjFGyEJUwF3t0vCd/2rIqiVRs/FITbPqQoq9+6/8i7dqsbZa3MzudV5Ua4I9EHg2AR2TpWOdXxmX71pM2YI+Fp8ND9YfRkD77WGKYOCnEHACM2M6cgmDBAXHEXBcdvIMXoXXpLruE5vk1EFfHNABtxKYb5C2b5tXLcPgemjNsuoSd3KCJDc4l1Dyqt6kt+yVt3P3uoNWBvsg8GACOiajYzcfROHZJfkdAo6lB/vKmUzXfnsm3aDLLQnQojhuGnKJcT6o3ZWA47JTwbnOBIK+pg8F7fERify8RLkPSQUJajcCEM9f5zjd5CTu0IpfJTzt1Ncl4jWK0otsoUFj+5ITNXSvhitCsQUCIKBjMrNs1IhwLNU8sHcQAe23B6mBYZ9DwAnMjPHIJQwSFBxHwHHZiRN8S0AfRXTv/B4n/foVFSSoXUHjG6vyk5hNaYzoHjYr4ZO2xc65S9woqYRNmdRYejhbjRIQeC4BHZNNHI7q4H8uN1h+LAHtt8dqg9EfQMAJzIzVyCUMEhQcR8Bx2YkTvIrOSXXVJwQBnYjBtX05WKcKtVu1jnVZlNNSDV11Djt1F2otrnTE9uHKhOyY+nze+S22qXa6ez2cFIptEHg4AR2TNR27r+po/fbyLqiH84T5+xDQfrvPqBjlwQScwMzQQC5hkKDgOAKOy6Z4mR+I5Lc5lVO4Ey6roIB2SXb833XVrdBKgtwNXfmFrXx3VE4lVGIQsamhDUopPFTG/ZDqfML7avsP/ZRFFa/kRjqVaOiuhzP6oAAEnkpAx2RTx266EPgKh2v4o4ezy3LwVI6we18C2m/3HR2jPZCAE5gZCsglDBIUHEfAcVmTCFCbEm074bIOCuI+PS0RA3YVBigJ1W71S3Ah5Devoy2aBG56aM2yEk6Vo0NQk9ireu9tkTva3Rmu9MQWCDyZgI7Jpo7dwKo62vTNkk+GCdt3I6D9dreBMdBTCTiBmUGBXMIgQcFxBFpcdrZ2bjzdEjfMHgkdQAAELkMAMdllpgqKCgLwWwEDm3sQaAnMkEvsMRMYo5FAi8s2isrN/KzBTTByH2yAAAjcnQBisrvP8D3tg9/ec15PbFVLYIZc4sQT+DzVWlx2NhVKJspjD+G5h3irM+50ns0SHUDgNgQQk91mKh9lCPz2UdN9BmNbAjPkEmeYKeiQCLS47BJY1V3O4dnJ7i2fe1giEn1AAAQuTQAx2aWn77HKw28fO/VHGd4SmCGXOGp2MK5DoMVlnW4oAgEQAIGZBBCTzQSG5qcgAL89xTQ8SYmWwAy5xJM84vS2trjs6Y2AgiAAAhcggJjsApMEFQ0B+K1BgoJtCbQEZq9/Fv2RaPwHARAAARAAARAAARAAARC4MYHxXAHXJbbN5yB9FgE6Dmd1QWMQAAEQWEAA3+8ugIYuhxOA3x4+BU9ToCUwQy7xNK84tb0tLntqA6AcCIDARQggJrvIREHNigD8tsKBne0JtARmyCW2nweM0EygxWWbhaEhCIAACAwSQEw2iAYVJyYAvz3x5NxTtZbADLnEPef+ola1uOxFTYPaIAACpyKAmOxU0wFlGgnAbxtBodlaBFoCM+QSa9GGnBUItLjsCsNABAiAwOMJICZ7vAtcEgD89pLTdmWlWwIz5BJXnuHb6d7isrczGgaBAAgcQAAx2QHQMeTPBOC3PyOEgHkEWgIz5BLzmKL1pgRaXHZTBSAcBEDgIQQQkz1kom9mJvz2ZhN6fnNaAjPkEuefxwdp2OKy18PRv1+vV/f5Xk9zaAwC9yWwWky25wG+51hrTv23f3e0vL/eM5fCq5q8Jj4paw2//X7CbLx7KVdvt7TRfW66/3TvbQnMkEvc1PmvaZbjsjdY0BrOhWQl8o1rui20viQBJyYLMQOHvF337tvy/4YDfDVALWOdb80kjV7dp+8/n5hLzFjxWkxeje8FBDl+O1vrFhdpaTN74OkOBw07ohhp9GTvdQIzwwu5hEGCguMIOC67cGU50/mnQReyErnEca6HkR9HQMdk/M159w5/lFI0HZINB/hqcFvGWrhmrqajEeQoNGPFazHZDHnjAu23S0x1ZsSIaWljOv1ecNCww4o7ClHR6RaHYRt+rHECMyMRuYRBgoLjCDgu6xzILfqd6fxzJl1a2KENCDyBgIrJ7GH6/XSnCxeslnaqFq6ZVtBaJVGhJpTeiC0me/3uWqb8dpGZLS7S0mbR4OOdDhp2WCl4758TmBleyCUMEhQcR8Bx2YUry5nOP2fS5bi5xcggcC4CdUy2cKEJJu15gLeM9YMp28wQorE1udZ+u0xyi4u0tFk2+mivg4Yd1gnei1xi2DtQc04CTblEPJu++z/xPFQnH+eL9SSJ/5dnzOQN0S99RzRLzjc7fOjZNC4fGjHC/Paf/HThq+tS11AVu3efrxi7Uli2SfMSuoTv8USXV/Pt20kGPkAABEYI1DEZhTDjj6N+q0M8P07RcoAHPaolwqw+pOlUGx5rxK6/sWhMrkLhlRBy5YwyKwWqdYxMKA+UGAuibu/+T66fsYzX4fiZFmPHkJ/xjug2xutidbXfBr+SpwlvTmvXCycSz0XkzA+10ahkn5dxiHTuGzlZa3nBmpHHwictrfSB9zp4FxXRATzeFdclxvmgdlcCjsvalYXOTvERyS7c2pweliyX0L9938f1qHt/+viXHqEkWV0qTnFB6UdBf9QhCZa5xGtkxLRmhjNzGO/z7uTNEeJ06iss8o2EO3TpujIiZyklKdp1XjAYCNyPgI7J+DgdSNpLdX6cIq0dXBNic3dFCuxo8UktyqpVHdENbeJYYs3ypsWumdxqagVMS6C/jiUTZq6fcTUO6xevxl9ajbUhDFE8rTIf77BuTOAGn8pvJ+eUz05hCsr5MpznpPNV/NM5VbdR8FrddfzUqYSO5BKTlpIN8F6N9Od9JzAzMpFLGCQoOI6A47K0fjiLnjifpjVGvmpQn6nyyVxK0stWWk6FZEJhy/WIcd/0SyCnu5drF4Nd+CwvjTxuojAyCFyegIrJwhLB36jTN/byNU76iI+te3Hdsnrts2lNBVXwZo7oljbUaWilSVNCgqqVjifr26dQPhWodTL2HJDuSFVFdqGTCimx9cgkqWoSkpDY34o1rZUioZtTlLS5+of224k55RRQnDmIjcwlDNHUS7ZR3JKQys1oqsQ0NsydEjs2cROWRo3E4FIyaVspq4qsqqm/JzY2zkORpLwb+t3Le53ATMKN28glDBIUHEfAcVl1wNuv8IO2LY1oRQiXd8VfjB3yGlAvEAWDU65GpN3uI6OP3H+6u59LZL1IEo/R9p7KPDo2QAAEPAI6Jktt5G0SHQcf6nivxU0f4H73+ohuaaMWihCwiD9eGXxJtc5sbH1DCWvkrGOxKt76Mnv9pPVZLWcVtFGNq5akt2rfoJtr/TULB/w2G+PBqbNYc8ZUXVzIWf5YLQkqUz09d0qsUc3UiwKlNg8O7xWMVtl0AjMjF7mEQYKC4wg4LquWi+W5RFzVaAD1P698zsIXWTjlRq18r2+8zM5n9ebuagi1SzPiFh43WRgZBC5NYDQm+9Jtkvy97Oix51Sq9cFpEdDFYg7zWtrUuQR1L6tZU+ITb6//fOJ7b/nVt9wxfi3Db8MNt4qIdUwPVoadXD+nc4kB28m9nEoPb1FIbGXdLu2ptfKe336/4Yc70l98nXGeUwefCdhb2tRKDF0gi5LYpWt3TQLU3CmxRjVdP2Jp6Avv1cDW2KcjalwScolxPqjdlYDjsnblcda9lkapW31dIn7Flk10JMc6p9yOGFqKrzTFSaylu2qjdklDtzArjw0QAIE5BLyYrOofDziKi0aPPadSrQ9OizCSGMANu0ybwVaV3mpwWSdu4hIRd447U1NvHUsmLFk/98klwlVh8ydtv8u29tuJOXV9T7lISxuFz+2iXNp1VzW0EjuaS0xYmkTBew3TXwucwMyIRC5hkKDgOAKOy9qVx1nEWhrZNsZOR3Js45SPSfvG9vO+m1FDqN2oxdiQxhQUgAAIjBPQMZlpLY5jsWmaeV/RqoNV7SYRVMrfOrS0cYMzo5AvKd8LKp8tH2wavxl5hwU5JRpjLZMG3qoVq2JfttNrvAlew+UmBbXf0ryMzKk7capQ7RIotzAz9GuptEy14xJ+xyzXuWE51SXZ+fVpo2lHePYJ3luo/rblBGZGIHIJgwQFxxFwXNauPE3Lk+2W1qiyzJGZ4ZssNtiRHKucckc+S+HvG/OXfS3dVZu4Wz3Nmb7D1OqLQbEJAiAwg0AVk4XfpRNRigml6YisDr9vn24CUgdvUEGvD273GOwUkS1tvLzFmKwHzw2sovRNb16qckvaiO25kqQWdalJy/o5fV3CW93m4J3WTVl25d3Kbx2H0HNq/Cq/YoCnli8niMl12ihmRmx8d0E4hQsx1uPMoaHEDtdbWdrSWlRszyZOe4gVn8TFrsKmUFw3jnvS7HiLAt0hWLeMIkkX1owXCzXCnzyyasP233MCM6MEcgmDBAXHEXBcVh93+jCOytpG6eQU34IXgoTYjA758HJCenUr3VxZjmHnsC/9SrNQVo8Y9vh1hPwzE2WpcMTW3c3axNrHhXnwLZNRN/wDARBYRKCKyeiIjO9vinedx3vOZVikGlA9HeQtB3g+pONbY9/8kud6VUkLFL1Z1m/jjGWMJ1XTQHwTfUyUaAB6aeaH7y3Plx7iqja8jrEJs9dPWi1rU0lYKVsJ76BuBtJ1Cyq/zWlAfB25M6f5ZMWvI46eS+8bL+eodEIbb6ORLXNXmmkxtBIL7w2PvoRZKkeHQrT7rhOYGR2QSxgkKDiOgOOyduVxzqa2UQzPUzwgj0nzqz7m8ULnAJ4eca5Yo7Aagnfzs2Th3eBS1ePmCCODwD0IqJiMnnbiNYN+dytfsowWV0e5uIzBR6vAYg7wUBeOZim/erY5dZ5q44wlhqVNGpwW0/KfojexosQlJcrLgV1lYfxFiJpA9eOZ9JMRosGgblEhtbDaxtXgS/D2Aq+nvAF1zQLtt+WJ45gK93R3T57TaGRgm1yBnqmv5725jSa2wF3dQ0PIhffGafQWB0Fp300nMDMKIJcwSFBwHIEWlz1Oux1HtifaHQfHUCDwBAImJnuC0bDx8gTgt5efwqsZ0BKYIZe42qzeWt8Wl701ADYOuQSTwCcIbEQAMdlGYCF2UwLw203xQrgl0BKYIZew3FByGIEWlz1MuT0HRi6xJ22M9UgCiMkeOe2XNxp+e/kpvJoBLYEZcomrzeqt9W1x2VsDYOOQSzAJfILARgQQk20EFmI3JQC/3RQvhFsCLYEZcgnLDSWHEWhx2cOUw8AgAAI3IoCY7EaT+SBT4LcPmuxzmNoSmCGXOMdcQYtIoMVlgQoEQAAEfieAmOx3hpCwPwH47f7MHz5iS2D2+mfRH4nGfxAAARAAARAAARAAARAAgRsTGM8VcF3i4Qnnucyn4/BcOkEbEACBOxLA97t3nNX72wS/vf8cn8zClsAMucTJJu3Z6rS47LMJwXoQAIF1CCAmW4cjpOxLAH67L2+M9tcSmCGXgKOciECLy55IXagCAiBwWQKIyS47dY9WHH776Ok/wviWwAy5xBEzgzEHCLS47EBXFIMACIDADAKIyWbAQtPTEIDfnmYqnqJIS2CGXOIp3nAJO1tc9hKGQEkQAIGTE0BMdvIJgnouAfitiwWF2xFoCcyQS2zHH5JnE2hx2dlC0QEEQAAEDAHEZAYJCi5AAH57gUm6l4otgRlyiXvN+cWtaXHZi5sI9UEABE5BADHZKaYBSswkAL+dCQzNfyXQEpghl/iVMvqvSKDFZVcbrn+/Xq/u811NIASBAAhch8AVYrJv/+5oVXy9Zy5V66xv36ABq9B17x7r5dEevobffj9hTt/9mC0tbcb636ju8MPwYJYtgRlyiYMnCcNLAo7L0oKWTqflY4UcYJ1zrVQf2yAAApchoGOy88VOafHrPn3/+cRcgkqaVr811jdWoHu/35zUdOMR6GWm/7KKar9dYkiLr7e0WTL2RJ+Dhh3Rio+Cww7DEd32qXICMzMwcgmDBAXHEXBclo7jLp7Mwgkt/X1Gv1FpsmCNc23TQGgEAiBwPgI6JjtdEOMolJbDlksUa6xv3091JeIbZeJi7rG+rP12iTaOaxkxLW1Mp98LDhp2WHFHISraLaUf1m2nGicwMyMjlzBIUHAcAcdlnQN5Jf3WONeupArEgAAI7E1Ax2TbLTULLYsKNQUs3gCbrG8zgihPJ5StQED77RKRLb7e0mbJ2BN9Dhp2WKuo0LkOw2Flt6lxAjMzEHIJgwQFxxFwXHa7lWWTc+1x7DAyCIDAHAI6JttuqZmjlWh7xiAGq6aYoGM2td8u0aLF11vaLBl7os9Bww5rdcbDcFjbTWqcwMyMg1zCIEHBcQQclx1fWeKZrbrmTu2rbxG+H77V9/USTw/yWVE8XNiZ5xurRw9fL9MgCnn3f+LhLNPm7+9PqkBGVk++CRUqFY+bCYwMAncnoGOysaVmah34+/bVKqPuwRw9wHkN4cesu0//RwtbXirKasGrlpgcubjMXd/C2iQerpbroxhBbDrji1ps7kBA++3fpHOGSS7uGW5b83y9pY02T/bxTl3s2xPnRynWU43rJy2t9OnCkST/Rl2dVb3EYSit2mHbCczMqMglDBIUHEfAcdmxlSUoGleA8kIKc6qj+pAFhL/4QpKUaHBNeJtTqE1vK5FpCA3ede9P3/e8GssGafjYdUgIt4lC0ooeJaY3okwPctyEYGQQuC0BHZMNLzWThyitJWWd6OQiMdW7LERpCQkR0JcXnCS0/9JyERsL6dx50foWvuQIS+LYCldPvx6+rsXeHgSU3zZMYeUk+a1c9XucWtoo62jkdPosJ1D5bD5JHT8/ulKlEG4waWkaLZ+ub3sYMpG9Pp3AzAyNXMIgQcFxBByXzesHP3UdPqsXE9ICEteeuClOtHyqlI8qhpN0tJD6yYsaaSzR+sun8MTEDNAgJDYRS2McJStJY4pqPr9XRcdNCUYGgZsSUDFZWizc425iHagP6RrX9AFu15AkwRNbr0AkPC8mod+c9W1at2zL9xu/Ew4rtEsoN8TG1gSM306cpKyTUImcyZY2yq4kpPIGcmXhj9a37Uiu3Eost8BhyCR2/nQCM6MBcgmDBAXHEXBclpc9qkr/1UJDC9b7bX4wgjqr1mxefVaOpaPtQwvTYFpI7CJW13QpJSlFteGis/iLV1mrLqwzPkEABFYiYGKyhnfup6HVOkC73af6joOaNhzgzhoi+4qvNvg6LK8NSo2aiyNWtW/QjURGUWHtDRdJ8AMTNefd97TfagW8WdYJ4II2ahglIdVSKftnOteV3dDK71ikT9WXlloUD+64aKyKN3cNnmed44WGor4nOAyF5TtvOoGZ0QC5hEGCguMIOC7btrLwya5etejuIlWWrXPWDnew7ze83D39xZukRHLSICQ2GerCiqckSXwMqZ31xwYIgMAPBHRM5h79Rf7oOpCfWYi3C4lwu+EAd9YQGnUyiBnsGfo7lcrCBt2GFSlgsLUvAe23YfQR53T8wAT0LW2UkW6X6XuOzdBK7GT9iKWhb3o08paHoUG1W4ETmJmxkUsYJCg4joDjsur05+tGjUJvEbP7p9MiwFkMzWD8HJaI8etB2oSE7nTfMz8vwd9ypP71dYn41UlRFFsgAALrE9AxmTn6y5CT60BsKh78zN8ENBzgzhpCI0eFsiQqqxpXO0Vbp6UQWNbIBt1EP6WIHg77exHQfjvhnK6TKF9vaaPMc7tsnEtMWJo0vO1hqGZgx10nMDOjI5cwSFBwHAHHZdWi5+mWmnzi6lbOlJxLVCWiv7MYqsFoV/5ak2rQ8uVf7NLlX41Vb0oxAoWC2AQBENiOgI7JBo9FqhhdB4SW6Qfd5E2MQ0sQ9XIWIqqgpYO/dnAa2xVP6OGIVRaqXdFXbXqKqCbY3Y1A7bc0iSPO6c6yKlS7ZIpbmK30a6m0pJ3TTpgF8oYvON8cNWIpS4ifNzwMK/t23XECMzM+cgmDBAXHEXBcdnBlYS3l6mXOrVRQlrawIvXplt/pZc62oC9GxMUP20TfxBladKIH650+pfqlKlyZKHvYAgEQWJ1AHZON3FxhD3KzDlTKxfZ8yE8f4FZ8kha7VouX/vIidpWvj5i1vqWlSo3wh8Wnms3T7dR+a71HO6dxkvyCVvZRvpwgPMFpo0AYscH3wiOL0h+tdvr8qKTiMGQgZzoMncCM1cyfyCUyCmwcT8Bx2XQqplce8lML7/wIoD5T02JW1kiqj7cYhc7xcYf0LWHDMpeWRnqbK9+KWd1INS0ka0DGhTfo1Tdz0iDhHih68yyNI5b14+cFGoDA/QjUMRkHMfG9rGWhie+Mm1gHwiHOr1XlN0eXJSi9E3r4AHfWEIIdlw61EKjGeXUR74RtX984hhzWLSpSf8V7P0e4mEXKbyecM3+hz+9upfeix9e0CidlRyL399toTjQyy+UfcaocVrlrkEAjiaGVWKrHYVjlZIrR3rtOYGZUQC5hkKDgOAKOy/Iax5F4+qQFKy078i6A1F4sVUM/UNO0zOWHuWI60tNZVQhvEBI14rfEh1+pqDKaCLtSMT5ZgasSx3khRn4GARWTpSBHLTQpMB9fByaP39EGzhpCE0Arh1zd9HWJ0K6S7fxWnZhMWhzF8mX6u4sPcgnB8PhN7bflieOBk1RyEj51xi/iotPVnhAcaaqNtj4cF9yJ8un6zOX4tuuEQi7V4zB03kYlKO27SbMxPiZyiXE+qN2VQIvL7qrQ74M5i+n0VzO/DwsJIAAC4wRMTDbeHLUgcAoC8NtTTMOTlGgJzJBLPMkjTm9ri8ue3ohKQf9LGDfBqPphBwRAYFsCiMm25Qvp2xCA327DFVIHCbQEZsglBvGhYn8CLS67v1Y/jZiu2ObbqcP91PGicH19+acx0BkEQGA2AcRks5GhwwkIwG9PMAnPUqElMEMu8SyfOLm1LS57chMc9aobmsMtrfK1dk57FIEACGxPADHZ9owxwvoE4LfrM4XEUQItgRlyiVGEqNyXQIvL7qsRRgMBELgnAcRk95zXu1sFv737DJ/OvpbADLnE6abtyQq1uOyT+cB2EACBtQggJluLJOTsSQB+uydtjPX399cSmL3+WfRHovEfBEAABEAABEAABEAABEDgxgTGcwVcl0DaeSICdByeSCGoAgIgcFMC+H73phN7c7Pgtzef4POZ1xKYIZc437w9WKMWl30wHpgOAiCwGgHEZKuhhKAdCcBvd4SNoQKBlsAMuQR85UQEWlz2ROpCFRAAgcsSQEx22al7tOLw20dP/xHGtwRmyCWOmBmMOUCgxWUHuqIYBEAABGYQQEw2AxaanoYA/PY0U/EURVoCM+QST/GGS9jZ4rKXMARKggAInJwAYrKTTxDUcwnAb10sKNyOQEtghlxiO/6QPJtAi8vOFooOIAACIGAIICYzSFBwAQLw2wtM0r1UbAnMkEvca84vbk2Ly17cRKgPAiBwCgKIyU4xDVBiJgH47UxgaP4rgZbADLnEGOXvp4sQ3/13rBnq1iLQ4rJrjXWknP79er26D7zqyEnA2A8eq+seAAAgAElEQVQncIWY7Nu/6Rz0er1nrhfrLDLfoAGr0HU4FR5/0KzhtxTavPsxa1rajPW/Ud3hh+HBLFsCs9VyCQ67aVD633Xvz6WjcDYKUd9Oruy4LM9BcawbnNAWnOYth0DkUp5pTNh0gaDRWgC1t/zxMNhtoB/1fEh3HZPR9IzHV/uiIY1e3afvP5+YS8xwoQWLjLGOFeje7zcnNd2ZCBmNH1Cg/XaJyS2+3tJmydgTfQ4adkQrPgoOOwxHdNunygnMzMCr5RJx4SrxnthqOZsbvc5RkHzoWhHbOdAt08JxWZqDLp7MxAntdekT2oLTvOYQWLzfn9EvlpZNwma9lAn8becaC4QDNI3W8GVue8s5aH5Sac5AaLuQgI7JyA9OtLA4Cs3wVccBZ4P6fqorEd8oE+fD2RxX7aD9dolwx7WMmJY2ptPvBQcNO6y4oxAVNZ251jgMh3XbqcYJzMzIq+cSGe+3TzcIva4b9pHHXOzbXzPHFypwXNY5kK9/QluwvjgcLjSxUVVrQjrAfg/fFgDdmt4JVdra5IvJ1zGZ9c+DDYoK5TPqXGU2cUBitFinuTagvUNA+63TZLKoxddb2kwONL/BQcMOKxoVWuzymxyGw8puU+MEZmag7XKJv7+/SPFqN2JIROTVyCUkk023HZf1VhZyrN8j0E1tGRO+YH3xOIwNccI6z4SVpnIB0K0BnVClrU2+mHwdk3n+eahJUaGTBTFw60NdIgyu/XaJQi2+3tJmydgTfQ4adlirMx6Gw9puUuMEZmac/XMJ+SjXy9z6/u0/fFvmy6stj4HZ2r/YmR8TM93JRcNFkm8ao8t3iFQ9i1KpC92vmvXq5j4EZ6ijYICA47LOykJF6hw7y6/yxJMeE32r6peZ/nh2ffd//JRkcau/7GrBsOJXlGV3H/lcoxGrEDkcdAt57MjRUrshPblciDODcZuAgibpxTc/8NH0smSExLBppJoyCSQQ00caq8FaBNSxLOmUPijLjBW1lxRd3ekQoEI/Oe9sbTZpTNVZKjXOWkW+4catrCg2hgjomMzzT+47Nt2xjTpzzVlh2rw6fXUy36uFG5sDKqgu6qujgk2vP53x6wbY25qA9tu/SecMk1wCq7CWeb7e0kbbJvt43sO+PWP58lTjYSctrfTp5Kk4iBh1dVZ1/ORyksOQgez0SSfW8cG2yyXSrZX1ZYk4XfV5P0QMfNO3U11iAadyom8YqPQnF311fJv2i2++ShWVWtTNq6FmRew4X9TOIkBwqy56ZeF756oZoEbxUd6+51WztCDXCW8CoNquVHGEO9h3QrS4/BaX0ve7LGDssfSsR4zB08BcQxlG6BMtl2pVEEzQrWtTnJ5UKALzoTWiZ1RGNmQmoiwRDGrWj2GSVeVBlrkmkGAaaSHqb5hU0ixOcJ/e9xBFC31oqGQApURyOkrL0LCjdYKe06HZkfdqTqjaqhKJaZi16CBRmQZXMc6BApeAjsloNoTX514T082X4JetMCIbTjMcEpHoQsFLk9D+S299m+nV6XQVDlrXcyYtywxoQw+vqrG7AwHltw1TWC19yQ+CZ0hfb2mjjKOR116+SKpUjYedtJRseMBhyET2+nQCMzP06rkEDVr+l0SBF9wQ39PZPqcbdBrPnpm+dfuGbxH5DJ893e8bhHfxi9/0nk0lOwdjUbMkVCzOoZhfdxeT16gDa1QqcwnrZYii4AcC5DeVgEy8+FT+Sjw1pCbV4lMVxZ2BCasakjxV9OWzeBoteqKUllxTFoWmJKYqDfFBlGK7OK3TeOkjNcjPoFePXlNldWpIEYoY3w5KomN5Rc9eQTB904g2WRcD1gYwETlSEstFS1GnpUUNHYXnMgdwPR25Jcd2pYCXLlEyqSpJET0CDU+l2bPmWKJJY7+FgIrJrNcXIRPTHadEzTV3puliF4+lqsgcXFVXJdZzoapJ7dXyALVLklIkjOsUkc7f+J0wnShZQXweQcD47cQZiqZUOgmVyFyipY2yNQmpPJtcWQxlfduO5MqtxHILHIZMYudPJzAzGmybS8hEgs/H0oHTwsXrXfI7HSoGpblKeBgfD8JxK/N0F25fn7s9yVkMd5FDaLG5MTZ+J+C4bFp60nf76WtwvpAVR4wt4nXbb/mLFyrTvCUR3vuJJ/tam0iacMToEdJFilbK17Iwp4sRmxvTBtWLhCpsVgYKlYQGRTFn0NgultedjTK2r2kyHIawJdQlv5IrfdtfLxLcVlggVLNqpPZeRVXmqFuGqlrqiJ+aJd0Hby6y8pXQKKYqs11CGz1Q1UXqIrBQMf7PJGBisnh1q4mrmjueNOcN6LFqbHXy/S2aQn1rn6v8QalR21+1pCrVvkE36hdFxQXn4m95rwlddE/7rTbDm2V9JlrQRg2jJKRaKh096fgdi/Sp+tJSJ748+F0PQ2H5zptOYGY0WD2XIC/KVwU42sknSRUMpd0qJuIm4VIVX2XI74TiyvKZ/ZbupUsRSqnncwM5Wo6/Egq/dKSSl1UWa5CiYDkBmrWqv1pZkmdJ+jwjZcp5q7gG3yyqf9GgoW/Q5vsN73dPf9HDhAJRRh6KlfdLU61TqexkMflzrN4RF/rF4nISGWhFzYQ9+VgVZU7fWCSacBhcFWX1wwYfa3l6xBGeGy5AzaaqOah0rnbyYGlDVapdauQUjqpKWBeoFAcanbUxV9CmYX+YgI7JJriOTnd+EmfBCuO4FikdFVrgQtTbEassJFfjw1F+qkE9RYa5omZbAtpvw2gjzun4Aa/Fea1uaaOMcru0nHSUEyqxRjVdP2Jp6Jue57vlYahR7LdPa8P4eBvlEnx2Dyqwv5ILyQWrbJelSz1ck3KR6b7DLfT4ZayAhvvVpQmaV8nrL4sd54vaWQQcl6U5ELSpQMxXWtT6clGCt+qxxWNZuXdDX34Uq3hr2BIK+YuqX5o0ciqNnbXy+iuYqtYRF+pjcdF0oNXeuYQgVxkRFTbfBLSgZlPzrJLcyt5qx45brvEMCNOpwaRX6A5xzEqLaqeoFItHZ23KVYosbI0R0DHZCNfp6Q4DLV5hKvcrKkeF1vLqqGB95SV54OTKSYuPUqSoia19CWi/nXBOd51Rvt7SRhnpdmk56aihlVgOydzTxISlSdRtD0ODarcCJzAzY2+XS+QoPZ8Wo/PVsYHRJxeUKxvRqab6kn8G4fmKsO7CTeolkUuzllmDgURDi5Xtsf0jAcdlnZWHpiAvNk6LETXqCxuTfamBfIuP6RLVqb2KA1LXq7iy7mLEKhvG6v06Ki2j+Hqm1b80C+MagU7fWJQnwe01w4Q86ALUPtA6mI/aNk6HY6wiktDyE1ZZeYnDk1KVGcgRV8Os+R0VbOxOEtAx2SDXNCej011Gm7nCuAcgSYvj1kfmcq8OIpWFareYoLc8RXQb7O9FoPZbmsSRZdOdZVWodskStzAb6ddSafHZasVrEWucNA+YvHfE0tI0+Hocmpd8X9uqg6OqULiYFAurxtVIlUz/1KSUUbtawBn2ncDMqLVhLpGmvnzlQsjiPt+7lN5mRvP0/cgLU9w615E5/Nx2cJb4kHRdzy8B47f9iNSlFphJcHH4qpnuqLLPXks/Ir+pvpjOsrDxIwHHZWl+ZJBmvvugJnKSghrh4oSrTpxBFjjVt1ozojj6boT7+4tFaEiOUmn17dNde1aqPs0bzT0OuZE71jvQFOM7gyaDQkNhEA1VFTl9Y5HoNXISSHqOmuCFVK2o/aFrneOexBG/RqZDvm6ZZq5qq3qrDnG2wyUVicOztu6nhAZK6QQ4Pmue5OwK2GgmUMdkvhNFYfW0hSLjmdWgsT37As2WmNHYVK5OVnySFruqnnXjuFd5arg44np1kKk9Z1q3yi7snIJA7be1QwQFtXMaJwkRTjzVso86ZyunjTLeiF1p+dJOmoedtjQ3jRuxPZs47epWfBIXuz77MHQCs5p1+NkTU9JUYEWTY1Wxi0kmSgH1z/9pvmm2cyFt5Cl0a8vpe6i6nN+5RZbIlvKBJUemRl4XNpR9lKXgcwUCNAWVIJoDRZsmoRSmSeneH3rtK901mWY6SIhZanojbBikdM2Ro9s3L7LxfbIfvhvTCjBexSfuEM/HBy3k6h31rbu4dgoSE/XslunJ5nSvUDWEMyjJJ9H8ttfQlV6IqiFV0oibaMIGV0XCgOl6soHe6DcPNU9TRB1e5xbGVfayldPTwSwjCP9lmtOqtqjEvhfcM/w1ztqEK1TMsTNMoI7J2D/zuwHS41EhMJ+Y7jAhy1cY7ahF4TjR9VGnG7d7dRBrPSf5ur9ysib1V7xcis+DCCi/nXDOPO387ta4ypgVnh2J3N9vo+1NzrPy8kWa4DCsg2nNft99JzAzCqyXS6Sno6uVj/1TfHES72VL50w6V+cHrGNaK15+LH7bi/Qe7RsWSj4Zx5dypwUwh42sTKVhAhIvRXAuUcb1uvDxMxwyGcgoaCXguCzNgaZNpXIqqymML2XPVyVGqkix8Qa1X/XkV0Kh6BFSlWJtJbj4lQ4IQgffTiGqvtW5VOStoGc+suQlvtRiVM8PdyUtY9txG3WTtUzIh+F7Fur8U4F5Cbb2Nk4HdxQTLy+sE05RGV88Z3GEEJTnI7kHS85zRqsWt6KANPttbOV2CR3E7Ahx2GwnoGKyga+6iPP4dFeOVS8+pM5oA2eKU69wzKuVxTauZC9YZKr+nvJ8tQwe1+5bW7bUfqsiH7tshtOLWIviO22iH9Uz2tJG27XgpNN2puPTAH/iMNTo99x3AjMz/Gq5hJGMAhCYTaDFZWcLRQcQmEXAhmuzuqPxRQiYmOwiekPNZxOA3z57/g+wviUwQy5xwMRgyCECLS471BflILAOAeQS63A8uxTEZGefIejnEYDfelRQtiGBlsAMucSGEwDRcwm0uOxcmWgPAvMIIJeYx+uqrRGTXXXmnq03/PbZ83+A9S2BGXKJAyYGQw4RaHHZob4oB4F1CCCXWIfj2aUgJjv7DEE/jwD81qOCsg0JtARmyCU2nACInkugxWXnykR7EAABELAEEJNZJig5PwH47fnn6GYatgRmyCVuNunXNqfFZa9tIbQHARA4BwHEZOeYB2gxjwD8dh4vtP6ZQEtg9vpn0R+Jxn8QAAEQAAEQAAEQAAEQAIEbExjPFXBd4ueUDQLWI0DH4XryIAkEQAAEfAL4ftfngtJzE4Dfnnt+bqhdS2CGXOKGE39dk1pc9rrWQXMQAIHzEEBMdp65gCbtBOC37azQchUCLYEZcolVUEPIOgRaXHadkSAFBEDg2QQQkz17/q9qPfz2qjN3Wb1bAjPkEped3jsq3uKyd7QbNoEACOxNADHZ3sQx3hoE4LdrUISMGQRaAjPkEjOAounWBFpcdmsdIB8EQOAJBBCTPWGW72cj/PZ+c3pyi1oCM+QSJ5/EZ6nX4rLPIgJrQQAEtiGAmGwbrpC6LQH47bZ8Id0QaAnMkEsYbCg4jkCLyx6nHUYGARC4DwHEZPeZyydZAr990myfwtaWwAy5xCmmCkoQgRaXBasJAv379Xp1n+9Ys5Y2Y/1RBwKXJ/CImOyhR/r327+7js4nr65796PL4bVceQ2//X4CnHc/ZnlLm7H+16h76AEyb3JaAjPkEvOYovWmBByXpQUtnRTCR9e9P3c6M0igqxjbsjjWbWjYifRD6jlze2v5M9VBcxAIBHRMZo6+OwSh9ZHeOvEXj8TTTHbd+/1+p4yiGw+cW8mcoJ322yUqEaFxJC1tlox9rj7LDpBz2bC5Nk5gZsZELmGQoOA4Ao7L0oJGZ4VwYuAzw/j37seZ8NPIqxjbsjjWbdKw6yCtRUccq8r/CTA6g0AmoGMydfRxEDrx7W0Wd84N53CcUrRPlsdInLdXWBwWqDKl6kD991NdifjGkaeu1Q7IOl+x9tslGpKvI5f4+9vPK5fM00n6OIGZ0Qy5hEGCguMIOC5rFz0qufYZfgDxKsa2LI4tbQZ0nCreUPTU0KgHgRkEdExmjz4KNC4dhM4/HG2P76db46KlFTxjsn5rSlO7hhG/6bFKb+23S4Q6vm7EtLQxnS5XcKBXXoeVE5gZ5ZFLGCQoOI6A47LeghYP/zsmE6sY27I4trRZ6AYbil6oEbqBgEdAx2SrHH3eQEeWzT4cPQrrGDBblXWGjVKOHHtFM6Io7bdL5LfMckubJWOfq8+dPGMzsk5gZsZCLmGQoOA4Ao7LegtaXVY9Zvd6dW91OT4sFuEbqeoeYOdhPFlv7pSOK867/8vX/z/psbVv/8k3Q7y6jouXMawNIxlVGashxFf1oZwXR2GPefiQ2yQ5ajeUfiuzCq4x2lEMzSH/p6vonnzJzeBOVrz7OGtJmJnZv1XhC6bYfAIBHZOZIykcBeGeSvV9tjiw4uNb9dNb4z450beq9pey8B2KWYWGD1g+9IRkexzJ2SaT/W9q6ADXd8bwEFGKbz515EUhfhYpQjXLM/bU6wARL0vUuEVBr0pHae4Ft7Xf/o2tyck+OS3h/i/H16vVdKhNhUsKtee+qrZ1hW+a2WGHsdPsHcFVK94RQl13EvXDXuoemOItAA6GiuhZd+jIHdcOucQ4H9TuSsBxWW/Ri4d/OtultSI8kN33HJ9WJ//QuuvigxbVw3jlZBbPxDFoGBRDQwb9ogxOGqi49PrxXoApY+mUWCmewh1RVlQlXTnVEU30qTV2EdBYhLhjmmonaH/DFESQNB19CrO0fBKTWOaHYKqnI0mFMmvpQRmhJBkRAq408z/C39XTMdjxBHRMpo++L/lynUpMHAHJbX2fnOg7Uc0RcVwkq1UohcphcQoPG9MBn44UPpTLykX91Rcucja4S/XMATXQiEJpbF6N5hySQysDZ2ulS1xji3YJKC0qbFswNJSQvXGrniVpjtZR111uX/nttNuklZJxEa+Az5wSMlK/TYUqzcyYqzev8Nlrp2d21Fzrn8mZpaWxUT6RpAbRm8Lh45xo8ncKE14qZPB3iqPaVjhPvRMse00kCxPVQ/a1iB7qi3IQGCLg+NXk6vDtv9X7/uLakFcKPtfVXy6mZTCfsewgOkRPK46UyxmIKhuyraXc6pHG5aUw7vIOSTR9HFWpSCgaC8p+vUsSS20wtO/pOswk7Sq0YJs9+dWJjPOCPCN8+hNaaLXivqjnwfAJAk0E9NmRHIzWIP6v4mlqUh2AVdGYT1YNSUFVNHlw0XFswmYSUx0K+YC1XZzWGlf4DrYQkK/NUxrz8prGjrWVHlJyvQrEGitucuGlLiHozYsFFZV9Mej3G7+0D8ZUsyaaXG7T+O3EGdDiYYYFSUubGlTs4TLn0LsmTo4oOhjPZK3GZpbaFL35JMxj6fowyPsd/uXX3yrFjRqc3mb30i4ZOKhxrJAIS7VyOtZMT7tHi8G4esglxvmgdlcCjsvS4Vje40RNqq+waxXN8RuPc7GGheZJalou4l68qhtOPekvnk5zN09IEVPf5VDrQ3vh3C7+quyntJ80NqpRlsViiijzVK3trb9LVPGAXiaLdt4WCRajT+cStksxI/P2xKiObNM0fE9xlD2egInJ6JJa+m4/BtNqnYkuN7ZQjPjkZF87HyRNHFzeoc2rkGgmJTldjFjZvmzLe1QKB7aQV7BKPlf6h2TVNI4T24/xNCtVXrsrcwcsigOGE0b4PpkVLgZedUv7rbZD0VC71FoVql23jRqGunQeWFeaOucum9koedRh6rHDXveJ1xfZYUhESRSsV+oz4PSg3tmKPXVUW8X0tLtOYGZ0RS5hkKDgOAKOy9LaQBXxtOCdF77f/vOJl/f5KjivHDpQZtuqFSSfc8owaSvHtlV7FhKXi/QN3vjPXugRhHpCWFrEihZGaJRTdyZAosxVVRWO7ao6qR9tj9J2l9VKZLVTpMfi8vWR08pYmm+YNpyKWGyBwAABHZMp/0pvEhVHFvl2OTzFVl4oBn2S/Ft0yZu5b9Bz9OByDoqhBY5tdrooO7ml/8k3eg0cmVr8oPmung1M9AAsR06LDv7YkmhoRZdrLv2p/TYYM+I2DkGTf7a0McwG59qVlpKHAT8i4bHj2MzGBvnAkRt5muWkh+1QwZ9hlCAiN2ZvkgU+HDlW3s7dfIsbtDVQz1lAFo/rhlxinA9qdyXguGxcGsoCZNURl+PzMS4vabrBbV2YVoKeL0mUzzycv1ikavENXl5dcs85Gw3Gmov1po+rqioc21V1tf6TtGuyqXMlstop0mNxmWinlbE0dl4NflEFW48goGMy419UIA7p5JRjC8WgTzb0nTy4nIPCj4bK/DldjJ2ltb8VZbiHZqypgr8gYeCQtKqkkjGethOtMNWgAxbFYjF9vnWXK9V+O+E2DkE/XNakBqjWvLy5dkdcL5cI10LMX9FKzHr/TmlD0IjMK1uph6OsMjy1GBvUEVIOzLGORe1TbzmBmdEXuYRBgoLjCDguq45rrRtVh+uIXGM6eMd53ajeY0HVpyekahDOoO+gf3WSU02mdicVcdQwfZw25os71abajTu+GTTWKO3pXMIoHKkk0fnac6UScfM7proRraeoo/6ZBHRM5viX8iqnxQi6ekGY7EsNRg8u56DgkMU/YL07ScxiMGICVSkK5RCPFUMLXm0+61kFrJNMXP3tqANyYnE14KSpV2hQ++2k27hwVKHaJQpuoQ+onmu/I5WW6XCceXJmfclKp9gojBPEJe/kzfBZVAgd45h1kRpF7arR4q4jJN60EG6UHDo+PDlnLXMCM6MqcgmDBAXHEXBcduJAtgcxfUsjDuDYpF5BqKgsIDRI2ScC4bsPZmHH4RrxGRuJkUVV2+aEsearHf5+qVqwGuzVC2htHQmoaHz7eF9s3S7YZGi7kUrdz5Uf8zAxZt0l4hunEzv8Ar9titDqNgTqmIyPpdqFyFdz2fRCUdGpfHKqr/V4c3DZJnE4UlIcPPHSAH294nQZPY7C79KJb2biVQbzHQkJjc+0joVKsVlm560MU0zcUE+JvVXQVrnPwE7tt3aCtdvEFjKCzo/Wl7lpaTOgDhVXk2Kk5W/ahJPGRmKf4/qilDOz0w7Dnd59aJuFhdGoqB5SnwqDNfoAmR7UsaUIUgP+ybhilOl5Kp3AzCiHXMIgQcFxBByX1ce1Vi4tW/HNdJ/ymwh5DeH4O4pOb1Kk7fwVeBBJYsJDevSGUZJUVgF3sQi6xVv1w1PVaWwxsFZ1en/KWF7m5Nv96G23YtigKhVW74QttrC5pURZR2rw+wHTAyFxBMJEr8bzaQuU4f16pJeSz7STfvzOmKKP1TCwq+msDn96etDiVgTqmEz7VzKVPL4cXrQ/sFBM+ORoXz5wxg4ufRzxdAwfsC2hEkuJn0qUe2wyqrCOFjJUOrYeZvvLysBLwZyFN4qR46qVge2pvyzn0ut/Kr8lqmNuw3NKbzChlwrEV58KiC1tJLrQfmSu01TPXOFbZjZJHnSYoGQ0JpwDyyklFoXXJZciMifKqwuJhYCzxEuF9Pjwvx9XSKQn3nYCM6MtcgmDBAXHEXBc1h7XWr38CFgMfns6g4iFgBcL0U5980YSqx+j0a/+YCH14KNd6qZNe9PGxm8c0yuww0Ld05VceUoPqoa1sbK3SpxS2FIWUGtdZZn8plJIfYXhY1dBO9hJX4yFyUxDWPlRu/LeSftAvdulumRcqajnqwk3Gj2agIrJhiJS83N1I443UkWoxxtMHVzOQcEzWAkWB6zTZWqVibfAy2NTvXM0DEky+Ph2lfAOSbMyRFnyx7x0L0f/WFQtOb5FD8klwmRwyheiVndNDu5BZ9cE2EJUPwvqnFl4muNn5XB61uK0fvi3GsKJoGmFt0q5Mzs5tOeeyWPlmTLa4TjY/EEdIRnWtLa56Wk3nMDM6IpcwiBBwXEEWlx2tnZjx/lsYegAAiBwDwI6l7iHVTtZgVV1J9B2GPitZYKSTQm0BGbIJTadAgifR6DFZedJ9O+WmS0DHUAABG5GADHZ8glFKrGc3a894be/EkT/mQRaAjPkEjOhovmWBFpcdvb4OO3NRoYOIHB/AojJls4x3QRS7pFcKgf9lhCA3y6hhj4/EGgJzJBL/AAYXdcm0OKys8dELjEbGTqAwP0JICZbOMdIJRaCW6cb/HYdjpDSTKAlMEMu0YwTDbcn0OKy22uBEUAABO5PADHZ/ef4jhbCb+84q6e2qSUwQy5x6il8mnItLvs0JrAXBEBgCwKIybagCplbE4Dfbk0Y8hWBlsDs9c+iPxKN/yAAAiAAAiAAAiAAAiAAAjcmMJ4r4LqESsCweyQBOg6P1ABjgwAIPIMAvt99xjzfzUr47d1m9PT2tARmyCVOP41PUrDFZZ/EA7aCAAhsRQAx2VZkIXdLAvDbLelCtkOgJTBDLuGAQ9FRBFpc9ijdMC4IgMCdCCAmu9NsPscW+O1z5voklrYEZsglTjJZUCMQaHFZkAIBEACB3wkgJvudISTsTwB+uz/zh4/YEpghl3i4k5zL/BaXPZfG0AYEQOCaBBCTXXPenq41/PbpHrC7/S2BGXKJ3acFAw4TaHHZ4d6oAQEQAIFWAojJWkmh3ZkIwG/PNBuP0KUlMEMu8QhXuIqRLS57FVugJwiAwJkJICY78+xAtyEC8NshMijfiEBLYHbNXOLbv6Nx3ee7Ebv1xH77d0cz8ere/XpybympxWU3M/z7CRN1/jkSHvW+wAGw2XxBMAj8RAAx2U/40PkgAvDbg8A/d9iWwGzVXCIEORw3v7puu0CHor7X65Bcoo8hpzd4USvnDCnp4WQCod/44ei7rPSrrnv3GyWQx+USwyNTjfTz5GTdp+8/n9mHWOqd/NF8yIHsTFllbBuUgMBVCOiYzBwc4Ry21WpzFUjQ83QEtN+eTkEodDcCfmBWW7leLlG+fhcRSvmSl4PqUlIrMmuPF/3x0GeWyNi4SUluZAfnmpLjcIltO1+5J/RwXJb9qnuHP0pVBc5IWOz/QIm8aheB+cEAACAASURBVBUHlVo0aDg8MtUI+4abyjGHt/tP5Ej/Is2OyMaST06CPQlGGa8RykDgIgR0TJb8m48H/l5MHH0XMQxq3pqA9ttbGwvjzkDACcyMWmvlErQMv8q39d94J0YJzDiqLiVGl/YCHm3tVb5JSW5kBzdqccEFbpxph79lS+uyNhL/fjqB3tYv1o9maxUHlTo0aDhj5NhU2C9Hmrs9Y9i5otEeBE5PQMdk9nigEizfp5/KRymo/fZRxsPYIwjYwMxqsVYuMRxgpzG5wSqhWlriy/f/1rBFJU1KcqOGgG4rPRcZd4VOxmXt6V2ZEWejYSpUN293ciyv03RZg4YzRo5N17H3b8aw02aiBQhcjICOybzjgVb7Vc5aF6MDdc9KQPvtWfWEXrchYAIzx7K1cwkvvOfgm/Sh/yka4iqxVtOCXi5wRKXF46bhhnn/kQV5W314XEPe6Zqkvvu/b/8RD0PnBxhYE0dJhY1b2oCuUp2bCYHFyjFV1XCP2iVYwuQyb6IwbQ4SjhUFdmhOclRZ5Qn912vzNzpTPJB0T/kIw6CGyhh3ZGoTRZCrWWnCnlE91XC8Ozgs25XvL0v3PgllgoywG1STY9eHXSAvKL+6bvwuKtYMnyCwPQEdk3nHgyn7ltOHPslsrzFGAIH4i67AAAJ7EjCBmTP4WrlEjCtS2BzDePF8rI2BcqbAVTIoMo8203IuYvK8KcJ5lpTrwkZ5cRLL4HtgS7Mkw+svxAt03NLW5kFChsLNykh8qdypkaqKoR63SbAqs5mWCVJDmJqyyvCIZPwjr4tdhEu5uUSRGx7DyK8M4EmKOtCExicww1CUg4p5Jxmxc3zqIIkpLYY0rCz0M53UJA6RBEZpQQm295uOsik91XC8S91qULGO2bxCtBTojOQSXTGfc3QhMRGi+fm8O3l7GquBTxA4hEBLLkEOzB7NB4Z4eKsc7IfYgEGfR0D77fMIwOKdCTiBmdFgtVzCBs918MerMK/KpIlTWgXkoRW3eaULDdxAPJyR23TptRv80th8mUR00mLEyYCHqpVU0LiR6Jda8CC5xhQIcwZVVcM9atd1WfGtf4yiRZqavCMDJ1hxhuo5pJkoZbQv+/Fc6TZl36YkyRWEGCuXfFM0cSZUayeaxCFE79hU7FulQuf/v70zO3MdhMFo6nJBqSfVpJm83E5yPyQEaLFDMt79z8PExiCkg8BSvGRCYCN7tJa3i1sZZYJqXFT0C7Rt+scmCGxJwMZkfj5kD89rAB8vzp1UT+n9liag7wsSsH57QQQweV0CYWBmVJgxl6CVVb6a5L6bL3nzqtyUJE2CUl6wy5WLUqVdwsfqNHGfqWJ2iYLv3JcYXK3OrUJczXXiCrosDvq8StG4y7a3ytTLTb/mEjwwjbskwKaQdlNC3P7RXT9l5Mlfyh4NkhEiPq4r2eH0jUoN2wVrVW7NE7Wn9SzS9MZot7ZTaWbKzS7VYpliruy1txuKMHyCwLYEbEyWvbW8x4lXo7LajE6Xba1A71cjYP32avbD3tUJjAdmVZV5cwmW236PXHIHijvcT4EFpbxil1xCdoug1IcU5pBFdnMCoz5MFQlykhTfuS+ppMqWVGpF8UHRoxxxBUVzpWPeKc1KV5fbYBLjZr/kSZmSBtBoGHJUVmqQNB6JUha1srmEjLMfqtJdIMZ0JG5WmoS2+Ualmu2CqippHXoWaXpjtFvbqTQz5WaXa5nCcns53tUvFPG5EwI2JuP5UOe7cVnj2TsxAmpcjoD128sBgMFrE/gUmCV9lsglktyyLEvYQwsxconCpZ6xypagWttPdtRfj8uyJ0laEJ3gqUwqsHUmbI5ahblEuhPN/RVggRjT0Vq5xLSeRWG94XXNxwO76IgpN7vcOCpsLirByfUYYG87AjYmG50P4569nfLo+bIErN9eFgQMX4tAT2C2eC4hIR2FGKO5RBNh8IJerkuUqwdNlZKpSFksvOVspaZjvpUvaWXkbakkndcqrhNXEHVa22Orx2WZv/IrMxRUQ5fxSEgjmzYw+J46eog+dyRuprXRUiTzLtq1h20XpKSSZtRuG3/YHm1pOxU5ptzsUq1Rmene8nsa39BM6QGfILAaARuTTfhu0gnuu9rIoKMpAtZvp+riGAjMQKAnMJspl3je1fXg8uhzDRx4Ia4pAtvHq3d9irrs14q1yD40HdSRB5rTlRF6U6VEXSJF9lP3olINbqSkreUGYryS68QVSNhIFpebyLWqrsMLFViXTb9Lp97t6wJSRlyHsA5sUybjUIt4EJtxLjfm1TrcqqlDA5GuUsiIkBRdwevjS6R5+ZyoYrugqlGXuiz5f9WzdKQ3Rru1nUozU067dRamWlxkdVHtK2ApxicIbEHAxmSj8yErFzj365nf9rGF/ujzmgSs316TAqxekYANzKKuZ8sluDPzvw0bcuCRa0i0wcu3asYvmSxvYJL4ZLpOIIcaiAZyXPpNLEQjqdMUcWdt5QpPmimF6OtW14krSFKk0LSvaVft6nJbzKSaXVjl5yHzq1vbgcnDwe8uzUMpzahVfmdpatqMdKnCdVLH7HhNHfGQ4f6gd84++K2wtXfqu+7W0W2FVCnp7arqiBjKytD7V+/1j3JN2wVV1V0WTx7VU/oxn9xtoJHtVNqZctrlIRt5Je5jSG+V5Rf25lfqBt2JeHyCwJoEbEw2Oh9EKa6QlgqapbwawaEFDz7XIWD9dp1e0cuFCdjALEIxUy4hVwG4S4rL9NfJqe/nI79/X/+aQnk6k9+b/4q+2+yqk34AoP5OgLpQUgL4NgqTUEidDEaUbNiVE0oxljbSz+DZn8ZwBVkM3T8+pmrT1eU2A5fVrOxvlyRC8otq7Tfk6SHtDJivbNBgq5Gmn1jLY5ji3ex4uo76HTZx0DIsJrZO5TzkRkikYRFSGml/ypmP7YLkt16c5dBVuCKB7Wm7iLZDXVNF26k0NuWyq2ZnudqWGv2ilXSGTxBYloCNyUbnQ6OG8mh70bSph00QWIqA9dul+oFcEMgEgsDMsZkrl3CCUQAC3xPocdnvpaLFMgQkl1hGOqSCwLIEEJMtyxfSlyEAv12GK6SOEugJzJBLjOLDgfUJ9Ljs+lqhx5gAcomYC0qPQQAx2THGCVpqAvBbzQN7ixPoCcyQSyw+DOign0CPy/ZLQ81lCSCXWJYvpC9LADHZsnwhfRkC8NtluELqKIGewAy5xCg+HFifQI/Lrq8VeowJIJeIuaD0GAQQkx1jnKClJgC/1TywtziBnsAMucTiw4AO+gn0uGy/NNQEARAAgTECiMnGyKB8zwTgt3senVPq1hOYIZc45dAf1agelz2qbdAbBEBgTwQQk+1pNKBLLwH4bS8p1JuJQE9gdvv30x+Lxn8QAAEQAAEQAAEQAAEQAIETE5jOFXBdYqbEDWLmIMDzcA5JkAECIAACUwTw/e4UHRzbKwH47V5H5rR69QRmyCVOO/xHNKzHZY9oF3QGARDYGwHEZHsbEejTQwB+20MJdWYk0BOYIZeYEThE/ZVAj8v+tQ+0BwEQAIH3GzEZvOCIBOC3Rxy1Q+vcE5ghlzj0EJ9N+R6XPZvNsAcEQGALAojJtqCOPv9KAH77V4Jo/yWBnsAMucSXUFF9SQI9Lrtk/5ANAiBwFQKIya4y0ueyE357rvE8gDU9gRlyiQMM5HVU7HHZ69CApSAAAssRQEy2HFtIXo4A/HY5tpAcEugJzJBLhOhQuA2BHpfdRjP0CgIgcC4CiMnONZ5XsQZ+e5WR3o2dPYEZcondDBcUoachf1kon/fb7TY8Xl8g/KHJF9JRFQRAYO8Efllq9m4T9Ds/Afjt+cd4ZxYil9jZgECdTwTGXfb1et6HgY+nxGG4P54vSR5+SAx+aPJJ+e7jrwcbcn92NxmtyLI686ieyj11RrXBARA4DgEbk8m8NKvMcQyCppcgYP32EkbDyC0JjAdmVStcl6gssLU5gRGXLSf5YbjTX84qJBj/ITH4oclcdKhrslT075UcKP1V6O8q/1Vgr+KoBwL7I2Bjsjw98hpTvrroTNT3Zx80OicB67fntBJW7YjASGCmNEQuoXBgZ1sCocvm2Pv+lMsQrOPr+ZCSICT+ZMcPTT6J7DzOPd/v6drEl8nE7ErPLrCTAaqBwPYEbEzGuUQ7J7nk22m6vWXQ4MwErN+e2VbYtgsCYWBmNEMuYYBgd0sCgctSuPvhYYgfQuIfmswDhjq+P98+cPksf3alZxf42QbUAIGdELAxWTQlaYYgmdjJiEGNRMD6LaiAwMIEgsDM9YhcwiFBwXYEvMt2nctNSEy77deLbx+5S5PmMYxhCC590OUDUmsYHjM831B1iyKXTP71aLslragd45H/bKEY8n6/uY42PJfm+zRcZZFFn06gOEIDiR5VketBfPz1VOrOQUk6xicILEfAxmTRjHRlwdxcTkNIBgFPwPqtr4ESEJiVAMcJ0yKRS0zzwdFVCTiX5VP5pzuWmxA5qUu7OqR2IQHH3dQfP4SRn+tumnGV9JD385nC5eGTGh2oWtVGbBPN+LZtUit1/EpKpL2s0DMH9FQ9a+asFBiiuarcITBZlNWsHBI0ESgJTD06B6UOkKgCAn8lYGOy0elTrkuMzM2/KoL2IPAFAeu3XzRFVRD4hYALzAIhyCUCKCjaioBzWT55NwF+qFkbIkv4rNu4MCFHBTUmLlGxvFqWmrTHw66/K6Req2ZG7yQrR+6iBBU9n/mCSFCfEydR05mpD5s9fc1CLNGdeIn6Gs8SlEQTfILAkgRsTOZ9neZCeayJj8tcI81Shr+kipANAo6A9VtXAQUgMC8BF5gF4pFLBFBQtBUB57J8Mq/Rd6yYDn/7r0uosMDG8RI56Bt6IgVSQNH86UfEmwYjsUqrha/StHepQDqmbbft9VFT2TbmrlQTkpfu/Wr/nukOrKw1dziUx+BbdbENAnsmYGOy7MvlPU68Gg2y+ti5tWfToNuJCVi/PbGpMG0fBFxgFqiFXCKAgqKtCDiXlVB1ND4nTVX4myNkiQDYFBcHmCZcyxSWW6P51yzGoFAr1pz+655rq6wD3TIlqQc9F9EkE0aD2pi2oqOmTBtqDn6fS5CAxra6WZTupGRMwS4IbE3AxmQ8dxoXT3fu1ZXHTqat1Uf/FyVg/faiGGD2egR4UZzuD7nENB8cXZWAd1kOZsfC86ycOcvTrm6iQ2z3dX4sh0qbJ4tL+PwTExup1JhFvuMfU6t0Z+ykclvG3bCqDoStbPeTRFWWd/R1CbpGUZSijdkoabHYA4HlCNiYzC0Sums1MfQh7IHAegSs367XM3q6KAEfmHkQyCU8E5RsRiBwWTqDN9F2pJs5y5vd1MKFCUEdX6n29WI1dIJSD3dskQZBNqIF6z0rNlLal5US2lAql0NZst1PxarMcbMqqf2/U1LisAMCSxKwMdkHZ6eJUR7DXlIxyAaBCQLWbyeq4hAIzEEgCMycWOQSDgkKtiMQuSyf4W/ulvzX8yGvH1Xhb46G25N+FtEWcWCgchQuCsJ94kFHVWD+FabxOIW7FcmBEvVH+SIh1EArnYsed/dreLbyZ4FcQ8t/v9OVidB86kBsCWugEAR2QsDGZNFsaFUl51ZLxrvOzbYitkFgQQLWbxfsCqJBIBGIAjNLBrmEJYL9DQnELsvn+HSMX996vw/8BlcJceMQOb0+9Z7rDtSiCXJTEy7MQrVEvpJBz0mkRxvyDyg07b+ExGFI3F4fK8Y274QtSRBXJbvSr2EkJahIQGStcjWXSvjKHQJLlQe/HJdZ5B6TtvNR+hIqqoPAXwjYmOxTLpEvXNJ7mWlloeUqntR/0QttQWCKgPXbqbo4BgIzEIgDMy0YuYTmgb1NCYy7rPq5NEoqHs/y3biPp1/PR843Uqj7fHEU3Zz2U5MUD5cnh+mHG9ov23WP+jHMbyFxPN50rwTYo6pn8wt69A4lwpSjeW+7JBjlXUu1s6Byj0ClEP3ARQE1cah2iy0Q2CEBG5N9zCXSzZJP+SKDv9pons3eoYVQ6YwErN+e0UbYtCsC44FZVRO5RGWBrc0J9Ljs5kpCARAAgRMQQEx2gkG8oAnw2wsO+rYm9wRmyCW2HSP0rgj0uKxqgB0QAAEQ+IkAYrKfsKHRxgTgtxsPwPW67wnMkEtczy92bHGPy+5YfagGAiBwGAKIyQ4zVFC0IQC/bWBgcw0CPYEZcok1RgJ9dBLocdlOUagGAiAAAhMEEJNNwMGh3RKA3+52aM6qWE9ghlzirKN/SLt6XPaQhkFpEACBnRFATLazAYE6XQTgt12YUGk+Aj2BGXKJ+XhD0p8J9LjsnzuBABAAARBIL00HBRA4HAH47eGG7OgK9wRmt38//bFo/AcBEAABEAABEAABEAABEDgxgelc4ccvZpjX0ZMt6L83AvCrvY0I9AGBsxLA97tnHdlz2wW/Pff47tC6nsAMucQOB+66KvW47HXpwHIQAIH5CCAmm48lJK1HAH67Hmv0RAR6AjPkEnCWHRHocdkdqQtVQAAEDksAMdlhh+7SisNvLz38WxjfE5ghl9hiZNDnCIEelx1pimIQAAEQ+IIAYrIvYKHqbgjAb3czFFdRpCcwQy5xFW84hJ09LnsIQ6AkCIDAzgkgJtv5AEG9kAD8NsSCwuUI9ARmyCWW4w/JXxPocdmvhaIBCIAACDgCiMkcEhQcgAD89gCDdC4VewIz5BLnGvODW9Pjsgc3EeqDAAjsggBisl0MA5T4kgD89ktgqP5XAj2BGXKJv1JG+xkJ9LjsjN1pUa/HcLvd7k9dij0QAIFTEkBMdsphPb1R8NvTD/HeDOwJzJBL7G3ULq1P7LKv531IYX76G4b787UMo+1yifGex4+MMuAmw2MhSqP94gAIHIuAjcl45uSFJi82j6VWm2OhgrY7ImD9dkeqQZVzEuBFcdo25BLTfHB0VQKByz7vnEYM9/SXt2ug/LynBKPu/0HdH+L2nt46NBzvefzIaNfcZB4ko53gAAgcnoCNyfLM4ZXmXr6/wFQ6/EifywDrt+eyDtbskEAQmDktkUs4JCjYjoB3WR+Jvx5Dc3b3x3/W/oe4vaevDg3Hex4/0tM16oAACIwSsDGZn2xcgvseRxHiwAYErN9uoAK6vBYBH5h5+5FLeCYo2YyAc1l/eje6dUTqpsXo7se+RltOHujQcLzn8SOTfeIgCIDAJwI2JosmG81eJBOfUOL4igSs367YNbq6JgEXmAUYkEsEUFC0FQHnsnx6j8/lfJrnJvk/PzhNB/Qz1FGY8Ho+8j1Tt1t6CiOq826f1XAPa0hHqVLWYLg391uNamj4hj1THXvkU4+pEdVpLt283+/W1OiZkx6xRmfsgsDBCdiYzE62ZJ4re9VFw60HB+cB9Y9BwPrtMbSGlgcm4AKzwBbkEgEUFG1FIHBZiceDZ65fz+eT3r003B9P+uPnjSUybqxwIQFH3OlZC3oMQ1IB/R4nbjVk8TmIaKJ01o2eCx+SnPyEeK0xpmGjWdr02kkFe+Rjj0EuwTIohWhsHdpkq0esqIRPEDgHARuT2cmWrOSZIXOF9/Kiwd8f1Ml+DiiwYvcErN/uXmEoeHQCQWDmTEIu4ZCgYDsCocs23/rfUlivXlBEZ3dzPqcyOf2zMTZM4P22nUTctZ1t44P+HFo0Yrzc6DKBBRz0lKvYIz09aiQsQV/ZYSmN2j1irdLYB4FjE7AxmZ1skknI5OHjzbRJF/yeeIf0sb3geNpbvz2eBdD4YATCwMzYgFzCAMHulgTGXba9S6f9Sl0Hzqw7ldWcIBWaMMHscjNTSLt079Or/tHNTCWaCDo3QuSbzdIkpOsbSTV7pKdHVccKaE2tSqkmbRVNUbTCJwicgICNyXiu0BXG+s64dPsj2xpPpRNwgAnHImD99ljaQ9sDEhgPzKoxyCUqC2xtTuCTy774nqbmTqQgCuYrARIBsE0mDoha2XyD6rBC5n+JwQMxpqPNc4lAxUSEjSuMglrekM29AwqAwJwEbEzGLl8nO93cWK+CBpNkTm0gCwT6CFi/7WuFWiDwM4FPgVkSjFziZ7xoOD+BHpfVYXB0gqeyEieTliYyjlqFucTweNaLErJV7A7EmI4kbC/pR2nbbvhGctQe6elR1VE7IhW5RCWBrcsSsDGZnWwGzMhUMrWwCwILE7B+u3B3EA8CPYEZcgn4yY4I9LgsndLlFubwaYTgpG/CBLPLBEyh2Y0ofe6oL5ewlwlKX06Hnh5VHSeBZHNpTXBUk5BGUQkbIHASAjYmi+dKMZYmSVl4SjE2QGBdAtZv1+0dvV2QQE9ghlzigo6xX5Oty6bfpburh61f5owenf9NFXlaorkzKgfvNZimd79S7/V6hg24GVu6OCEAu0LwSEMRUD5Z5ZuxlV5SpaKXnh51HZbcWJoeGE0/Ft7+WrhuQlp1qV30xwYIHI6Ajck+ubybNvSyZbU8HY4BFD4eAeu3x7MAGh+MgA3MIvWRS0RUULYRAeuyfHaXN7fe5Vcc2siYT/D0ateUd5Di0qy+73Wg17XWPCHf0CQvSqVXwro6OeNIL4+id84++K2wtfe+EDzS0PMtP1FBSldTG53jixwuArJa5f7T2/DbR0qb38GIru44sV5llIDAkQnYmOyjy8u6wi+SzquRnqBH5gHdj0HA+u0xtIaWByZgA7PIFOQSERWUbUQgcFl6gVP5+Qe6TFGuC7CWJQpvvmlPD2nnRnxlgwJqfdpv3jXLr5oN6ujfqrOvpLVRu39h1LiGAeH2XVWU5Zj33/6YS5BW8tsXKS9zL9ZFLhGMBorOTsDGZB9ziTSTnnom4arE2b1kf/ZZv92fhtDoZASCwMxZiFzCIUHBdgR6XHY77dAzCIDAeQggJjvPWF7JEvjtlUZ7F7b2BGbIJXYxVFCCCfS4LFiBAAiAwN8JICb7O0NIWJ8A/HZ95hfvsScwQy5xcSfZl/k9LrsvjaENCIDAMQkgJjvmuF1da/jt1T1gdft7AjPkEqsPCzocJ9DjsuOtcQQEQAAEegkgJuslhXp7IgC/3dNoXEKXnsAMucQlXOEoRva47FFsgZ4gAAJ7JoCYbM+jA93GCMBvx8igfCECPYEZcomF4EPsLwR6XPYXuWgDAiAAApoAYjLNA3vHIAC/PcY4nUjLnsDs9u+nPxaN/yAAAiAAAiAAAiAAAiAAAicmMJ0r4LrEiZLH45vC8/D4dsACEACBvRPA97t7HyHoFxGA30ZUULYggZ7ADLnEggMA0d8S6HHZb2WiPgiAAAh4AojJPBOU7J8A/Hb/Y3QyDXsCM+QSJxv0Y5vT47LHthDagwAI7IMAYrJ9jAO0+I4A/PY7Xqj9ZwI9gRlyiT9jhoD5CPS47Hy9QRIIgMB1CSAmu+7YH9ly+O2RR++QuvcEZsglDjm0Z1W6x2XPajvsAgEQWJMAYrI1aaOvuQjAb+ciCTmdBHoCM+QSnTBRbQ0CPS67hh7oAwRA4OwEEJOdfYTPaR/89pzjumOregIz5BI7HsDrqdbjstejAotBAATmJ4CYbH6mkLg8Afjt8ozRgyLQE5ghl1DIsLMtgR6X3VZD9A4CIHAOAojJzjGOV7MCfnu1Ed/c3p7ADLnE5sMEBSqB2GVfz/sw8KHbMNyfr9oAWyAAAiDwE4HxmOz14PXm/vxJMBqBwIIExv12wU4h+soE4sBME0EuoXlgb1MCgcs+73xaH+7pL28/Vksnnvfb7Tas19+m+NE5CFyIwGhMRpOe1iIkExfyh6OYOuq3RzEAeh6NQBCYOROQSzgkKNiOgHdZH8u/HsOKsb3vfzs66BkEQGA+AmMxGc95/uICycR8vCFpHgJjfjuPdEgBAUfAB2auyhu5hGeCks0IOJflmw02PKEjl9jMGdAxCCxKYCQmoyl/f743X3sWNR7CD0tgxG8Paw8U3z0BF5gFGiOXCKCgaCsCzmXzjcujyUQ676erFOqRiuCJitfzke+PSl34hy4kfih3VD2ebypjjeR/1kNJG4YH7qreymHQLwj8TCCOyWQpeI8lEz1rTk+dn/VGw2sTiP322kxg/aIEXGAW9IZcIoCCoq0IBC4rEX38zDWdswd6MnugJyryM9oq+ZAnKbmGPMc9tHWkF8oz7nfOD17P55Mewhzujyf90WMaXDeXPe7DmrdcbTUw6BcETkcgjMlodst3Bjz7zdNSPWtOT53T8YRB6xAI/XadrtHLNQkEgZkDgVzCIUHBdgRCl03XHPjA7ZYi+Pa5a47r1cPRXFQfqYgubdg6cg2ithIGVFMVkzxVInXxCQIgcBwCUUxG871+y+Cn/ztaK3rWE1fnOKCg6a4IRH67KwWhzNkIhIGZMRK5hAGC3S0JjLtse1tRc0UhOtdz8iDRPu/V6IDN03VyfCBNWgK+A2mqcpq2CbZBAAQOQMDHZH6x8POfcwmzVsiiIN9zBM3yLVOm4QEwQcWdEfB+uzMFoc7ZCIwHZtVS5BKVBbY2J/DJZV98z9HtJrlBdM7WJ/uwhny5KGJ0kxZD1Pwlz14M9jJJ2xLbIAACeybgYrKcSuQbGvm2RromqhKAaEmwC0hPnT2jgW47JuD8dse6QrVTEPgUmCUjkUucYqjPYkSPy9JpWpKJz+fssMbfcgmi3VwoUZHGWYYCdoDAyQnYmIxTCV6DzP92iocriik0uwwyLDw5Y5g3PwHrt/P3AIkgoAj0BGbIJRQy7GxLoMdl6Yw8lUvoGxX0npjHpTVCGD3Njx5gSS+ljUjHJwiAwO4JmJiM1oS6JBT17RSPlgS7yvTUKR1gAwS+IWD89pumqAsCvxDoCcyQS/xCFm0WImBdNv0unX7Dqwne+Tw/+ew1V1ExQhbSlEXnfrLRBgnOcGpZ7pVyh1EAAiCwTwI6Jhuf6byClDnOu5NrDt/yxK+rFtu5WbPmyAF8gsBXBLTfftUUlUHgFwI2MItkIJeIqKBsIwLWZfn8nn4R7ZYYAQAAIABJREFU4k5/+X1O9YScz+upHb3xld4Oq8/hcj9TrsE/Z5vqt696JDmqRAhI5HBPb4rNv2BFz0mk26nzgxMlzJBG+AQBENg7ARWT8TyPZ7I+lleEyTWnp87e8UC/nRJQfrtTHaHWqQjYwCwyDrlERAVlGxEIXJaeS6jvhE2XKeRlKe/6/qXyOHRKO4I3LKXjrRD9ZtkqJ7K7vpKWko32Z/H8S2ojASgDARDYH4E2JtPpgtVVHaWd4fGaWnN66thOsA8CXQRav+1qgEog8DcCQWDmBCKXcEhQsB2BHpdV2sk5WxViBwRAAAQ+EfgxJutZc3rqfFIPx0EgJPCj34ayUAgCHQR6AjPkEh0gUWUtAj0uq3TBOVvhwA4IgEAvgR9jsp41p6dOr5qoBwKKwI9+q2RgBwS+INATmCGX+AIoqi5NoMdllQ44Zysc2AEBEOgl8GNM1rPm9NTpVRP1QEAR+NFvlQzsgMAXBHoCM+QSXwBF1aUJ9Lis0gHnbIUDOyAAAr0EfozJetacnjq9aqIeCCgCP/qtkoEdEPiCQE9ghlziC6CoujSBHpddWgfIBwEQuAIBxGRXGOXz2Qi/Pd+Y7tyinsAMucTOB/Fa6vW47LWIwFoQAIFlCCAmW4YrpC5LAH67LF9IdwR6ArPbv5/+WDT+gwAIgAAIgAAIgAAIgAAInJjAdK6A6xIuBUPBdgR4Hm7XP3oGARC4CgF8v3uVkT6XnfDbc43nAazpCcyQSxxgIK+jYo/LXocGLAUBEFiOAGKy5dhC8nIE4LfLsYXkkEBPYIZcIkSHwm0I9LjsNpqhVxAAgXMRQEx2rvG8ijXw26uM9G7s7AnMkEvsZrigyPvd47LgBAIgAAJ/J4CY7O8MIWF9AvDb9ZlfvMeewAy5xMWdZF/m97jsvjSGNiAAAsckgJjsmON2da3ht1f3gNXt7wnMkEusPizocJxAj8uOt8YREAABEOglgJislxTq7YkA/HZPo3EJXXoCM+QSl3CFoxjZ47JHsQV6ggAI7JkAYrI9jw50GyMAvx0jg/KFCPQEZsglFoIPsb8Q6HHZX+T+0OZ5v91uw+P1Q9Otm7wew+12uz+31gP9g8CeCSAm2/PoQLcxAvDbMTIoX4hAT2CGXGIh+BD7CwHrshTQB1ExlweR/nwZwHySKojX8z6kMD/9DcP9uVCiglyiIscWCIwRsDEZz5s8P/McfSw1SceUQjkIfCBg/fZDdRwGgb8S4EVxWgpyiWk+OLoqAeeycUQvJ3331fuMUXTc8x9oPO+cRgz39Je363WPGfubkcIf7EVTENg3ARuT8bwZeILeS9offGWxb7ug3bkJWL89t7WwbgcEXGAW6IRcIoCCoq0IOJfNp/cacifNuDDVNcnEnEH0jLE90fTyXo+hCVP88Z8HYU4MPyuBhiCwcwI2JvPzJq80ZpnZuVlQ7+QErN+e3FyYtz0BF5gFKiGXCKCgaCsC3mX5bN7E3O/3O4Xdw0B3C6mzvI8F/mDHjLF90uKjbjP297GvP2BBUxA4CwEbk0Xzhqal/c7iLABgxyEJWL89pBFQ+kgEfGDmtUcu4ZmgZDMCgcv6Ezyd3u9PH3z7khTEPx/5hqIk3D+lkKW9yy1ID35m2QhLjzrQhZAfn3FgM+KghLpi0+U/50iiWzMeHoc2MT2FoeqwcJVz5XTsoE+WNzCwCQJ/IGBjMjVvslxX9mqWE7+a/EEbNAWBPgLWb/taoRYI/EwgCMycLOQSDgkKtiMQuaw9m5cAmzaaKxZ2v1wNoBSCHlKQJxaaVxxxrJ06phulhyHKJbhS09cPiKSj4Jnr1/P5pHcvDffHk/44Y6EmOg2wNPgqDanfWJj2pZ1vkdv8zZwfCKAJCOyJgI3JRmdKmUt1DpdnnjCL9jSkl9DF+u0ljIaRWxKIAjOrD3IJSwT7GxIIXZZP4Co05hM4HSjncooEyl4ygmODEgiQXSysqZbDg6aE7a/C+YqEq/A9pnxtg4xMWYO6xFH7q4KpTAznYhvv8H6rXLa6mm2bIJWohLF1YQI2JhuZKCUt93Ptnb4FuDBBmL4FAeu3W+iAPi9FIAzMDAHkEgYIdrckELtsG2bT+TyHzurc3x5gE9ThYhWX1uC7FV4q1buA8vUC/fB3W49uo+KLCfm/ShFMVXdDUjke6fE5lwhttIW9JhddsAECFyBgY7I8T8p7nHg1GiSZt9PqAoRg4h4JWL/do47Q6VQE4sBMm4hcQvPA3qYERly2ibNVeN2c3ZtNsaBpJUXpk4rrt/YjtXI1VkiiiVZM3WaBXDP9n67N7V6cozSVIz2oTIszdkatgue8VTW1U83AFghci4CNyXhu1Yk86IuHmDfXco/dWmv9dreKQrGzEOBFcdoa5BLTfHB0VQJjLkun8RRUlw1Wq0bW5kA6PHLup+Ia8I/UktY55tcB/TxMtCKRHlSmu64WkxJRqyCXEGvSJZNA6Dz2QAoIHIqAjcnM3LK2hHPNVsI+CCxNwPrt0v1B/uUJjAVmLRjkEi0NbG9MYMxl5SxPn21wLef3KECWRtomLu2+x+klFzJqCy3v9z3SuSQ1YkkrLygzRpldbhwVFlG00SJsO8Q2CFyHgI3JonnT0KCZU+ZrcwCbILAmAeu3a/aNvi5JYCwwa2Egl2hpYHtjAqMum0/z6b2sOqjnGJl+R9oFyHzyV/VfrowF+Och2nLu/S9hRPpdurt62DprUpSOAhlWtlQpT5M3mjh7ygPeTbM0qmzP/X7vvAtrY09A9yCwNAEbk0VTsNXBzTV6+knN6rY6tkFgEQLWbxfpBEJBoBIYDcxqlTdyiQYGNrcmMO6yOZy3qYRcNUivdPX5AAfQ8rpXSjhSD6omx9i+rS7P3auW38Cq6qeXSYaacKRyS09+pryDpEszehyUfpzP/URfqcJ1yD7/M371rVZIJb4ZN9Q9MQEbk/FUMjl4a7/MNZqkMokn6rdtsQ0CMxGwfjuTWIgBgTEC44FZbYFcorLA1uYEJlw2h9rNV/JZW4nBfTpAFdJvS/HPSnBOYV7F2j5JoMzXuQR9sZ/E/JxN8I/mtZo8X+aNT/JzeW0v6SHt3IivbJBeOn4plyJuN35aNKhTk4nfLVB8sAMCBydgY7KPuQS9s00vJ7gqcXAnOKD61m8PaAJUPhaBicCsGIJcoqDAxvYEelx2ey2PqoFLj45qCPQGgRkIICabASJErE4Afrs68qt32BOYIZe4upfsyv4el92VwkdSBqnEkUYLui5OADHZ4ojRwQIE4LcLQIXIKQI9gRlyiSmCOLYygR6XXVmls3THN3DgBqezjCfs+DMBxGR/RggBGxCA324A/dpd9gRmyCWu7SM7s77HZXem8kHUQSpxkIGCmqsRQEy2Gmp0NCMB+O2MMCGqh0BPYIZcoock6qxEoMdlV1IF3YAACJyaAGKyUw/vaY2D3552aPdqWE9ghlxir6N3Sb16XPaSYGA0CIDAzAQQk80MFOJWIQC/XQUzOqkEegKz27+f/lg0/oMACIAACIAACIAACIAACJyYwHSugOsSNffC1uYEeB5urgYUAAEQOD0BfL97+iE+pYHw21MO656N6gnMkEvseQQvp1uPy14OCgwGARBYgABisgWgQuTiBOC3iyNGB5pAT2CGXEIzw96mBHpcdlMF0TkIgMBJCCAmO8lAXswM+O3FBnx7c3sCM+QS248TNCgEely2VMYGCIAACPxMADHZz+jQcEMC8NsN4V+z657ADLnENX1jp1b3uOxOVYdaIAAChyKAmOxQwwVlMwH4LVxhZQI9gRlyiZUHBd1NEehx2an2OAYCIAACfQQQk/VxQq19EYDf7ms8LqBNT2CGXOICjnAcE3tc9jjWQFMQAIH9EkBMtt+xgWbjBOC342xwZBECPYEZcolF0EPobwR6XPY3ybto9bzfbrfh8dqFMlACBK5NADHZtcf/qNbDb486cofVuycwQy5x2OE9o+LjLvt6Pe/DwMdTQD7cH8/X0YJynUu8HskepBZndGTYdAACiMkOMEhQ0RGA3zokKFiWwHhgVvtFLlFZYGtzAiMuy1E3pxD39Jezivtzc42/UgC5xFe4UBkEliSAmGxJupC9FAH47VJkIXeEwEhgpmojl1A4sLMtgdBlKQK/3e5PfRni9XyYkm117+hd5xIdDVAFBEBgKQKIyZYiC7lLEoDfLkkXsgMCYWBm6iGXMECwuyWBwGU5kzjHnUDIJbZ0LvQNAooAYjKFAzsHIQC/PchAnUfNIDBzxiGXcEhQsB0B77KcSnTczPR6Pu7qeQpz0YIEaTl861RTJnXSsxmsym2420elVUfD8ND3WanHOoZBX0wxuUS0e3++J3t/v1+tnVnLW2PEdqOHnkHgSAQQkx1ptKCrEIDfCgl8rkTAB2a+Y+QSnglKNiPgXLbz+WR5oGIY2scphjbCljyhsS3OJW70MAZJyo9ltBdFSEzKMJ7PZ8pehvZg1rYeTfY0FaLkoR7OoumB7GRH0Pu77T7nFNSbvv2rsRGbIAACMQHEZDEXlO6bAPx23+NzQu1cYBbYiFwigIKirQg4l+XYuc0JAtVyJqFq5aC7XlSgAlXlPZJLtNF/zg6KGNqv4b9SxolL1xBSZlB6JR1q62hX5R62d04lirgsvwpU6mAHBEBgigBisik6OLZXAvDbvY7MafVygVlgKXKJAAqKtiLgXJZTgiZ6DjQzAXuuYePw7lxCh+ZGuEg1N1ClPulQuqmp/aObpYrEKHkoBzlRqLtFZs1FuIuS2LzfLrkI8KAIBEAgIoCYLKKCsr0TgN/ufYROp58LzAILkUsEUFC0FQHnshK7T93DYyJ00d2kIfPkEs3jCvwTF9JbDuvZAPO/5AdG0+ndJJnNr6mUNcJIqMpgCwRA4AMBxGQfAOHwLgnAb3c5LGdWygVmgbHIJQIoKNqKgHdZipbrN/ORYiMBtWlJuzUqT4JspN5xZSD33zx/bRMFfV2CrlEUpY2m07vjGubHNeR5ifY6RekKGyAAAtMEEJNN88HRfRKA3+5zXE6slQ/MvLHIJTwTlGxGIHBZTglKxB6o5lICqmOvaJjAPdVxDXvqNAq8WLecoDhpTc28aeRP7wYaUhfDvb5kyrwnyveIEhAAgRECiMlGwKB41wTgt7senjMqFwRmzkzkEg4JCrYjELksx+i3wf4y3ev5yO9j5ZBepRs5zG/KVNyfLMxy22seJrivtfT1jMqHGshBFth0SfXSlQlpYORP7wa9pwbq5VQiGJ8gAALfEkBM9i0x1N8DAfjtHkbhUjpEgZkFgFzCEsH+hgRil5Wo/3bL73x1r0ulqDy9fzW/E5bl6LBepFCV/N5X9Zal/MhD1KpNF+g5ifxG2NSPHJMnoVO4/+BXxvJdSFXgdPJgjqZhYJ1LD2ICm0f22qc2Nhw8dA0ChyKAmOxQwwVlMwH4LVxhZQJxYKaVQC6heWBvUwLjLqt+A46ShsezfuFPYbdkGJxT2MsYqcrzkX+zISUdz5d7C1JHNP9seqHnFspFBwan9Uy//dBUMPKnd5M8k0vwfv75Cvp9i3y7U8k2Nh09dA4CRyKAmOxIowVdhQD8VkjgcyUC44FZVQC5RGWBrc0J9Ljs5kpupoDJPVgPm25sph06BoFjEUBMdqzxgrZMAH4LT1iZQE9ghlxi5UFBd1MEelx2qv2pj8VZQ5hgnJoDjAOBWQggJpsFI4SsTAB+uzJwdNcTmCGXgJ/siECPy+5I3ZVVyY9LlAc2no98wxVucVp5JNDdGQggJjvDKF7PBvjt9cZ8Y4t7AjPkEhsPErpvCfS4bFv/ctv6cQx6bqR9IONyPGAwCPxMADHZz+jQcEMC8NsN4V+z657ADLnENX1jp1b3uOxOVYdaIAAChyKAmOxQwwVlMwH4LVxhZQI9gRlyiZUHBd1NEehx2an2OAYCIAACfQQQk/VxQq19EYDf7ms8LqBNT2B2+/fTH4vGfxAAARAAARAAARAAARAAgRMTmM4VcF3iAknlcUzkeXgcfaEpCIDAUQng+92jjty19YbfXnv8N7C+JzBDLrHBwKDLMQI9LjvWFuUgAAIg0E8AMVk/K9TcDwH47X7G4iKa9ARmyCUu4gzHMLPHZY9hCbQEARDYNwHEZPseH2gXE4DfxlxQuhiBnsAMucRi+CH4ewI9Lvu9VLQAARAAAUsAMZklgv0jEIDfHmGUTqVjT2CGXOJUQ350Y3pc9ug2Qn8QAIE9EEBMtodRgA7fEoDffksM9f9IoCcwQy7xR8hoPieBHpedsz/IAgEQuCoBxGRXHflj2w2/Pfb4HVD7nsAMucQBB/a8Kve47Hmth2UgAALrEUBMth5r9DQfAfjtfCwhqYtAT2CGXOL9fr8eA7EaHq8usKi0FIEel12q75/lPu+32w2+8zM/NASBTQggJtsEOzr9IwH47R8Bovm3BHoCs/lyCYqouMvyfxjuj+dLB+g1cH9+a1BX/R/k1yakat1dRsMuM65ZKXBZGY3iVLeB3coS4op/jOl/EaJziV8kWFOW2WfN7nDqZfBC6tEI2JiMJ0hdaG7xQnM0M6HvyQhYvz2ZeTBnfwSCwMwpOVsu4dbhdkm+N1/4l5zjj1GfMyUX/CBfdM8a/SBhTBmUf0cgcFkenGG4yx9fQ/KXAnLFxtW+65tq/yIEucQPoNEEBLYmYGMys9QMeaVZ6ES1tfXo/6gErN8e1Q7ofRgCQWDmdJ8/l6jfe75ez3sJ/EoxL9jL3RTyg3zTxOw6ZihYjEDgsjwaxX2o69cz35WmixdTa1qwziWm6255NCK5pT7oGwQ2JWBjMj9B8qlgF8vMpqjQ+Y4IWL/dkWpQ5ZwEgsDMGbpkLkGd5dV4udzBmfR9geiIL6C+Zzdvi8Bl/Qmeu8xXj3ZwmkcuMa8TQBoIrELAxmTRUsPLzA5WmVWIoJMjELB+ewSdoeOhCQSBmbNn8Vzi/c5BnzydGgXur+fjLleU002qT3nEgg6wHTd1IBkSt7Ly8/79yfWzMHqQQ2iYJmZXHs32EkTLIudZrXDaSiV8ThAIXJZHIziZ14HNAm1Mb5znoR8UeD3qRbPG5YyQtJtSzHSJTa6xNf5JPQdNxNnf2f3Jd0p/Q3vPH4mgS3gi/3ZzFaiL+/MtF/qGR9pOtCwYo0zLOiA5gWj8kCjTyA5Ep/lZmfnpMC6/kYtNEFiOgI3JIi92ZSPrxnJaQjIIaALWb/VR7IHA7ASCwMz1sUIuwatxub9ddstFACnIUT598EGOltryGqONtpIDIj/vDyUUrPIkDjNNzK7kEjcvQfpIWANlU1CoA1jHHwWKAI+NKuLRiDjykToGOozm8Ug54/NJqWqtWAeLn8KgID4f1kJoVAf2HX5kIwf8rT5Bk+qn2S/Id0hC9qJWm2xI1TVhaCs0zpVlpMQoImN0mSY5gWjiECvTAohU+WDTlHylNHZAYCkCNiYbnVAlY2e3Tet6+mvXjaV0hFwQsASs39rj2AeBmQkEgZnrYYVcogRCHB3xgl1jJVmeb3I1gr7OTF8Fmze1vtI3QhJhjbbyzbKYGp69HvSNblvAEWIW7jquErKOUqMGfKLP8OBrKq9aYK9euDFAQSEQuCyz1qFrrk+MxSNygiC71Ex2inzeYJHq4Ov55KwvklmdNbXnkW1aR03qYa5ePUUC71ojfYOvX3ZmJEqfrZCkiUfjGraW2+oTiCYOZWX0gISiSwRGSqgqk/JbnbENAosRsDGZclHqNU/e7Ox8vJ2477JuLKYkBIOAIWD91hzGLgjMTSAIzFwXm+cSebXWcQerKYfsPSUlnvN3eJQAq4Z/fAKo+0m2lOVeZTefJcxuqd2eRES3fJYxu20fbSuHHwWaQOCyPBo6dOVGfKTypUGQXTlYbperHY1LFM8SISY/ySJEtCSJql/XxBxNMiYVCCsEQmq9aW2z0kG3YscoIkmMqwjaImX0gBiLaDdN2/aP7s/Kuk50bTrDLggsRcDGZNkr5ZVx+RJkubZsnHwprSAXBKYJWL+dro2jIPBnAkFg5mSukEvwElxu7ZZdjir0nlFPDrIhzSMOcqBGUbWlPWb3qSaFQ+XChKlidjtyCWnBiur/kY5VW2wpAoHLMlsdunIbe8QE3OXGZvuWeFNPKcBXHeqYhXVN4Ve7qTerOGnwej0fD/Xe28Zm00VVWR1QO7WObPluRxElHfPjHZZez3UJUkRPg7xXyE7IF33xCQKLErAxGU+Q6rfG9T9Mr0VVhXAQKASs35YD2ACBZQgEgZnraIVcQgKLHEbIgs27es+p9zYPpea7PKZa2WN2n/rQOpkqZhe5hB+WpUoCl+XRaOJq6ZsPlODUXRCges0TvqXmZExgDppd7tsUfrWbJDiT5JHqGsakrcZm04Ug0NdRqFLTqKlFm65brhAhyk3jQ0E/RnRWV1+XoGsUWqdYvq6DPRBYiICNyYwX217HJ6GtiX0QWJCA9dsFu4JoEEgEgsDMgVk8l+D1uVwCkEBK7jkqhydioKR0ef6AIqypVnJMQke7T9LkCQju1VQxux25RHkk5IMVDj8KNIHAZXk0PFgul1FOYsbP9dl7shCq10bqrQ5GiNmlmlYjU2d6N0kwArIl8ryQrzBlWrWa+vWcqnGm23qAdKLmIRVNL1TGiDa7uie3Z+W7CigAgSUI2Jjsg9uOz5AllINMEBghYP12pBqKQWAuAkFg5kQvmUt0/VYdr9/8NSzfgN48ez16W9N4Kxf516ry6GotyZGXFOTA1Ow6iQkin1fKd8fS5NbcYs6XVNpg19FHgSEQuCyjNTGy8FbFNCYjvOmY1ObBUzVfz/zQvBHCVcVzSFvXOmpShZujSYQxydfg6xSirrhblamocfP7Pb1QoGmi6tCO6dZWIDmxAH2I9tqu/GhwiVU4XZmwvdK+lh9WQSEIzE3AxmQfJkhe9JVXl3Vjbt0gDwTGCFi/HauHchCYiUAQmDnJ8+cS3Kv6rx6elsCjLMnRDR7poFTUoh45GhlrVZqJ/FAMyZQatom0kON2P0HkeKoJ3qSS0vZTdOeG4+oFTE9RYLD8Qtb6JsZ0ocv+SgONSR601Ipud85vhE2Ca5xcBqt5t2M+3Appxjn1lyoHb3StVwZY70iCuBLX4O6rOuxM/ErYhzyn0Opru1CAivuqFroK7ZluJxBNHEqSWFB+M2Z+2216ULVaVCbIcH/wS3nZrK7RCVRHEQjMT8DGZGaC+A7F8dt3wiqv901QAgJzE7B+O7d8yAMBQyAIzEyN93u2XKJE100wPZiH16h3WY/b8GrkV61UcfRrVxLacaSX38ZqXyVb9p/PRw4F6Ycf6lekRiWzW0MnyWOaGLMNn+ju7/zyD9Yof9ftqKNghEDgsjIa1a/Yq+rwiSwVxBvfuduhUMenf6suXZUojwob10l9q34/7aYGbJJynZpBpN8k4bt+mgqmC7E4f2ZE7YwyNWjXdqsQpNSsvtBp4hCLqlOJ2ZGCjcKp1oSQiUOR5igDgQUI2JjMTpCoS+W5zboR1UUZCCxBwPrtEn1AJgg0BILArDnKm/PlEk70TgpyoKVuU9mJalDDEuhxWdtm0f3pIH7Rrr8QfgwtvzAIVUFgeQKIyZZnjB7mJwC/nZ8pJE4S6AnMkEtMIsTBdQn0uOyqGh0iSj+EkqsOGzoDgc8EEJN9ZoQa+yMAv93fmJxco57ADLnEyZ3gWOb1uOyqFh0gTOcLb59ucFqVGjoDgQMQQEx2gEGCio4A/NYhQcGyBHoCM+QSy44BpH9FoMdlvxL418r7zyWQSvx1jNH+ogQQk1104A9uNvz24AN4PPV7ArPz5xLHG7cLa9zjshfGA9NBAARmI4CYbDaUELQiAfjtirDRVSLQE5ghl4Cv7IhAj8vuSF2oAgIgcFgCiMkOO3SXVhx+e+nh38L4nsDs9u+nPxaN/yAAAiAAAiAAAiAAAiAAAicmMJ0r4LrEFlke+hwhwPNw5CCKQQAEQGA2Avh+dzaUELQiAfjtirDRVSLQE5ghl4Cv7IhAj8vuSF2oAgIgcFgCiMkOO3SXVhx+e+nh38L4nsAMucQWI4M+Rwj0uOxIUxSDAAiAwBcEEJN9AQtVd0MAfrubobiKIj2BGXKJq3jDIezscdlDGAIlQQAEdk4AMdnOBwjqhQTgtyEWFC5HoCcwQy6xHH9I/ppAj8t+LRQNQAAEQMARQEzmkKDgAATgtwcYpHOp2BOYIZc415gf3Joelz24iVAfBEBgFwQQk+1iGKDElwTgt18CQ/W/EugJzJBL/JUy2s9IoMdlZ+wOokAABC5LADHZZYf+0IbDbw89fEdUvicwQy5xxJE9rc49LruK8a/HcLvd7s9VOttrJ4Cw15GBXnMQOEZM9rzfbrfh8ZrDYsg4A4Fj+O0ZSMOGTKAnMJsvl6Alj7uU/8Nwfzw3WgM5DiJNBh0SyhEplX23XMuBq4eUK06oKZd9PR/3IUX4+W9Y0r147MVFViTQ1dXrWUkMw32pOWYh8L6bJ10qoxII7I2AjcnKgl+XmHVOYNJxuN7sKZf4vAKstDTtzZVW1cf67aqdo7MrEuAVcdry2XIJWQ5lGa6fJpSf1mf6qOQr4Zqrm0pV0kOFP6KpCJF9VSkJkwPIJTTaBffGXPZ5lyRiuOc/SStkGOfVisd+dtlzxAXCgkkwl8Z35+gis7QQeL/pa17mkAYCqxKwMVn2b1liZIVZ3OHruSpacGac0H+m+2EF+LA0/dz9nhD8bMR8Da3fzicZkkAgJDAWmLWV588lZDl8Pek2EVJCytqef9mWRbdDXq468AmhPR3welhvYJH9tg4pJweQS/wyVj+1CV1WhtJf43q9nr7wp45tIx77Dj+zDaf3ZzgpehGvx9D4rj8+rdLE0YUgTPSIQyCwHgEbk3l/z6eA2dcBZSPP2Dt9XRL0NOOEVt3Ov+M11UvTzz16wT+LOkND67dnsAk27JpAGJgZjZfLJdo0L1vuAAAgAElEQVQv9ptQx/T/3S6tKX33seeqw+ORbjetmUO93CDLdj5f+FtS5QByie9G6Q+1A5dd5XTuVOZexUXc4V8L/n5S/KjY37soxn3sq9TEBggcj4CNySJ/5/PI7AtBA4t6uD/zZXDf04wTuul1gc0I3zzdHAbBPOZ+kmL99lN9HAeBPxIIAjMncf1cwtz27m96pwqs++1W7gbnNV2K+XMqRcn1h8eLl7iaEOT9UiD7TpocKDUdPRTMTMC7LI+jP8MGHVPV+/NdrrQ/8qPTr/Ym3tttuPsHGVunSw8g8Ng33Yrwpl9X5z3VUXbI1oOreKVg8fmmr7KZnbI2LUfe79EuupR/v/sg6HkyrXkr8TYMMiCNztgEga0I2JjMT2j55qmZbq9Hud+ynp3+YEGdm1H37zyr66Sr9UunrqHUSZMzLzjyVFVV3y2DYSuzVFKdqkxRIW18XpoajNRSSYvXCqrSLprqa8HmuTE3GKE5/GjZBARl0U53rN/uVE2odR4CPjDzti2aS5R1oCw+dW3Ty0OpEMVDdLDIahrWVt6wXL9pK7XzklcyBNmX40WWHCg1yxFsLETAuSyPgT0Hxb1XFxnSLc8SurIIylmfz/T8dupED7a0pDul5TZpdTGL/VLrYXX70NEr9Z46T28koL/8WoIP7ayxVVn3zPVYF9RkWvmaiXyC0KD7oDlrms1ND843Ta1V2AeBtQnYmMxO6KQP+7DMnTr30lNbwUrytQnt1MzTaTp8bxvk3pzerCYtZDybeV0dssZFd70Mtq14AaVmatJSHVXSWswS0grnl6bgxXitsNw5L43tWjG2puXUZXxdzxJ5xZXRSrrxsI1AaM3Z67b1273qCb1OQ8AFZoFly+USzXcidiW+DXKX+0tWn7yq8apYQ71X+gahLl1SWwQGBklRrspt8w43kz5EiOzXbrIMOYBcQqAu/ulclkdOhqp++cUVdVKghrxR9fV8qZeJUb1mtHmcmwL5hq0deGrU6FFUaco+deS+Y0xKcu+NlLCoMSddP+DzYYLgXpVmrUstO5Tvh1BAfdKcjpfaygLsgMD2BGxM5h2aJk75JtzPkXeKdP9iiJmZo5O3TiPTInXu9M5q10ZcQy2X3hjXSsL1JrmJFGztH1+anJK8KmUd6WjVtxUp65c+6sVZDM4cbvIBgul5l7vWb3epJJQ6EwEXmAXGzZ9LlChPNkqYlCe3/jIkf/Ej63Wp47/ZkDVFf18c2ERFeiXJywipIkuK6CX7eq0qS3Rfd2NqoPwrAs5leRhlqJKs5yO/yCm/FrUeo7puFH3/POClndnl+q6QhJc2VMnVsV35Cl5FqkN3Vb3qH+UKHyxpbwloX5Xmu+jJJbyqZQI0RivZHzVnmeV7A0sH+yCwLQEbk2WHpa/y2y+y5VbJ4Kv12ICUYTR/6puMtoWfdWqGcVVTRLvNnPw4T0mK78mG3n1fdBhlWmPqdrw0yXIgNJQoOeiuZ5BUVbXaM71sjjRqvyAK0rBqxX63rN/uV1NodhICLjAL7FoylzCPQvBy4UJzKc6hk+yy8uZbV1oejAQpk9Qly8nFJSDj/bQrPch6LPulqmCSA3r1kaP4XICAc1keNhkq3aM9RvtuFLlNeuNTTUJSN0Vm2IzHvtTpCcc/diTJsFKRjRDnbT9VNW153StvSyuqRuZQWalBrY2BUasP0UaH5uW+ZLMUVP2xBQKbEbAxWVnw8zQ0XhvOkUh5OzP0zKst8hzMdzxy8kFXHNXUN93SrpZo5nKYFfhmPa166lR79NaHpcmY9Z5aK2zdbGG7Wpbtws43Cq7POgO1Dfvcs367Ty2h1YkI8PSaNmj+XEIvc03vPG3bKI4OSnFZA+wTrM11DFoejAQpk8Uky8nFjVS+V708i12CSVGgFIjOIrnKkCP4XIiAd1kehNCp7CHaDwaruSNInKT1obCZO8dQLa1GUIduxW06SZttI99XLnnWixKy1Y2YRJRufBc9iVDUqieXSFcd3J/WvPmWMhgcXRd7ILAeARuTuQmtVQnniK7y1V458ZgFQ92F4xID0qJdU4Iv1wNNfTNnbdCqp86UzSSyLE3tXU1enyRnZK3wmuWSqcXHN0IuMTVWOAYCowR4iRo9TAdWzCXK3UwqoigLql4ek3L1YQo5RsuDCc9G7MtVm75yT/cHJRVNjCdSm7rUfa5Xl8KRrlA8G4HAZXl0zNhQh3xEfMOddLNSPOzt04DmBGl2uZkrpM60FqYO7050FF6XMEJ+Iak5BIq253DpwPRrdnsghE1EvPvMk7mOlquBAhBYl8AvucR8ZwOaP3pFIfP1dHbLWjC/3UwM6lCRmn09rXrqTI3ZqC1enUaMWyu8PU6xpnne9I2QS3hKKAGBDgJBYOZarZlLlGSiXmmw6UL6bZu7PJhd7kYqCy4vTfXRbGdOLchVS9N0hMvyz9c1JwUR27x/onmGTC3AtQNsLUAgdNkylOZmWi6vw0P7asDLoKtSvk5h2lWfbJ5trnWy7zQFfDazKelkR8E3iFKk2qU8+qWfFxfWNEEUB3vijc6yllSZWdUertKoUWZArcMQSh3uqexmFcc058aNMDEJnyCwDYEvcwk5fzSPIqcv0tVs7Dckmqfc2sxWs6yZo7KANAuRSz+SWGqmZp9TwHSUWvXUEZM/L02iRnogZfobQaOtU0M0m1p8AnOM2MhAsWbPn9Zv96wrdDsFgTAwM5atmkuUEIY1q//Ls6O8aNQDtNUsGLQYlMPNAWOW5A1thFhWjty+XVjj22DMxWbXBwrmJsBD46Q2bkGve00vfM2j2PhAcPJIkthn+M2kj/py+Gb4RTzL5lcGUgdNneK7/JLFVImT0lrnc0eizI1fuZibZqce7g+6czrr2BjW8BBVSULzfGgT3xRxiVLuQpqNK1/t4zoJrzWQUTaKla4izVOf9M1AuhE8c6+wGpuwCQKbELAxGc+SCR+VaZRnH69BE/UnrOKpE7fVx2ivmXSixMRctk1kFVTdOWuDVj11xEjRa2JpUqfgVpnUdmqtYCLfLZuBOVTU9uuTJbFmz5/Wb/esK3Q7BYGRwEzZNl8ukad783W/6kh26I5ICQTpt+j0Fzvp61B12Hzt83yUwxIoiWj1KatPE2Sl4/yGfwqUzBGjGP/0jbxzQonGzmIEJlyWx6d1jeYKFikUnDxY0fJYX4qP70/+Jl+dUtrXrLJYf9pJ30GK7/HPybk6HR2VX9JTV9eM19dLcwFp7aikiXHTmhnXEOSz8s31GHnVrDUwIDyh+cShwCwUgcDKBGxM5iLnQB/l1JO/Khk0rkU0k0bPleqon3Qf57JvssJ1iZQopO8MyhIdLU1yQcF8yUfrb2noX3SdvoSRw3VNm271G4Q6RPvdsn67X02h2UkITARmxcLZcokiERsg8DOBHpf9WTgaggAIgEAhgJisoFhxI4jxV+z9DF3Bb88wioeyoScwQy5xqCE9u7I9Lnt2BrAPBEBgDQKIydagbPpAKmGAfL8Lv/2eGVr8iUBPYIZc4k+I0XheAj0uO2+PkAYCIHBNAojJVh93vo2suU1pdQ1O0CH89gSDeCwTegIz5BLHGtOTa9vjsidHAPNAAARWIYCYbBXMTSdIJRoYP2/Cb39Gh4a/EegJzJBL/MYWrRYh0OOyi3QMoSAAAhcjgJjsYgN+EnPhtycZyOOY0ROYIZc4znheQNMel70ABpgIAiCwOAHEZIsjRgcLEIDfLgAVIqcI9ARmt38//bFo/AcBEAABEAABEAABEAABEDgxgelcAdclprIxHFuZAM/DlTtFdyAAAhckgO93LzjoJzAZfnuCQTyWCT2BGXKJY43pybXtcdmTI4B5IAACqxBATLYKZnQyMwH47cxAIe4TgZ7ADLnEJ4o4viKBHpddUR10BQIgcFoCiMlOO7SnNgx+e+rh3aNxPYEZcok9jtxldepx2cvCgeEgAAIzEkBMNiNMiFqNAPx2NdToiAn0BGbIJeAtOyLQ47I7UheqgAAIHJYAYrLDDt2lFYffXnr4tzC+JzBDLrHFyKDPEQI9LjvSFMUgAAIg8AUBxGRfwELV3RCA3+5mKK6iSE9ghlziKt5wCDt7XPYQhkBJEACBnRNATLbzAYJ6IQH4bYgFhcsR6AnMkEssxx+SvybQ47JfC/25wfN+u92Gx+tnAWgIAiCwWwI/xmRYFlYd0dfreR8GPjPchuH+vPx6/KPfrjpq6OxUBHoCM+QSpxryoxsTuOzrIeeRfDrhjzVCfAQNR/cn6A8C4wTGYzJZdO7PoPWelgVWdGoxPHgknkdiGO73+z2fCYZwWIKROmnRuN+e1GCYtTWBIDBzKiGXcEhQsB2BwGXz2ZLOJel8kv8e0Vl+ZsX3FDT82bRTGfNnGhAAAu/RmIzmCq1FUdS6p5n0IZd45vCbV08OxacSj16nWA/B66GuRLx4aOawodfW/dUb9dv9qQqNzkEgCMycYcglHBIUbEcgcFk+W0bn9MXVXO+Mubgp7/epjFmBF7o4PYGxmIynCn8NHiw8x5lJXtPXY5gjDveCV3OWD9nTanps2NGY326oEro+N4EgMHMGI5dwSFCwHYHAZZFLzDMcG57+5zEAUkBgXgIjMRnNlPvzPbbyHGYmjRnwd4pbItiy77+Tm0PCiN/OIRoyQCAiEARmrhpyCYcEBdsRCFz24wmxnPrlgv7tJpfFX496i615hDq1St/QqduJzXN9wVnr9Swi03PZ0hERo+o3+0VmK4S2U5TylapJeKum6TZfcrBiG3tZMWab/1sttxty9AwCGxGIYzKZpO+xZKKd0e86+xoj3JolMr+b+GGrZl6nHo0yjRKiv1uRqA61c4eUNLXWDUO+q5Qbjiwm3y9T/CT1xEKtLPpksat8yoLYb09pKozaB4EgMHOKIZdwSFCwHYHAZd152WrHJzd604d+QI9uD26K1MX91GoYuFVTR51d1Zk1BfT5MXB+EFBeLlKfBIxUVTJ+UzX3Owz3x/P5lGSmsaYVm2zJbz2pNV6pWcKRRTzxLhTrRdi/HoEwJqPJlFNtntB1HjEiNaW/yCVuv6xRaZXiby2Cef0hl8i60bx3M/7TYpUXlbLmlHujRheTTKtrmUpPvfHjG7eBN5pF2AJXnmnoq2MX2Qn99iK2w8xNCASBmdMDuYRDgoLtCAQuW85Q8tR1+mzPjHzSa97dyi3SGbR8h5eFlP1ylq1VpKgp0aetLFZ9o59PuCKXq7Q1tIifVPVC7RemTqxkH6JXGlCtyXZDjJ5BYCcEopiMpkmdwdGsMWWmRbLNTVmq4xekr9coFtwsUR+ndXMlhL5JqC9UdUoqWXS07UiNmUEQ2uww/Aah9Pt60dth0ymijk85eqWNyG+vZD9sXZ1AEJg5HZBLOCQo2I5A4LJ8yuMD5X97MvHnNX+WHDm7m3Mlt6uFSnIgtEQNpcmkhCieD6SaItpN91K1f3SPVOlV6cmDZ4Qgl9jOp9HzXgn4mKxr2pjpRrvtguSC6N8mftSqbx1zvNu7lexl1LKKqFSifBvRfmtT5RoEshB+u0x53N5A7pQ6TMt/uupR86Gq0ZW2vN9eyXrYugGBIDBzWiCXcEhQsB2BwGWD843Wz5/X+KyoTu9OStDKnbxVHbVTNaDi5osyVU3txPE8VZlSlTsoWVSzUaIA242c2hu1nG3VAmyBwDUJuJgsrxJ0K2G6nTD90R04ZaolUGa6+RnsA2LTpEiZmviuo9Sqbx2Lh/PF9zk2X+srtdQOdZXvQqKbK3X8butmXZvFqW4Wdr5Rz0LNtpDdRVJs32VKnd9exnIYuhEBns7TnSOXmOaDo6sSCFzWnT2tQr+dooJW7uSt6qidqgMVt0F7U48223ChOSYSXB0bLuQ2+roEXaMQETa4SeWeWtB3EYANELggARuT8aSpUXCz1YaxZib5Gexnn2mSWPtmbs4GrXrqTI0kiazLVdOD1yfJaa5oTCAQc4bHl8uU79QZyNZQcavBlJFnP2b99uz2wr7NCQSBmdMJuYRDgoLtCAQuO3JyqTo250Mp7DhFBa1cCKDqxHpwqTrJlVZei3JIFO0IKeJ+q4B6Hm+/OvStgr6VEOyAwMUImJiM5oyaysyDZk6Nv23qHkwsN/uCOlTUftHglh/bUdKmR/LUKI7a4tVpxORfiKvaenucYk3zvOkb9SRU3HhsbHwvFygxfnsBi2HixgSCwMxphFzCIUHBdgQCl/14kvrtFEWt2qch5TJ9E0xoydyiOUxvak0aqzK5unG/391TglogYaaiepIOwgUGYPp4pysTMk6BWE/Nl0hzfILAJQnomGx8gvDML5PUTDdzVOL95lYiWRLaVyH0hNGmozRGTsmgjoxl+l069ZaK9GbptF4VS8r3ENFiJWLokxrWdk4N0ezLZcqIjQxUamAnEdB+CyYgsDiBIDBzfSKXcEhQsB2BwGX5tJVfw1rf5VSfwAvOph2nKKrC3ZFs9x7Vcp6tEYC0kXfC5ua1QgbHKqej9exLh35TlcMOeuyQXwrLP3FRT9uB2OBkn7Xnl8YaxbYbcfQMAlsRUDEZT494XuhjdrrJdOe3mvIbXNP/RpZtIotLU0Wi8aYoaOXmdVBHcIpeN1KsvoNVr1elVqsv5SzyEmp5C3WjWV2S0ptq8wFS5btlipq0cn2yRNYESZBYecFP5bcXtB8mr04gCMycDsglHBIUbEcgcNl6ruOD+f9kJN1xipJzcP2VpPILd8V8qVMK0vlefr0hXY8Ye6lI1rnqmCUEAjtUTY3Vj0DZl5kEYlkDdZZO347mV7rbKymNgdgEgasQaGMymkMqnG4pqKN+uqWnmuXXEuhSAFVpZp9vssJ1CVo2zHr1rFczxb54sZpccFLTcDGZbPUbBFITuYSMVvps/bYtxzYILEQgCMxcT8glHBIUbEegx2Xn0S44sc0jmKQsK31GRSEKBC5LADEZDT0Wq4PNAPjtwQbs+Or2BGbIJY4/zieyoMdl5zF30RPoosLnsR9SQODqBBCTJQ/AYnW0eQC/PdqIHV7fnsAMucThh/lMBvS47Dz2LngG5ZsG3A1O8+gNKSAAAvMQQEwmD2lgsZrHo9aRAr9dhzN6KQR6AjPkEgUXNrYn0OOy82i5XC6BVGKeEYIUEFiWAGKy/KgzUollHW1m6fDbmYFC3CcCPYEZcolPFHF8RQI9LruiOugKBEDgtAQQk512aE9tGPz21MO7R+N6AjPkEnscucvq1OOyl4UDw0EABGYkgJhsRpgQtRoB+O1qqNERE+gJzG7/fvpj0fgPAiAAAiAAAiAAAiAAAiBwYgLTuQKuSyDz3BEBnoc7UgiqgAAInJQAvt896cCe3Cz47ckHeH/m9QRmyCX2N24X1qjHZS+MB6aDAAjMRgAx2WwoIWhFAvDbFWGjq0SgJzBDLgFf2RGBHpfdkbpQBQRA4LAEEJMddugurTj89tLDv4XxPYEZcoktRgZ9jhDocdmRpigGARAAgS8IICb7Ahaq7oYA/HY3Q3EVRXoCM+QSV/GGQ9jZ47KHMARKggAI7JwAYrKdDxDUCwnAb0MsKFyOQE9ghlxiOf6Q/DWBHpf9WigagAAIgIAjgJjMIUHBAQjAbw8wSOdSsScwQy5xrjE/uDU9LntwE6E+CIDALgggJtvFMECJLwnAb78Ehup/JdATmCGX+CtltJ+RQI/LztgdRJ2VwOsx3G63+/Os9sGuGQggJpsBIkSsTgB+uzryq3fYE5ghl7i6l+zK/h6X3ZXCV1Vm57H6HtTbgw5Xdc8+uxGT9XFCrX0RmNlvn/fb7TY8XtlIs7u56UYfs7u5etdQoCcwmz+XeD0f9yF9Kch/w3B/PMVNr8H9Sys55kizGd+iss8ogIJHHCq7VVn6VOVL7wipNb6NXylQ5m7qea5zfEe1A6JOgpeoNnNMdglmMHJ7AjP7rYnOze7m5hp9zO7m6l1DgSAwc4bPm0vIqVrHfW3S6xTYVQH56dr3RkinzVcDu4KypjKBy+ZwcrirP+RdbliKH61xa89otO7U+lNBHvwvE0dqFSUgQPSn0Thb45ljsoqH/CxywFoFWyDwK4GZ/dZ4q9n9VUlqN4csI8Ps/kk9NO4lEARmrumMuQSf96nToVyKeL2e92E4yrJKfrp2LiHcjgLJ+dCMBYHLMp41vmuf0Y4NRPEae7+v85zAnkeFdItmExBt4Jc77nLmmKxaininssDW7ARm9lvjrWb3T9rPIcvIMLt/Ug+NewkEgZlrOl8uQWOcuozO4q7ffRaIDYhcNxqfwGX3HLVuRCnqllz3/nyvhGulbiJLP5WNnmyA6BO6ix2fOSar9EZdsFbBFgj8SmBmvzXeanZ/VZLazSHLyDC7f1IPjXsJBIGZazpbLkFDnHr8FId/eJ4iy0lRUbqiwTbchjs9c9EUDfXax/udI6jUN4kvrcr1ETG8kXC7DVlsOlj0z23TR5sVjTac6t08J6JML51zWKZ7U8YrPcmQ1kh/VGw94CfDV4pPR600bPfn+0nfxyeI9aETRSnAJG3T0BaP4Wd7Xg8pGu7TN9iEQoImPykTyFFs6o6oIVMhnIXVKu37fPGwOH5kcqt+mjXhqEzNEZ5geVr30ya72nmYDJSx0VZkGEELPgJE1V14qx3UW1pQVQV1dGL6NI2cVwhzmWFtHxPjOOlIaon3ajfqfNq0MZloqxaEYA5OkSEZZSrRRjgXJ6wQNRr1vwPbnDiDcWvEYvOQBKzfJiMmZ1OzYgYOQf5W11izS8I/eVTQe/9EULP95s4+Rh+ze8gBPJ7SvKJN6z1XLlE8J144RQk5p+jFto2jRVBJI0rVwRVV/+e19uarqNxGZBeRaWNgjaNjRX50UBrWXOLmFGyzkayi7judqORA6S3Ma5ruAm1qWyF9zE+mo3R3p1F1tLIY0hMVNSAqVPlBizw0ebBZBLelI1QpJxQDh6pN0RTdVghrQDboJl8qMypHmd7ukBZ56nFnWoEmWSa7sokUJ+X66R0Jz2d6cQLNChVCCWVmIomXmlvZjelVC6GYFlR69KWPNrVqbFGajKraNCiUqCUQFR55lanDru5E7fVYvdxzq6ZMhouyvnZ6ygHnjbIejjoStxxRu1rXs2Vjsiw6eWZeTX6Yy6/k/SSCJ9QzfPPIlBV0rIFYzjBNGbenmcqrhSSCHbO5Bw3q7JiA9dsSMIzOpuzQaQaySzeuxK3rkkmuVXc/LuxjvfdNhM/+avQxuzsepjOpRl7zIVn4cHgMhxNd1rbWSW3rUqlcU3g1RfwlfilorkVwbxz3p1pyoquheikpacnrkd50lv5kWohk6bz0LRXqxQltxMeGTe98/STQUITccg2+8hDlElJzRE/pTLR+pe8EZMcSP9o+j5jSmu2lc3t9+lrOnLKOWfszJDWOzLWpmUHXEkFbXEZcrVZRqqUdJ0TW3hqM/6aMl+P6LgWkRDWWdrXOmWJV6v1Oaz1JeD1f6gKabe7bCqjaJZfU/TJLS5EDJUImaWtdvCbVCoah6xdAeZyKMvb8mSpOCT8TogyFzNVOUnDloam4iqM3DQi1qpIRNmVu0LmLCdR8qBEhA5OLptQu+ndu2JjMa+sU5QJ98Z2bNWQi79IqTVrxZ7Dj9LQW2DsmAeO3zknr2t7lruRv1X31LkuY8KiJ3vOqW0VHuD8trXYyafUiiSibn0AQmLlO1swlyAua4J6VkdLsrmY31ZGixielSHw8z5kmLJFTULnryjYp0UPNNkpPIpY0/Nww6t20MrvtOJjWQU1dQyo0N2i14g69HbisGM+H8v/iCgSj7Int3EaNYhnuWtm3DdoFRdILfXohNqKKJXDplDJOTrpsUP9q+O87cEr5KsoIvWMqm12uawppl+59etU/ughZLHQ6WfuSYCPWnIzcUa23LBV23CO59gwVdO2ENwVGE7PLFU0h7e4AkVjB6skXFlJKn0bzfEwaiOPRgGrWrqEf9CTMVau906EpSqJF+G1/ldO1ZWIy7xNO1Vhz0UnIRIK0QtIitOKPYKfoaS2wd0wC2m9jnyTL4kPifOKuZpKqXao75VFxF8JVyZLC6U8n0Mgwu9PCcHQmAkFg5iSvmEuwk5TYXlSR4hx0kKvoSlJUwpKaXsipzAhh2aqd1FAhaRiZ6s7ziS9qVpIQkd0oaNKSqEYMQGpGHWb5usqpfr+DrRYy9MnWykCrQxI8ttypwsh6ww5RRAW1qKhUSLKmuzfBLmtnmgTdpHqfldFyuH51i6JlrkZ3KEmqQXf/NFhGdGB9yczX8/GQ6z50HbzID9tq3Yq3V/VkqygRiKGi0g+pYX+uWrVSO1X3uuUF8jEgqozqVrnJ2f4G0AhnKq5fyQewjVeEs0NcvzhGVUgOie+oz1J/VG0lqGdHx2ShtsaiPjKfc4m0ruS7/Cz8rIaaFn4VihXhEVLY8k6h18MFdfZNQPtt7ApkwcghdpPiYaaW2uWqEx6lajts00dL9df42cfNyk6RRTY25iDAHjAtaa5cgtfc1GNxUdtxqaJrSHFe7cR5m0pS1KyHUiS1jBDuWipRO6kxMS2y2xobOhpKlUbBEl2xhlEN4aOPyd6knm/ztKy6HiNyj/gZuCwDkYG2RtEYt9ypQlzaEb5TQ9XXdPdupUvdmyY/K2PkWNPzPteK3KXxihEdWET8EFOhELY1uuU6z3pRQraK1oEYKir9pJpGrMEbiCjio8ZyEIiEhP9sniMu02iEMxXX9d2P3ofhK52PyE/H86EpRyIxkdpFfu+GjslK5/J9bRJjHHJEcyquZMSKVlCoU2wFSVPTwqoRqvoFvVAZFB6FgPbbEZ9MxowcMu5qaqndvDM+H1VtB3D6KFX/cPZxRnSIdGqg4K8EgsDMiZwrl8irXepSr4JNj+QF9h6ncp7PzaRSI0WKyrku+1fTl0hpqlSNWJRIaQQ3uvFmWCcsVE2j3nUrqRHBkWNZd91Q9eN3yjMfkWBfffclgcsynl2cKL0AAAcRSURBVLFRI1rtqJOJcRsurZWDtlSk+opFVZCBENPE7OamHcrEDWvX1dRqUzlKehWv0HulUtrIishjPKWkUAjVMIVmV3WQdwJQVFT6qco0RarVhBVe7aoDKQdEFYjfyutIBh+PJpdWjmpoWKRrGNSREKf4ptLGSVBH7Y5W2x79uK9jMhe1pPZGH7Obe+DSSmYshhtRyFoRQHP9BnW8tiP9ofjgBLTfkit8M5usuxpfUrvO8Sy6id5lpjcTw7b+fPZxs1Kp5+ShYBkCQWDmOpotl6jxPb0aqXwlQ1+9ZG9iv2uzCR8LSx0bT7Stal9Si12eDM591RJ1giQx5S5V+0t60rny/iKpubdYN5QabTMRZXv/+Oy1CEuvNxWKbXevR3tVXGq3XbtBPk5B4LJsoQy0NYUwe+OZvirPrtaUBW2pSPU13b1b6ZJ+tsmvylg51vaor1qHexVbQh3IwehIQyWZlG5ykpYy2Zoq5Z2ZtQ7r2tQhRdLFCdHI98MhV5URoDNR2bgVnrr064ajHGDhxdBx4V71YyKqlvstslHGIkRB77JoRpgrSZMyeK3nmOErvYbyebn77EhFStpQaqsjHTs6JptvLk+4XKyVtuIPYL+kF2uD0p0TMH47MZvCQ+FErhOb2pTdjx4VdiGhC7du1ghLVneWjtql1a4hvoWVif35CQSBmetkxlxCTufcrfovnsmupQ7RTvOqTnZNf0LqziWMdOm6OdeZGiWYkFNTOS5tx9SWOSLHpX6i7OyIruVRA9daCooeeYO7C4+2PbsxPlABW6oUZnsFtTokmCPrhX9+ARS/Cq+56yduS61UX9Pdd8Uf1Rm+U+ZT12JC68ANHyYgxhS3ad4byA25Hr9k8yF3casJKG1ZfULJb18W4anXDHy4P/jdsiypDg0dr7ulSSvDB2GmlWhyc1aMwmK9VC8Fkj42LpzrHR1RMTttJGPlvavyIuAGEltcXyXJE1MPn/CiseBXK9N/K0a3Ii2kqR/HD470QW1l4scdE5PZqEUwqbkgfs5vja2vNm7fkNbYkN7C2fDIKn2wQuj8AFbUG52GH6Ggwu4JWL8Vf5mYTVPuSnO9TlKz+9GjpnqvjeOJIDNlamk1+pjd3Q/WORQMAjNn2Ky5RJLO1yFy9JvORebZYHf8Ljks60auor4WFX9sA0FbS/x5eKSXe+fAUd4q2xj9qff3WzcvTScb1t7Lt7BF6fZEon6UZfK36qa7a385Ji0S5fpFUfeoG4HLMtwWY2vc1MpCL8sVT7R+KNFvXUOTWBKn+pruPrfQQsImPygTymmNz06m9G2O8ySpR2P3o7gyPweaEvb7k6/g1HZJZLkUkWqkGetJcSWZe1Kv6BOMlJfhTPatYiuooR4G7pkEjGRbciarpsbCz4GojARvKFPzoKoqnzyWF3tZbHkZsiPqh690ofo3i5g6pnWbOFRE927YmCzQ1jlkkt1Bpvx4ZnlBh1LqkxWvehr6Gqz+nVNNTymBnYMSsH6b1+ey9NrZlF4a338ejGaBjjhMyGYWftN7/Q41Wp47llajj9k96BAeTe0gMHMmzJ5LuB5WKeAlP163V1EAncxCoMdlZ+kIQk5FYDSVOJWVMGZeAkFMNm8HkAYCCxCA3y4AFSKnCPQEZsglpgji2MoEelx2ZZXQ3f4J4Luq/Y/RDjVETLbDQYFKHwnAbz8iQoV5CfQEZsgl5mUOaX8i0OOyf+oAjU9IAKnECQd1BZMQk60AGV3MTgB+OztSCJwm0BOYIZeYZoijqxLocdlVFUJnIAACJyWAmOykA3tys+C3Jx/g/ZnXE5idJJfYH3xo9AuBHpf9RS7agAAIgIAmgJhM88DeMQjAb48xTifSsicwQy5xogE/vik9Lnt8K2EBCIDA9gQQk20/BtDgewLw2++ZocWfCPQEZn/KJbgD/AcBEAABEAABEAABEAABEDglgel05Pbvp79TkoJRIAACIAACIAACIAACIAACLYHpXOHH6xLv9/vfv3/TaQqOgsAPBOBXP0BDExAAgW8JYKn5lhjq74EA/HYPo3A1HT56HXKJq7nE3u396LJ7NwD6gQAIHIEAlpojjBJ0tATgt5YI9pcn8NHrkEssPwjo4RsCH132G2GoCwIgAAIxASw1MReU7psA/Hbf43NO7T56HXKJcw78ca366LLHNQ2agwAI7IcAlpr9jAU06ScAv+1nhZpzEfjodcgl5kINOfMQ+Oiy83QDKSAAAtcmgKXm2uN/VOvht0cduSPr/dHrkEsceXjPqPtHlz2j0bAJBEBgbQJYatYmjv7mIAC/nYMiZHxH4KPXIZf4DihqL03go8surQDkgwAIXIEAlporjPL5bITfnm9M92/RR69DLrH/QbyWhh9d9lo4YC0IgMAyBLDULMMVUpclAL9dli+kRwQ+et1/Cryu47evyfAAAAAASUVORK5CYII=;" vertex="1" parent="1">
          <mxGeometry x="-669" y="-19.5" width="279.78" height="175.5" as="geometry" />
        </mxCell>
      </root>
    </mxGraphModel>
  </diagram>
</mxfile>
